<?xml version="1.0" encoding="utf-8"?>
<!-- Generator: Adobe Illustrator 19.2.0, SVG Export Plug-In . SVG Version: 6.00 Build 0)  -->
<svg version="1.1" id="Layer_1" xmlns="http://www.w3.org/2000/svg" xmlns:xlink="http://www.w3.org/1999/xlink" x="0px" y="0px"
	 viewBox="0 0 276.9 54.7" style="enable-background:new 0 0 276.9 54.7;" xml:space="preserve">
<style type="text/css">
	.st0{fill:#FFFFFF;}
	.st1{clip-path:url(#SVGID_2_);}
	.st2{clip-path:url(#SVGID_6_);}
	.st3{fill:#54B948;}
	.st4{fill:#ED174F;}
	.st5{fill-rule:evenodd;clip-rule:evenodd;fill:#214A7F;}
	.st6{fill-rule:evenodd;clip-rule:evenodd;fill:#006C45;}
	.st7{fill-rule:evenodd;clip-rule:evenodd;fill:#006C46;}
	.st8{fill-rule:evenodd;clip-rule:evenodd;fill:#006E47;}
	.st9{fill-rule:evenodd;clip-rule:evenodd;fill:#006E48;}
	.st10{fill-rule:evenodd;clip-rule:evenodd;fill:#006E49;}
	.st11{fill-rule:evenodd;clip-rule:evenodd;fill:#00704A;}
	.st12{fill-rule:evenodd;clip-rule:evenodd;fill:#00704B;}
	.st13{fill-rule:evenodd;clip-rule:evenodd;fill:#00724D;}
	.st14{fill-rule:evenodd;clip-rule:evenodd;fill:#00724E;}
	.st15{fill-rule:evenodd;clip-rule:evenodd;fill:#00734E;}
	.st16{fill-rule:evenodd;clip-rule:evenodd;fill:#007450;}
	.st17{fill-rule:evenodd;clip-rule:evenodd;fill:#007551;}
	.st18{fill-rule:evenodd;clip-rule:evenodd;fill:#007652;}
	.st19{fill-rule:evenodd;clip-rule:evenodd;fill:#007653;}
	.st20{fill-rule:evenodd;clip-rule:evenodd;fill:#007753;}
	.st21{fill-rule:evenodd;clip-rule:evenodd;fill:#007755;}
	.st22{fill-rule:evenodd;clip-rule:evenodd;fill:#007956;}
	.st23{fill-rule:evenodd;clip-rule:evenodd;fill:#007957;}
	.st24{fill-rule:evenodd;clip-rule:evenodd;fill:#007B58;}
	.st25{fill-rule:evenodd;clip-rule:evenodd;fill:#007B59;}
	.st26{fill-rule:evenodd;clip-rule:evenodd;fill:#007B5A;}
	.st27{fill-rule:evenodd;clip-rule:evenodd;fill:#007C5A;}
	.st28{fill-rule:evenodd;clip-rule:evenodd;fill:#007D5C;}
	.st29{fill-rule:evenodd;clip-rule:evenodd;fill:#007D5D;}
	.st30{fill-rule:evenodd;clip-rule:evenodd;fill:#007F5E;}
	.st31{fill-rule:evenodd;clip-rule:evenodd;fill:#00805F;}
	.st32{fill-rule:evenodd;clip-rule:evenodd;fill:#008061;}
	.st33{fill-rule:evenodd;clip-rule:evenodd;fill:#008262;}
	.st34{fill-rule:evenodd;clip-rule:evenodd;fill:#008263;}
	.st35{fill-rule:evenodd;clip-rule:evenodd;fill:#008363;}
	.st36{fill-rule:evenodd;clip-rule:evenodd;fill:#008364;}
	.st37{fill-rule:evenodd;clip-rule:evenodd;fill:#008465;}
	.st38{fill-rule:evenodd;clip-rule:evenodd;fill:#058566;}
	.st39{fill-rule:evenodd;clip-rule:evenodd;fill:#068667;}
	.st40{fill-rule:evenodd;clip-rule:evenodd;fill:#108769;}
	.st41{fill-rule:evenodd;clip-rule:evenodd;fill:#17876A;}
	.st42{fill-rule:evenodd;clip-rule:evenodd;fill:#1E886A;}
	.st43{fill-rule:evenodd;clip-rule:evenodd;fill:#1E896C;}
	.st44{fill-rule:evenodd;clip-rule:evenodd;fill:#238A6C;}
	.st45{fill-rule:evenodd;clip-rule:evenodd;fill:#238A6D;}
	.st46{fill-rule:evenodd;clip-rule:evenodd;fill:#288C6E;}
	.st47{fill-rule:evenodd;clip-rule:evenodd;fill:#2C8D70;}
	.st48{fill-rule:evenodd;clip-rule:evenodd;fill:#308D70;}
	.st49{fill-rule:evenodd;clip-rule:evenodd;fill:#2F8D71;}
	.st50{fill-rule:evenodd;clip-rule:evenodd;fill:#348F72;}
	.st51{fill-rule:evenodd;clip-rule:evenodd;fill:#338F73;}
	.st52{fill-rule:evenodd;clip-rule:evenodd;fill:#379073;}
	.st53{fill-rule:evenodd;clip-rule:evenodd;fill:#389174;}
	.st54{fill-rule:evenodd;clip-rule:evenodd;fill:#3B9276;}
	.st55{fill-rule:evenodd;clip-rule:evenodd;fill:#3E9277;}
	.st56{fill-rule:evenodd;clip-rule:evenodd;fill:#429478;}
	.st57{fill-rule:evenodd;clip-rule:evenodd;fill:#419579;}
	.st58{fill-rule:evenodd;clip-rule:evenodd;fill:#449579;}
	.st59{fill-rule:evenodd;clip-rule:evenodd;fill:#44957B;}
	.st60{fill-rule:evenodd;clip-rule:evenodd;fill:#48977C;}
	.st61{fill-rule:evenodd;clip-rule:evenodd;fill:#4A987D;}
	.st62{fill-rule:evenodd;clip-rule:evenodd;fill:#4A987F;}
	.st63{fill-rule:evenodd;clip-rule:evenodd;fill:#4D987F;}
	.st64{fill-rule:evenodd;clip-rule:evenodd;fill:#4E9A80;}
	.st65{fill-rule:evenodd;clip-rule:evenodd;fill:#519B80;}
	.st66{fill-rule:evenodd;clip-rule:evenodd;fill:#509B81;}
	.st67{fill-rule:evenodd;clip-rule:evenodd;fill:#539B81;}
	.st68{fill-rule:evenodd;clip-rule:evenodd;fill:#549D84;}
	.st69{fill-rule:evenodd;clip-rule:evenodd;fill:#569D84;}
	.st70{fill-rule:evenodd;clip-rule:evenodd;fill:#599E85;}
	.st71{fill-rule:evenodd;clip-rule:evenodd;fill:#5CA088;}
	.st72{fill-rule:evenodd;clip-rule:evenodd;fill:#5EA188;}
	.st73{fill-rule:evenodd;clip-rule:evenodd;fill:#5EA189;}
	.st74{fill-rule:evenodd;clip-rule:evenodd;fill:#60A289;}
	.st75{fill-rule:evenodd;clip-rule:evenodd;fill:#61A38B;}
	.st76{fill-rule:evenodd;clip-rule:evenodd;fill:#64A48C;}
	.st77{fill-rule:evenodd;clip-rule:evenodd;fill:#63A48E;}
	.st78{fill-rule:evenodd;clip-rule:evenodd;fill:#66A58E;}
	.st79{fill-rule:evenodd;clip-rule:evenodd;fill:#67A68F;}
	.st80{fill-rule:evenodd;clip-rule:evenodd;fill:#69A78F;}
	.st81{fill-rule:evenodd;clip-rule:evenodd;fill:#69A790;}
	.st82{fill-rule:evenodd;clip-rule:evenodd;fill:#6BA892;}
	.st83{fill-rule:evenodd;clip-rule:evenodd;fill:#6FAA93;}
	.st84{fill-rule:evenodd;clip-rule:evenodd;fill:#6EAA95;}
	.st85{fill-rule:evenodd;clip-rule:evenodd;fill:#71AB95;}
	.st86{fill-rule:evenodd;clip-rule:evenodd;fill:#74AD98;}
	.st87{fill-rule:evenodd;clip-rule:evenodd;fill:#76AE99;}
	.st88{fill-rule:evenodd;clip-rule:evenodd;fill:#79AE99;}
	.st89{fill-rule:evenodd;clip-rule:evenodd;fill:#7AB09C;}
	.st90{fill-rule:evenodd;clip-rule:evenodd;fill:#7CB19C;}
	.st91{fill-rule:evenodd;clip-rule:evenodd;fill:#7CB19E;}
	.st92{fill-rule:evenodd;clip-rule:evenodd;fill:#7FB39F;}
	.st93{fill-rule:evenodd;clip-rule:evenodd;fill:#82B49F;}
	.st94{fill-rule:evenodd;clip-rule:evenodd;fill:#81B4A1;}
	.st95{fill-rule:evenodd;clip-rule:evenodd;fill:#84B5A3;}
	.st96{fill-rule:evenodd;clip-rule:evenodd;fill:#87B7A4;}
	.st97{fill-rule:evenodd;clip-rule:evenodd;fill:#87B7A6;}
	.st98{fill-rule:evenodd;clip-rule:evenodd;fill:#89B8A6;}
	.st99{fill-rule:evenodd;clip-rule:evenodd;fill:#8ABAA9;}
	.st100{fill-rule:evenodd;clip-rule:evenodd;fill:#8DBBA9;}
	.st101{fill-rule:evenodd;clip-rule:evenodd;fill:#8FBBAA;}
	.st102{fill-rule:evenodd;clip-rule:evenodd;fill:#92BEAD;}
	.st103{fill-rule:evenodd;clip-rule:evenodd;fill:#95BFAE;}
	.st104{fill-rule:evenodd;clip-rule:evenodd;fill:#95BFAF;}
	.st105{fill-rule:evenodd;clip-rule:evenodd;fill:#97C0AF;}
	.st106{fill-rule:evenodd;clip-rule:evenodd;fill:#97C0B1;}
	.st107{fill-rule:evenodd;clip-rule:evenodd;fill:#9AC2B2;}
	.st108{fill-rule:evenodd;clip-rule:evenodd;fill:#9DC3B4;}
	.st109{fill-rule:evenodd;clip-rule:evenodd;fill:#9EC5B6;}
	.st110{fill-rule:evenodd;clip-rule:evenodd;fill:#A0C6B6;}
	.st111{fill-rule:evenodd;clip-rule:evenodd;fill:#A0C6B7;}
	.st112{fill-rule:evenodd;clip-rule:evenodd;fill:#A2C7B7;}
	.st113{fill-rule:evenodd;clip-rule:evenodd;fill:#A2C7B9;}
	.st114{fill-rule:evenodd;clip-rule:evenodd;fill:#A5C7B9;}
	.st115{fill-rule:evenodd;clip-rule:evenodd;fill:#A6C9BA;}
	.st116{fill-rule:evenodd;clip-rule:evenodd;fill:#A8CABC;}
	.st117{fill-rule:evenodd;clip-rule:evenodd;fill:#ACCDBF;}
	.st118{fill-rule:evenodd;clip-rule:evenodd;fill:#AECEC1;}
	.st119{fill-rule:evenodd;clip-rule:evenodd;fill:#B2D0C4;}
	.st120{fill-rule:evenodd;clip-rule:evenodd;fill:#B4D1C5;}
	.st121{fill-rule:evenodd;clip-rule:evenodd;fill:#B4D1C6;}
	.st122{fill-rule:evenodd;clip-rule:evenodd;fill:#B8D4C8;}
	.st123{fill-rule:evenodd;clip-rule:evenodd;fill:#B8D4CA;}
	.st124{fill-rule:evenodd;clip-rule:evenodd;fill:#BAD5CA;}
	.st125{fill-rule:evenodd;clip-rule:evenodd;fill:#BCD6CB;}
	.st126{fill-rule:evenodd;clip-rule:evenodd;fill:#BED8CD;}
	.st127{fill-rule:evenodd;clip-rule:evenodd;fill:#C0D9CD;}
	.st128{fill-rule:evenodd;clip-rule:evenodd;fill:#C0D9CF;}
	.st129{fill-rule:evenodd;clip-rule:evenodd;fill:#C2DACF;}
	.st130{fill-rule:evenodd;clip-rule:evenodd;fill:#C4DBD2;}
	.st131{fill-rule:evenodd;clip-rule:evenodd;fill:#C6DCD2;}
	.st132{fill-rule:evenodd;clip-rule:evenodd;fill:#C8DDD4;}
	.st133{fill-rule:evenodd;clip-rule:evenodd;fill:#C8DDD6;}
	.st134{fill-rule:evenodd;clip-rule:evenodd;fill:#CCE0D8;}
	.st135{fill-rule:evenodd;clip-rule:evenodd;fill:#CFE1D8;}
	.st136{fill-rule:evenodd;clip-rule:evenodd;fill:#CEE1DA;}
	.st137{fill-rule:evenodd;clip-rule:evenodd;fill:#D0E3DB;}
	.st138{fill-rule:evenodd;clip-rule:evenodd;fill:#D3E4DC;}
	.st139{fill-rule:evenodd;clip-rule:evenodd;fill:#D3E4DD;}
	.st140{fill-rule:evenodd;clip-rule:evenodd;fill:#D5E5DE;}
	.st141{fill-rule:evenodd;clip-rule:evenodd;fill:#D5E5DF;}
	.st142{fill-rule:evenodd;clip-rule:evenodd;fill:#D7E6DF;}
	.st143{fill-rule:evenodd;clip-rule:evenodd;fill:#D9E8E1;}
	.st144{fill-rule:evenodd;clip-rule:evenodd;fill:#DCE9E3;}
	.st145{fill-rule:evenodd;clip-rule:evenodd;fill:#DEEAE3;}
	.st146{fill-rule:evenodd;clip-rule:evenodd;fill:#DEEAE5;}
	.st147{fill-rule:evenodd;clip-rule:evenodd;fill:#E2EDE7;}
	.st148{fill-rule:evenodd;clip-rule:evenodd;fill:#E2EDE9;}
	.st149{fill-rule:evenodd;clip-rule:evenodd;fill:#E5EEE9;}
	.st150{fill-rule:evenodd;clip-rule:evenodd;fill:#E9F1ED;}
	.st151{fill-rule:evenodd;clip-rule:evenodd;fill:#ECF2ED;}
	.st152{fill-rule:evenodd;clip-rule:evenodd;fill:#ECF3EF;}
	.st153{fill-rule:evenodd;clip-rule:evenodd;fill:#EEF4F2;}
	.st154{fill-rule:evenodd;clip-rule:evenodd;fill:#F1F7F4;}
	.st155{fill-rule:evenodd;clip-rule:evenodd;fill:#F4F8F5;}
	.st156{fill-rule:evenodd;clip-rule:evenodd;fill:#F4F8F7;}
	.st157{fill-rule:evenodd;clip-rule:evenodd;fill:#FBFDFB;}
	.st158{fill-rule:evenodd;clip-rule:evenodd;fill:#FFFFFF;}
	.st159{fill-rule:evenodd;clip-rule:evenodd;fill:#303D8F;}
	.st160{fill-rule:evenodd;clip-rule:evenodd;fill:#535C5F;}
	.st161{fill-rule:evenodd;clip-rule:evenodd;fill:#EF7E2A;}
	.st162{fill-rule:evenodd;clip-rule:evenodd;fill:#E8262B;}
	.st163{fill-rule:evenodd;clip-rule:evenodd;fill:#D02731;}
	.st164{fill:none;stroke:#FFFFFF;stroke-width:0.216;stroke-miterlimit:22.9256;}
	.st165{fill-rule:evenodd;clip-rule:evenodd;fill:#2C2825;}
	.st166{clip-path:url(#SVGID_10_);}
	.st167{clip-path:url(#SVGID_14_);fill:url(#SVGID_15_);}
	.st168{clip-path:url(#SVGID_17_);fill:url(#SVGID_18_);}
	.st169{clip-path:url(#SVGID_20_);fill:url(#SVGID_21_);}
	.st170{clip-path:url(#SVGID_23_);fill:url(#SVGID_24_);}
	.st171{clip-path:url(#SVGID_26_);fill:url(#SVGID_27_);}
	.st172{fill:#626D76;}
	.st173{fill:#879AA4;}
	.st174{fill:#8F9DA5;}
	.st175{clip-path:url(#SVGID_29_);fill:url(#SVGID_30_);}
	.st176{clip-path:url(#SVGID_32_);fill:url(#SVGID_33_);}
	.st177{fill:#B5BEC4;}
	.st178{clip-path:url(#SVGID_35_);fill:url(#SVGID_36_);}
	.st179{fill:#505A62;}
	.st180{clip-path:url(#SVGID_38_);fill:url(#SVGID_39_);}
	.st181{clip-path:url(#SVGID_41_);fill:url(#SVGID_42_);}
	.st182{clip-path:url(#SVGID_44_);fill:url(#SVGID_45_);}
	.st183{clip-path:url(#SVGID_47_);}
	.st184{clip-path:url(#SVGID_51_);}
	.st185{fill:#706F6E;}
	.st186{fill-rule:evenodd;clip-rule:evenodd;}
	.st187{fill:#293033;}
	.st188{fill:#A6CA3C;}
	.st189{fill:#19181D;}
	.st190{fill-rule:evenodd;clip-rule:evenodd;fill:#F6B128;}
	.st191{fill:#F6B128;}
	.st192{fill:#2C2D2D;}
	.st193{fill-rule:evenodd;clip-rule:evenodd;fill:#007FC3;}
</style>
<g>
	<path class="st159" d="M214.5,47.2v2.6c0,0,0,0.1,0,0.1c0,0,0,0-0.1,0.1c0,0-0.1,0-0.1,0c-0.1,0-0.1,0-0.2,0c-0.1,0-0.2,0-0.2,0
		c-0.1,0-0.1,0-0.1,0c0,0-0.1,0-0.1-0.1c0,0,0,0,0-0.1v-2.6l-2-4c0-0.1-0.1-0.1-0.1-0.2c0,0,0-0.1,0-0.1c0,0,0.1,0,0.1-0.1
		c0.1,0,0.2,0,0.3,0c0.1,0,0.2,0,0.3,0c0.1,0,0.1,0,0.2,0c0,0,0.1,0,0.1,0.1c0,0,0,0.1,0.1,0.1l1,2c0.1,0.2,0.2,0.4,0.3,0.6
		c0.1,0.2,0.2,0.4,0.3,0.6h0c0.1-0.2,0.2-0.4,0.3-0.6c0.1-0.2,0.2-0.4,0.3-0.6l1-2c0,0,0-0.1,0-0.1c0,0,0,0,0.1-0.1c0,0,0.1,0,0.1,0
		c0.1,0,0.1,0,0.2,0c0.1,0,0.2,0,0.3,0c0.1,0,0.1,0,0.2,0.1c0,0,0,0.1,0,0.1c0,0.1,0,0.1-0.1,0.2L214.5,47.2z M203.5,43.3
		c0,0.1,0,0.1,0,0.2c0,0.1,0,0.1,0,0.1c0,0,0,0.1-0.1,0.1c0,0-0.1,0-0.1,0h-2v6.1c0,0,0,0.1,0,0.1c0,0,0,0-0.1,0.1c0,0-0.1,0-0.1,0
		c-0.1,0-0.1,0-0.2,0c-0.1,0-0.2,0-0.2,0c-0.1,0-0.1,0-0.1,0c0,0-0.1,0-0.1-0.1c0,0,0,0,0-0.1v-6.1h-2c0,0-0.1,0-0.1,0
		c0,0,0,0-0.1-0.1c0,0,0-0.1,0-0.1c0-0.1,0-0.1,0-0.2c0-0.1,0-0.1,0-0.2c0-0.1,0-0.1,0-0.1c0,0,0-0.1,0.1-0.1c0,0,0,0,0.1,0h4.9
		c0,0,0.1,0,0.1,0c0,0,0,0,0.1,0.1c0,0,0,0.1,0,0.1C203.5,43.2,203.5,43.3,203.5,43.3z M189.7,49.8
		C189.7,49.8,189.7,49.9,189.7,49.8c0,0.1-0.1,0.1-0.1,0.1c0,0-0.1,0-0.1,0c-0.1,0-0.1,0-0.2,0c-0.1,0-0.2,0-0.2,0
		c-0.1,0-0.1,0-0.1,0c0,0-0.1,0-0.1-0.1c0,0,0,0,0-0.1v-6.7c0,0,0-0.1,0-0.1c0,0,0,0,0.1-0.1c0,0,0.1,0,0.1,0c0.1,0,0.1,0,0.2,0
		c0.1,0,0.2,0,0.2,0c0.1,0,0.1,0,0.1,0c0,0,0.1,0,0.1,0.1c0,0,0,0.1,0,0.1V49.8z M178.4,44.9c0-0.3-0.1-0.5-0.2-0.7
		c-0.1-0.2-0.3-0.3-0.6-0.4c-0.1,0-0.2,0-0.3-0.1c-0.1,0-0.3,0-0.4,0H176v2.4h0.9c0.2,0,0.5,0,0.6-0.1c0.2-0.1,0.3-0.1,0.4-0.3
		c0.1-0.1,0.2-0.2,0.3-0.4C178.4,45.2,178.4,45,178.4,44.9z M179.8,49.8C179.8,49.8,179.8,49.9,179.8,49.8c0,0.1-0.1,0.1-0.1,0.1
		c0,0-0.1,0-0.2,0c-0.1,0-0.2,0-0.3,0c-0.1,0-0.2,0-0.2,0c-0.1,0-0.1,0-0.1,0c0,0-0.1,0-0.1-0.1c0,0,0-0.1-0.1-0.1l-0.6-1.7
		c-0.1-0.2-0.2-0.4-0.2-0.5c-0.1-0.2-0.2-0.3-0.3-0.4c-0.1-0.1-0.2-0.2-0.4-0.3c-0.2-0.1-0.3-0.1-0.5-0.1H176v3c0,0,0,0.1,0,0.1
		c0,0,0,0-0.1,0.1c0,0-0.1,0-0.1,0c-0.1,0-0.1,0-0.2,0c-0.1,0-0.2,0-0.2,0c-0.1,0-0.1,0-0.1,0c0,0-0.1,0-0.1-0.1c0,0,0,0,0-0.1v-6.5
		c0-0.1,0-0.2,0.1-0.3c0.1-0.1,0.2-0.1,0.2-0.1h1.5c0.2,0,0.3,0,0.4,0c0.1,0,0.2,0,0.3,0c0.3,0,0.5,0.1,0.7,0.2
		c0.2,0.1,0.4,0.2,0.5,0.4c0.1,0.2,0.2,0.3,0.3,0.5c0.1,0.2,0.1,0.4,0.1,0.7c0,0.2,0,0.4-0.1,0.6c-0.1,0.2-0.2,0.3-0.3,0.5
		c-0.1,0.1-0.3,0.3-0.4,0.4c-0.2,0.1-0.4,0.2-0.6,0.3c0.1,0,0.2,0.1,0.3,0.2c0.1,0.1,0.2,0.2,0.3,0.3c0.1,0.1,0.2,0.2,0.2,0.4
		c0.1,0.1,0.1,0.3,0.2,0.5l0.6,1.5c0.1,0.1,0.1,0.2,0.1,0.3C179.8,49.7,179.8,49.8,179.8,49.8z M165.7,47.4c0,0.4-0.1,0.8-0.2,1.1
		c-0.1,0.3-0.3,0.6-0.5,0.9c-0.2,0.2-0.5,0.4-0.8,0.5c-0.3,0.1-0.7,0.2-1.1,0.2c-0.4,0-0.7-0.1-1.1-0.2c-0.3-0.1-0.6-0.3-0.8-0.5
		c-0.2-0.2-0.4-0.5-0.5-0.8c-0.1-0.3-0.2-0.7-0.2-1.1v-4.4c0,0,0-0.1,0-0.1c0,0,0,0,0.1-0.1c0,0,0.1,0,0.1,0c0.1,0,0.1,0,0.2,0
		c0.1,0,0.2,0,0.2,0c0.1,0,0.1,0,0.1,0c0,0,0.1,0,0.1,0.1c0,0,0,0.1,0,0.1v4.2c0,0.3,0,0.6,0.1,0.9c0.1,0.2,0.2,0.4,0.3,0.6
		c0.2,0.2,0.3,0.3,0.5,0.4c0.2,0.1,0.4,0.1,0.7,0.1c0.3,0,0.5,0,0.7-0.1c0.2-0.1,0.4-0.2,0.5-0.4c0.1-0.2,0.3-0.4,0.3-0.6
		c0.1-0.2,0.1-0.5,0.1-0.8v-4.3c0,0,0-0.1,0-0.1c0,0,0,0,0.1-0.1c0,0,0.1,0,0.1,0c0.1,0,0.1,0,0.2,0c0.1,0,0.2,0,0.2,0
		c0.1,0,0.1,0,0.1,0c0,0,0.1,0,0.1,0.1c0,0,0,0.1,0,0.1V47.4z M151.6,49c0,0.1,0,0.1,0,0.2c0,0,0,0.1,0,0.1c0,0,0,0.1,0,0.1
		c0,0,0,0.1-0.1,0.1c0,0-0.1,0.1-0.2,0.2c-0.1,0.1-0.3,0.2-0.4,0.2c-0.2,0.1-0.4,0.1-0.6,0.2c-0.2,0.1-0.5,0.1-0.7,0.1
		c-0.5,0-0.9-0.1-1.2-0.2c-0.4-0.2-0.7-0.4-0.9-0.7c-0.3-0.3-0.5-0.7-0.6-1.1c-0.1-0.4-0.2-0.9-0.2-1.5c0-0.6,0.1-1.1,0.2-1.6
		c0.2-0.5,0.4-0.8,0.6-1.2c0.3-0.3,0.6-0.6,1-0.7c0.4-0.2,0.8-0.3,1.3-0.3c0.2,0,0.4,0,0.6,0.1c0.2,0,0.4,0.1,0.5,0.1
		c0.2,0.1,0.3,0.1,0.4,0.2c0.1,0.1,0.2,0.1,0.3,0.2c0,0,0.1,0.1,0.1,0.1c0,0,0,0.1,0,0.1c0,0,0,0.1,0,0.1c0,0.1,0,0.1,0,0.2
		c0,0.1,0,0.1,0,0.2c0,0.1,0,0.1,0,0.1c0,0,0,0.1-0.1,0.1c0,0,0,0-0.1,0c-0.1,0-0.1,0-0.2-0.1c-0.1-0.1-0.2-0.1-0.3-0.2
		c-0.1-0.1-0.3-0.2-0.5-0.2c-0.2-0.1-0.4-0.1-0.7-0.1c-0.3,0-0.6,0.1-0.8,0.2c-0.3,0.1-0.5,0.3-0.7,0.6c-0.2,0.2-0.3,0.5-0.4,0.9
		c-0.1,0.3-0.2,0.7-0.2,1.2c0,0.4,0,0.8,0.1,1.2c0.1,0.3,0.2,0.6,0.4,0.9c0.2,0.2,0.4,0.4,0.7,0.5c0.3,0.1,0.6,0.2,0.9,0.2
		c0.3,0,0.5,0,0.7-0.1c0.2-0.1,0.4-0.1,0.5-0.2c0.1-0.1,0.3-0.2,0.4-0.2c0.1-0.1,0.2-0.1,0.2-0.1c0,0,0,0,0.1,0c0,0,0,0,0,0.1
		c0,0,0,0.1,0,0.1C151.6,48.8,151.6,48.9,151.6,49z M137.9,49.6c0,0.1,0,0.1,0,0.2c0,0,0,0.1,0,0.1c0,0,0,0.1-0.1,0.1c0,0,0,0-0.1,0
		h-3.4c-0.1,0-0.2,0-0.2-0.1c-0.1-0.1-0.1-0.2-0.1-0.3v-6.3c0-0.1,0-0.2,0.1-0.3c0.1-0.1,0.2-0.1,0.2-0.1h3.3c0,0,0.1,0,0.1,0
		c0,0,0,0,0.1,0.1c0,0,0,0.1,0,0.1c0,0,0,0.1,0,0.2c0,0.1,0,0.1,0,0.2c0,0.1,0,0.1,0,0.1c0,0,0,0.1-0.1,0.1c0,0,0,0-0.1,0h-2.7v2.2
		h2.4c0,0,0.1,0,0.1,0c0,0,0,0,0.1,0.1c0,0,0,0.1,0,0.1c0,0.1,0,0.1,0,0.2c0,0.1,0,0.1,0,0.2c0,0,0,0.1,0,0.1c0,0,0,0.1-0.1,0.1
		c0,0,0,0-0.1,0h-2.4v2.5h2.8c0,0,0.1,0,0.1,0c0,0,0,0,0.1,0.1c0,0,0,0.1,0,0.1C137.9,49.4,137.9,49.5,137.9,49.6z M125.1,48
		c0,0.3-0.1,0.6-0.2,0.9c-0.1,0.3-0.3,0.5-0.5,0.7c-0.2,0.2-0.5,0.3-0.8,0.4c-0.3,0.1-0.6,0.1-0.9,0.1c-0.2,0-0.5,0-0.7-0.1
		c-0.2,0-0.4-0.1-0.5-0.1c-0.2-0.1-0.3-0.1-0.4-0.2c-0.1-0.1-0.2-0.1-0.2-0.2c0,0-0.1-0.1-0.1-0.2c0-0.1,0-0.2,0-0.3
		c0-0.1,0-0.1,0-0.2c0-0.1,0-0.1,0-0.1c0,0,0-0.1,0.1-0.1c0,0,0,0,0.1,0c0.1,0,0.1,0,0.2,0.1c0.1,0.1,0.2,0.1,0.4,0.2
		c0.1,0.1,0.3,0.1,0.5,0.2c0.2,0.1,0.4,0.1,0.7,0.1c0.2,0,0.4,0,0.6-0.1c0.2-0.1,0.3-0.1,0.4-0.2c0.1-0.1,0.2-0.2,0.3-0.4
		c0.1-0.1,0.1-0.3,0.1-0.5c0-0.2,0-0.4-0.1-0.5c-0.1-0.1-0.2-0.3-0.4-0.4c-0.1-0.1-0.3-0.2-0.5-0.3c-0.2-0.1-0.4-0.2-0.6-0.3
		c-0.2-0.1-0.4-0.2-0.6-0.3c-0.2-0.1-0.4-0.2-0.5-0.4c-0.1-0.2-0.3-0.3-0.4-0.5c-0.1-0.2-0.1-0.5-0.1-0.7c0-0.3,0.1-0.6,0.2-0.8
		c0.1-0.2,0.3-0.4,0.4-0.6c0.2-0.2,0.4-0.3,0.7-0.4c0.3-0.1,0.5-0.1,0.8-0.1c0.2,0,0.3,0,0.5,0c0.2,0,0.3,0.1,0.4,0.1
		c0.1,0,0.3,0.1,0.4,0.2c0.1,0.1,0.2,0.1,0.2,0.1c0,0,0.1,0.1,0.1,0.1c0,0,0,0.1,0,0.1c0,0,0,0.1,0,0.1c0,0,0,0.1,0,0.2
		c0,0.1,0,0.1,0,0.2c0,0.1,0,0.1,0,0.1c0,0,0,0.1,0,0.1c0,0,0,0-0.1,0c0,0-0.1,0-0.2-0.1c-0.1-0.1-0.2-0.1-0.3-0.2
		c-0.1-0.1-0.3-0.1-0.4-0.2c-0.2-0.1-0.4-0.1-0.6-0.1c-0.2,0-0.4,0-0.5,0.1c-0.1,0.1-0.3,0.1-0.4,0.2c-0.1,0.1-0.2,0.2-0.2,0.3
		c0,0.1-0.1,0.2-0.1,0.4c0,0.2,0,0.4,0.1,0.5c0.1,0.1,0.2,0.3,0.4,0.4c0.1,0.1,0.3,0.2,0.5,0.3c0.2,0.1,0.4,0.2,0.6,0.3
		c0.2,0.1,0.4,0.2,0.6,0.3c0.2,0.1,0.4,0.2,0.5,0.4c0.1,0.2,0.3,0.3,0.4,0.5C125,47.5,125.1,47.7,125.1,48z M120.8,35.5V10.6v0
		c0-0.6,0.5-1.2,1.2-1.2c0,0,0,0,0,0h7.3c3.9,0,6.9,0.5,9,1.5c2.2,1,3.9,2.5,5.1,4.6c1.2,2,1.9,4.6,1.9,7.6c0,2.7-0.6,5.2-1.9,7.4
		c-1.3,2.2-3,3.8-5.2,4.7c-2.2,1-5.1,1.5-8.8,1.5h-7.4C121.3,36.7,120.8,36.2,120.8,35.5z M127.3,32.4h2.3c6.3,0,9.4-3.1,9.4-9.4
		c0-6.2-3.1-9.3-9.4-9.3h-2.3c-0.3,0-0.6,0.3-0.6,0.6v17.5C126.7,32.2,127,32.4,127.3,32.4z M153.7,27.7c0.4,3.8,2.8,5.7,7.1,5.7
		c2.1,0,4.3-0.7,6.4-2.1l0,0c0.1-0.1,0.2-0.1,0.3-0.1c0.3,0,0.6,0.3,0.6,0.6v3v0c0,0.5-0.3,0.9-0.8,1.1c-2.5,0.9-5,1.3-7.2,1.3
		c-3.9,0-6.9-0.9-9-2.8c-2.1-1.9-3.1-4.6-3.1-8.1c0-3.5,1-6.3,2.9-8.3c1.9-2,4.6-3,8.1-3c6.3,0,9.4,3.3,9.4,10v0.8
		c0,0.6-0.5,1.2-1.2,1.2h0h-13C153.9,27.1,153.7,27.4,153.7,27.7C153.7,27.7,153.7,27.7,153.7,27.7z M162.9,23.4
		c-0.2-3.2-1.7-4.8-4.4-4.8c-2.9,0-4.5,1.6-4.8,4.8v0c0,0,0,0,0,0.1c0,0.3,0.3,0.6,0.6,0.6h0h8.1h0C162.6,24,162.9,23.7,162.9,23.4
		C162.9,23.4,162.9,23.4,162.9,23.4z M176.5,36.7L176.5,36.7h-3.8c-0.3,0-0.6-0.2-0.6-0.6V10.6c0-0.6,0.5-1.2,1.2-1.2h3.8
		c0.3,0,0.6,0.2,0.6,0.6v25.5v0C177.7,36.2,177.2,36.7,176.5,36.7z M194.1,36.8L194.1,36.8c-1.2,0.2-2.5,0.3-3.8,0.3
		c-2.5,0-4.3-0.5-5.5-1.6c-1.2-1.1-1.7-2.8-1.7-5.2V19.6h-2.1h0c-0.3,0-0.6-0.3-0.6-0.6v-2.6c0-0.3,0.3-0.6,0.6-0.6h0h2.1v-5.2
		c0-0.6,0.5-1.2,1.2-1.2h0h3.8h0c0.3,0,0.6,0.2,0.6,0.6v5.8h4.6h0c1,0,1.9,0.8,1.9,1.9c0,1-0.8,1.9-1.9,1.9h0h-4.6v8.5
		c0,2.2,0.3,3.7,0.8,4.3c0.6,0.7,1.5,1,2.9,1c0.6,0,1.3-0.1,1.9-0.4c0.1,0,0.1,0,0.2,0c0.3,0,0.6,0.2,0.6,0.6v2.1v0
		C195,36.2,194.6,36.7,194.1,36.8z M215.9,36.7L215.9,36.7h-3.8h0c-0.6,0-1.2-0.5-1.2-1.2V34c-1.7,1.5-3.1,2.4-4.1,2.7
		c-1.1,0.4-2.2,0.6-3.4,0.6c-1.8,0-3.4-0.6-4.6-1.8c-1.2-1.2-1.8-2.7-1.8-4.6c0-2.4,0.9-4.2,2.7-5.4c1.7-1.2,5.3-1.9,10.7-2.2
		c0.3,0,0.5-0.3,0.5-0.6h0v0c0-1.3-0.5-2.3-1.4-2.8c-0.9-0.6-2.4-0.9-4.5-0.9c-1.3,0-3.1,0.5-5.5,1.4c0,0,0,0,0,0
		c-0.1,0-0.1,0-0.2,0c-0.3,0-0.6-0.2-0.6-0.6v-2.7c0-0.6,0.4-1,0.9-1.1c2.4-0.5,4.7-0.8,6.7-0.8c3.5,0,6.1,0.6,7.7,1.7
		c1.6,1.1,2.4,3,2.4,5.4v13.8C216.5,36.5,216.3,36.7,215.9,36.7L215.9,36.7z M210.4,26.4c-3.3,0.3-5.3,0.8-6.2,1.3
		c-0.9,0.6-1.4,1.5-1.4,2.6c0,1.2,0.3,2,1,2.5c0.6,0.5,1.6,0.7,3,0.7c1.4,0,2.7-0.6,4.1-1.8c0,0,0,0,0,0c0.1-0.1,0.2-0.2,0.2-0.4
		v-4.4C211,26.6,210.7,26.4,210.4,26.4C210.4,26.4,210.4,26.4,210.4,26.4z M79.4,31.6L85.7,21l6.3,10.6c-2-0.6-4.1-0.9-6.3-0.9
		C83.5,30.7,81.4,31,79.4,31.6z M74.8,40.7c2.1-1.8,4.6-3.1,7.4-3.7l3.5,5.9l3.5-5.9c2.8,0.6,5.3,1.9,7.4,3.7
		c-3,2.4-6.8,3.9-10.9,3.9C81.6,44.6,77.8,43.2,74.8,40.7z M85.4,10.1l-15,25c-1.2-2.3-1.9-5-1.9-7.8C68.5,18,76,10.3,85.4,10.1z
		 M101.1,35.2l-15-25C95.4,10.3,103,18,103,27.4C103,30.2,102.3,32.8,101.1,35.2z M85.7,3.2c13.3,0,24.1,10.8,24.1,24.1
		c0,13.3-10.8,24.1-24.1,24.1c-13.3,0-24.1-10.8-24.1-24.1C61.6,14,72.4,3.2,85.7,3.2z M85.7,2.1c14,0,25.3,11.3,25.3,25.3
		S99.7,52.7,85.7,52.7c-14,0-25.3-11.3-25.3-25.3S71.7,2.1,85.7,2.1z"/>
</g>
</svg>
