<?xml version="1.0" encoding="utf-8"?>
<!-- Generator: Adobe Illustrator 19.2.0, SVG Export Plug-In . SVG Version: 6.00 Build 0)  -->
<svg version="1.1" id="Layer_1" xmlns="http://www.w3.org/2000/svg" xmlns:xlink="http://www.w3.org/1999/xlink" x="0px" y="0px"
	 viewBox="0 0 276.9 54.7" style="enable-background:new 0 0 276.9 54.7;" xml:space="preserve">
<style type="text/css">
	.st0{fill:#FFFFFF;}
	.st1{clip-path:url(#SVGID_2_);}
	.st2{clip-path:url(#SVGID_6_);}
	.st3{fill:#54B948;}
	.st4{fill:#ED174F;}
	.st5{fill-rule:evenodd;clip-rule:evenodd;fill:#214A7F;}
	.st6{fill-rule:evenodd;clip-rule:evenodd;fill:#006C45;}
	.st7{fill-rule:evenodd;clip-rule:evenodd;fill:#006C46;}
	.st8{fill-rule:evenodd;clip-rule:evenodd;fill:#006E47;}
	.st9{fill-rule:evenodd;clip-rule:evenodd;fill:#006E48;}
	.st10{fill-rule:evenodd;clip-rule:evenodd;fill:#006E49;}
	.st11{fill-rule:evenodd;clip-rule:evenodd;fill:#00704A;}
	.st12{fill-rule:evenodd;clip-rule:evenodd;fill:#00704B;}
	.st13{fill-rule:evenodd;clip-rule:evenodd;fill:#00724D;}
	.st14{fill-rule:evenodd;clip-rule:evenodd;fill:#00724E;}
	.st15{fill-rule:evenodd;clip-rule:evenodd;fill:#00734E;}
	.st16{fill-rule:evenodd;clip-rule:evenodd;fill:#007450;}
	.st17{fill-rule:evenodd;clip-rule:evenodd;fill:#007551;}
	.st18{fill-rule:evenodd;clip-rule:evenodd;fill:#007652;}
	.st19{fill-rule:evenodd;clip-rule:evenodd;fill:#007653;}
	.st20{fill-rule:evenodd;clip-rule:evenodd;fill:#007753;}
	.st21{fill-rule:evenodd;clip-rule:evenodd;fill:#007755;}
	.st22{fill-rule:evenodd;clip-rule:evenodd;fill:#007956;}
	.st23{fill-rule:evenodd;clip-rule:evenodd;fill:#007957;}
	.st24{fill-rule:evenodd;clip-rule:evenodd;fill:#007B58;}
	.st25{fill-rule:evenodd;clip-rule:evenodd;fill:#007B59;}
	.st26{fill-rule:evenodd;clip-rule:evenodd;fill:#007B5A;}
	.st27{fill-rule:evenodd;clip-rule:evenodd;fill:#007C5A;}
	.st28{fill-rule:evenodd;clip-rule:evenodd;fill:#007D5C;}
	.st29{fill-rule:evenodd;clip-rule:evenodd;fill:#007D5D;}
	.st30{fill-rule:evenodd;clip-rule:evenodd;fill:#007F5E;}
	.st31{fill-rule:evenodd;clip-rule:evenodd;fill:#00805F;}
	.st32{fill-rule:evenodd;clip-rule:evenodd;fill:#008061;}
	.st33{fill-rule:evenodd;clip-rule:evenodd;fill:#008262;}
	.st34{fill-rule:evenodd;clip-rule:evenodd;fill:#008263;}
	.st35{fill-rule:evenodd;clip-rule:evenodd;fill:#008363;}
	.st36{fill-rule:evenodd;clip-rule:evenodd;fill:#008364;}
	.st37{fill-rule:evenodd;clip-rule:evenodd;fill:#008465;}
	.st38{fill-rule:evenodd;clip-rule:evenodd;fill:#058566;}
	.st39{fill-rule:evenodd;clip-rule:evenodd;fill:#068667;}
	.st40{fill-rule:evenodd;clip-rule:evenodd;fill:#108769;}
	.st41{fill-rule:evenodd;clip-rule:evenodd;fill:#17876A;}
	.st42{fill-rule:evenodd;clip-rule:evenodd;fill:#1E886A;}
	.st43{fill-rule:evenodd;clip-rule:evenodd;fill:#1E896C;}
	.st44{fill-rule:evenodd;clip-rule:evenodd;fill:#238A6C;}
	.st45{fill-rule:evenodd;clip-rule:evenodd;fill:#238A6D;}
	.st46{fill-rule:evenodd;clip-rule:evenodd;fill:#288C6E;}
	.st47{fill-rule:evenodd;clip-rule:evenodd;fill:#2C8D70;}
	.st48{fill-rule:evenodd;clip-rule:evenodd;fill:#308D70;}
	.st49{fill-rule:evenodd;clip-rule:evenodd;fill:#2F8D71;}
	.st50{fill-rule:evenodd;clip-rule:evenodd;fill:#348F72;}
	.st51{fill-rule:evenodd;clip-rule:evenodd;fill:#338F73;}
	.st52{fill-rule:evenodd;clip-rule:evenodd;fill:#379073;}
	.st53{fill-rule:evenodd;clip-rule:evenodd;fill:#389174;}
	.st54{fill-rule:evenodd;clip-rule:evenodd;fill:#3B9276;}
	.st55{fill-rule:evenodd;clip-rule:evenodd;fill:#3E9277;}
	.st56{fill-rule:evenodd;clip-rule:evenodd;fill:#429478;}
	.st57{fill-rule:evenodd;clip-rule:evenodd;fill:#419579;}
	.st58{fill-rule:evenodd;clip-rule:evenodd;fill:#449579;}
	.st59{fill-rule:evenodd;clip-rule:evenodd;fill:#44957B;}
	.st60{fill-rule:evenodd;clip-rule:evenodd;fill:#48977C;}
	.st61{fill-rule:evenodd;clip-rule:evenodd;fill:#4A987D;}
	.st62{fill-rule:evenodd;clip-rule:evenodd;fill:#4A987F;}
	.st63{fill-rule:evenodd;clip-rule:evenodd;fill:#4D987F;}
	.st64{fill-rule:evenodd;clip-rule:evenodd;fill:#4E9A80;}
	.st65{fill-rule:evenodd;clip-rule:evenodd;fill:#519B80;}
	.st66{fill-rule:evenodd;clip-rule:evenodd;fill:#509B81;}
	.st67{fill-rule:evenodd;clip-rule:evenodd;fill:#539B81;}
	.st68{fill-rule:evenodd;clip-rule:evenodd;fill:#549D84;}
	.st69{fill-rule:evenodd;clip-rule:evenodd;fill:#569D84;}
	.st70{fill-rule:evenodd;clip-rule:evenodd;fill:#599E85;}
	.st71{fill-rule:evenodd;clip-rule:evenodd;fill:#5CA088;}
	.st72{fill-rule:evenodd;clip-rule:evenodd;fill:#5EA188;}
	.st73{fill-rule:evenodd;clip-rule:evenodd;fill:#5EA189;}
	.st74{fill-rule:evenodd;clip-rule:evenodd;fill:#60A289;}
	.st75{fill-rule:evenodd;clip-rule:evenodd;fill:#61A38B;}
	.st76{fill-rule:evenodd;clip-rule:evenodd;fill:#64A48C;}
	.st77{fill-rule:evenodd;clip-rule:evenodd;fill:#63A48E;}
	.st78{fill-rule:evenodd;clip-rule:evenodd;fill:#66A58E;}
	.st79{fill-rule:evenodd;clip-rule:evenodd;fill:#67A68F;}
	.st80{fill-rule:evenodd;clip-rule:evenodd;fill:#69A78F;}
	.st81{fill-rule:evenodd;clip-rule:evenodd;fill:#69A790;}
	.st82{fill-rule:evenodd;clip-rule:evenodd;fill:#6BA892;}
	.st83{fill-rule:evenodd;clip-rule:evenodd;fill:#6FAA93;}
	.st84{fill-rule:evenodd;clip-rule:evenodd;fill:#6EAA95;}
	.st85{fill-rule:evenodd;clip-rule:evenodd;fill:#71AB95;}
	.st86{fill-rule:evenodd;clip-rule:evenodd;fill:#74AD98;}
	.st87{fill-rule:evenodd;clip-rule:evenodd;fill:#76AE99;}
	.st88{fill-rule:evenodd;clip-rule:evenodd;fill:#79AE99;}
	.st89{fill-rule:evenodd;clip-rule:evenodd;fill:#7AB09C;}
	.st90{fill-rule:evenodd;clip-rule:evenodd;fill:#7CB19C;}
	.st91{fill-rule:evenodd;clip-rule:evenodd;fill:#7CB19E;}
	.st92{fill-rule:evenodd;clip-rule:evenodd;fill:#7FB39F;}
	.st93{fill-rule:evenodd;clip-rule:evenodd;fill:#82B49F;}
	.st94{fill-rule:evenodd;clip-rule:evenodd;fill:#81B4A1;}
	.st95{fill-rule:evenodd;clip-rule:evenodd;fill:#84B5A3;}
	.st96{fill-rule:evenodd;clip-rule:evenodd;fill:#87B7A4;}
	.st97{fill-rule:evenodd;clip-rule:evenodd;fill:#87B7A6;}
	.st98{fill-rule:evenodd;clip-rule:evenodd;fill:#89B8A6;}
	.st99{fill-rule:evenodd;clip-rule:evenodd;fill:#8ABAA9;}
	.st100{fill-rule:evenodd;clip-rule:evenodd;fill:#8DBBA9;}
	.st101{fill-rule:evenodd;clip-rule:evenodd;fill:#8FBBAA;}
	.st102{fill-rule:evenodd;clip-rule:evenodd;fill:#92BEAD;}
	.st103{fill-rule:evenodd;clip-rule:evenodd;fill:#95BFAE;}
	.st104{fill-rule:evenodd;clip-rule:evenodd;fill:#95BFAF;}
	.st105{fill-rule:evenodd;clip-rule:evenodd;fill:#97C0AF;}
	.st106{fill-rule:evenodd;clip-rule:evenodd;fill:#97C0B1;}
	.st107{fill-rule:evenodd;clip-rule:evenodd;fill:#9AC2B2;}
	.st108{fill-rule:evenodd;clip-rule:evenodd;fill:#9DC3B4;}
	.st109{fill-rule:evenodd;clip-rule:evenodd;fill:#9EC5B6;}
	.st110{fill-rule:evenodd;clip-rule:evenodd;fill:#A0C6B6;}
	.st111{fill-rule:evenodd;clip-rule:evenodd;fill:#A0C6B7;}
	.st112{fill-rule:evenodd;clip-rule:evenodd;fill:#A2C7B7;}
	.st113{fill-rule:evenodd;clip-rule:evenodd;fill:#A2C7B9;}
	.st114{fill-rule:evenodd;clip-rule:evenodd;fill:#A5C7B9;}
	.st115{fill-rule:evenodd;clip-rule:evenodd;fill:#A6C9BA;}
	.st116{fill-rule:evenodd;clip-rule:evenodd;fill:#A8CABC;}
	.st117{fill-rule:evenodd;clip-rule:evenodd;fill:#ACCDBF;}
	.st118{fill-rule:evenodd;clip-rule:evenodd;fill:#AECEC1;}
	.st119{fill-rule:evenodd;clip-rule:evenodd;fill:#B2D0C4;}
	.st120{fill-rule:evenodd;clip-rule:evenodd;fill:#B4D1C5;}
	.st121{fill-rule:evenodd;clip-rule:evenodd;fill:#B4D1C6;}
	.st122{fill-rule:evenodd;clip-rule:evenodd;fill:#B8D4C8;}
	.st123{fill-rule:evenodd;clip-rule:evenodd;fill:#B8D4CA;}
	.st124{fill-rule:evenodd;clip-rule:evenodd;fill:#BAD5CA;}
	.st125{fill-rule:evenodd;clip-rule:evenodd;fill:#BCD6CB;}
	.st126{fill-rule:evenodd;clip-rule:evenodd;fill:#BED8CD;}
	.st127{fill-rule:evenodd;clip-rule:evenodd;fill:#C0D9CD;}
	.st128{fill-rule:evenodd;clip-rule:evenodd;fill:#C0D9CF;}
	.st129{fill-rule:evenodd;clip-rule:evenodd;fill:#C2DACF;}
	.st130{fill-rule:evenodd;clip-rule:evenodd;fill:#C4DBD2;}
	.st131{fill-rule:evenodd;clip-rule:evenodd;fill:#C6DCD2;}
	.st132{fill-rule:evenodd;clip-rule:evenodd;fill:#C8DDD4;}
	.st133{fill-rule:evenodd;clip-rule:evenodd;fill:#C8DDD6;}
	.st134{fill-rule:evenodd;clip-rule:evenodd;fill:#CCE0D8;}
	.st135{fill-rule:evenodd;clip-rule:evenodd;fill:#CFE1D8;}
	.st136{fill-rule:evenodd;clip-rule:evenodd;fill:#CEE1DA;}
	.st137{fill-rule:evenodd;clip-rule:evenodd;fill:#D0E3DB;}
	.st138{fill-rule:evenodd;clip-rule:evenodd;fill:#D3E4DC;}
	.st139{fill-rule:evenodd;clip-rule:evenodd;fill:#D3E4DD;}
	.st140{fill-rule:evenodd;clip-rule:evenodd;fill:#D5E5DE;}
	.st141{fill-rule:evenodd;clip-rule:evenodd;fill:#D5E5DF;}
	.st142{fill-rule:evenodd;clip-rule:evenodd;fill:#D7E6DF;}
	.st143{fill-rule:evenodd;clip-rule:evenodd;fill:#D9E8E1;}
	.st144{fill-rule:evenodd;clip-rule:evenodd;fill:#DCE9E3;}
	.st145{fill-rule:evenodd;clip-rule:evenodd;fill:#DEEAE3;}
	.st146{fill-rule:evenodd;clip-rule:evenodd;fill:#DEEAE5;}
	.st147{fill-rule:evenodd;clip-rule:evenodd;fill:#E2EDE7;}
	.st148{fill-rule:evenodd;clip-rule:evenodd;fill:#E2EDE9;}
	.st149{fill-rule:evenodd;clip-rule:evenodd;fill:#E5EEE9;}
	.st150{fill-rule:evenodd;clip-rule:evenodd;fill:#E9F1ED;}
	.st151{fill-rule:evenodd;clip-rule:evenodd;fill:#ECF2ED;}
	.st152{fill-rule:evenodd;clip-rule:evenodd;fill:#ECF3EF;}
	.st153{fill-rule:evenodd;clip-rule:evenodd;fill:#EEF4F2;}
	.st154{fill-rule:evenodd;clip-rule:evenodd;fill:#F1F7F4;}
	.st155{fill-rule:evenodd;clip-rule:evenodd;fill:#F4F8F5;}
	.st156{fill-rule:evenodd;clip-rule:evenodd;fill:#F4F8F7;}
	.st157{fill-rule:evenodd;clip-rule:evenodd;fill:#FBFDFB;}
	.st158{fill-rule:evenodd;clip-rule:evenodd;fill:#FFFFFF;}
	.st159{fill-rule:evenodd;clip-rule:evenodd;fill:#303D8F;}
	.st160{fill-rule:evenodd;clip-rule:evenodd;fill:#535C5F;}
	.st161{fill-rule:evenodd;clip-rule:evenodd;fill:#EF7E2A;}
	.st162{fill-rule:evenodd;clip-rule:evenodd;fill:#E8262B;}
	.st163{fill-rule:evenodd;clip-rule:evenodd;fill:#D02731;}
	.st164{fill:none;stroke:#FFFFFF;stroke-width:0.216;stroke-miterlimit:22.9256;}
	.st165{fill-rule:evenodd;clip-rule:evenodd;fill:#2C2825;}
	.st166{clip-path:url(#SVGID_10_);}
	.st167{clip-path:url(#SVGID_14_);fill:url(#SVGID_15_);}
	.st168{clip-path:url(#SVGID_17_);fill:url(#SVGID_18_);}
	.st169{clip-path:url(#SVGID_20_);fill:url(#SVGID_21_);}
	.st170{clip-path:url(#SVGID_23_);fill:url(#SVGID_24_);}
	.st171{clip-path:url(#SVGID_26_);fill:url(#SVGID_27_);}
	.st172{fill:#626D76;}
	.st173{fill:#879AA4;}
	.st174{fill:#8F9DA5;}
	.st175{clip-path:url(#SVGID_29_);fill:url(#SVGID_30_);}
	.st176{clip-path:url(#SVGID_32_);fill:url(#SVGID_33_);}
	.st177{fill:#B5BEC4;}
	.st178{clip-path:url(#SVGID_35_);fill:url(#SVGID_36_);}
	.st179{fill:#505A62;}
	.st180{clip-path:url(#SVGID_38_);fill:url(#SVGID_39_);}
	.st181{clip-path:url(#SVGID_41_);fill:url(#SVGID_42_);}
	.st182{clip-path:url(#SVGID_44_);fill:url(#SVGID_45_);}
	.st183{clip-path:url(#SVGID_47_);}
	.st184{clip-path:url(#SVGID_51_);}
	.st185{fill:#706F6E;}
	.st186{fill-rule:evenodd;clip-rule:evenodd;}
	.st187{fill:#293033;}
	.st188{fill:#A6CA3C;}
	.st189{fill:#19181D;}
	.st190{fill-rule:evenodd;clip-rule:evenodd;fill:#F6B128;}
	.st191{fill:#F6B128;}
	.st192{fill:#2C2D2D;}
	.st193{fill-rule:evenodd;clip-rule:evenodd;fill:#007FC3;}
</style>
<g>
	<polygon class="st192" points="189,41.5 188,41.5 174.1,13.6 180.2,13.6 188.6,31.3 188.6,31.3 197,13.6 203,13.6 	"/>
	<polygon class="st192" points="63.8,13.6 63.8,18.1 50.3,18.1 50.3,25 62.9,25 62.9,29.4 50.3,29.4 50.3,36.4 65,36.4 65,41 45,41 
		45,13.6 	"/>
	<polygon class="st192" points="129.9,13.6 129.9,18.1 116.4,18.1 116.4,25.2 129,25.2 129,29.6 116.4,29.6 116.4,36.4 131.1,36.4 
		131.1,41 111.1,41 111.1,13.6 	"/>
	<polygon class="st192" points="231,13.6 231,18.1 217.5,18.1 217.5,25.3 230.1,25.3 230.1,29.7 217.5,29.7 217.5,36.4 232.2,36.4 
		232.2,41 212.2,41 212.2,13.6 	"/>
	<path class="st192" d="M253.1,36.5L253.1,36.5c6.1,0,8.8-3.1,8.8-9.2c0-6.2-2.7-9.2-8.8-9.2h-4v18.4H253.1z M243.8,41V13.6h9.3
		c9.3,0,14.1,5.7,14.1,13.7c0,8-4.8,13.7-14.1,13.7H243.8z"/>
	<path class="st192" d="M97.7,16.5L95.2,20c-2.2-1.5-4.6-2.3-7.5-2.3c-4,0-5.2,1.5-5.2,3c0,4.9,16,2.1,16,11.8c0,5.3-4.6,9-11,9
		c-4.5,0-8.4-1.4-11.5-4.9l2.9-3.3c2.6,2.5,5.3,3.7,8.7,3.7c4,0,5.9-1.9,5.9-4c0-5.9-16.4-1.9-16.4-11.9c0-4.4,4.4-7.7,10.7-7.7
		C91.8,13.2,95.5,14.6,97.7,16.5"/>
	<path class="st192" d="M33.9,40.9L33.9,40.9l-0.5-4C33,37,32.5,37,32,37c-2.2,0-3.4-0.7-4.7-2.8c-0.5-0.8-1-1.7-1.5-2.5
		c-0.5-0.8-0.9-1.2-1.4-1.5c3.9-0.9,6.7-3.8,6.7-8.2c0-4.9-3.5-8.4-10.2-8.4H9.7V41H15V30.9h2.4c1.4,0,2,0.5,2.5,1.4
		c0.6,0.8,2.4,4,2.4,4c2.4,3.8,5,5,8.6,5C32.3,41.3,33.3,41.1,33.9,40.9 M20.9,26.8H15V18h5.9c3.4,0,4.9,1.6,4.9,4.2
		C25.8,25.4,23.7,26.8,20.9,26.8z"/>
	<path class="st192" d="M168.4,40.9L168.4,40.9l-0.5-4c-0.4,0.1-0.9,0.1-1.5,0.1c-2.2,0-3.4-0.7-4.7-2.8c-0.5-0.8-1-1.7-1.5-2.5
		c-0.5-0.8-0.9-1.2-1.4-1.5c3.9-0.9,6.7-3.8,6.7-8.2c0-4.9-3.5-8.4-10.2-8.4h-11.2V41h5.3V30.9h2.4c1.4,0,2,0.5,2.5,1.4
		c0.6,0.8,2.4,4,2.4,4c2.4,3.8,5,5,8.6,5C166.8,41.3,167.8,41.1,168.4,40.9 M155.5,26.8h-5.9V18h5.9c3.4,0,4.9,1.6,4.9,4.2
		C160.3,25.4,158.2,26.8,155.5,26.8z"/>
</g>
</svg>
