<?xml version="1.0" encoding="utf-8"?>
<!-- Generator: Adobe Illustrator 19.2.0, SVG Export Plug-In . SVG Version: 6.00 Build 0)  -->
<svg version="1.1" id="Layer_1" xmlns="http://www.w3.org/2000/svg" xmlns:xlink="http://www.w3.org/1999/xlink" x="0px" y="0px"
	 viewBox="0 0 276.9 54.7" style="enable-background:new 0 0 276.9 54.7;" xml:space="preserve">
<style type="text/css">
	.st0{fill:#FFFFFF;}
	.st1{clip-path:url(#SVGID_2_);}
	.st2{clip-path:url(#SVGID_6_);}
	.st3{fill:#54B948;}
	.st4{fill:#ED174F;}
	.st5{fill-rule:evenodd;clip-rule:evenodd;fill:#214A7F;}
	.st6{fill-rule:evenodd;clip-rule:evenodd;fill:#006C45;}
	.st7{fill-rule:evenodd;clip-rule:evenodd;fill:#006C46;}
	.st8{fill-rule:evenodd;clip-rule:evenodd;fill:#006E47;}
	.st9{fill-rule:evenodd;clip-rule:evenodd;fill:#006E48;}
	.st10{fill-rule:evenodd;clip-rule:evenodd;fill:#006E49;}
	.st11{fill-rule:evenodd;clip-rule:evenodd;fill:#00704A;}
	.st12{fill-rule:evenodd;clip-rule:evenodd;fill:#00704B;}
	.st13{fill-rule:evenodd;clip-rule:evenodd;fill:#00724D;}
	.st14{fill-rule:evenodd;clip-rule:evenodd;fill:#00724E;}
	.st15{fill-rule:evenodd;clip-rule:evenodd;fill:#00734E;}
	.st16{fill-rule:evenodd;clip-rule:evenodd;fill:#007450;}
	.st17{fill-rule:evenodd;clip-rule:evenodd;fill:#007551;}
	.st18{fill-rule:evenodd;clip-rule:evenodd;fill:#007652;}
	.st19{fill-rule:evenodd;clip-rule:evenodd;fill:#007653;}
	.st20{fill-rule:evenodd;clip-rule:evenodd;fill:#007753;}
	.st21{fill-rule:evenodd;clip-rule:evenodd;fill:#007755;}
	.st22{fill-rule:evenodd;clip-rule:evenodd;fill:#007956;}
	.st23{fill-rule:evenodd;clip-rule:evenodd;fill:#007957;}
	.st24{fill-rule:evenodd;clip-rule:evenodd;fill:#007B58;}
	.st25{fill-rule:evenodd;clip-rule:evenodd;fill:#007B59;}
	.st26{fill-rule:evenodd;clip-rule:evenodd;fill:#007B5A;}
	.st27{fill-rule:evenodd;clip-rule:evenodd;fill:#007C5A;}
	.st28{fill-rule:evenodd;clip-rule:evenodd;fill:#007D5C;}
	.st29{fill-rule:evenodd;clip-rule:evenodd;fill:#007D5D;}
	.st30{fill-rule:evenodd;clip-rule:evenodd;fill:#007F5E;}
	.st31{fill-rule:evenodd;clip-rule:evenodd;fill:#00805F;}
	.st32{fill-rule:evenodd;clip-rule:evenodd;fill:#008061;}
	.st33{fill-rule:evenodd;clip-rule:evenodd;fill:#008262;}
	.st34{fill-rule:evenodd;clip-rule:evenodd;fill:#008263;}
	.st35{fill-rule:evenodd;clip-rule:evenodd;fill:#008363;}
	.st36{fill-rule:evenodd;clip-rule:evenodd;fill:#008364;}
	.st37{fill-rule:evenodd;clip-rule:evenodd;fill:#008465;}
	.st38{fill-rule:evenodd;clip-rule:evenodd;fill:#058566;}
	.st39{fill-rule:evenodd;clip-rule:evenodd;fill:#068667;}
	.st40{fill-rule:evenodd;clip-rule:evenodd;fill:#108769;}
	.st41{fill-rule:evenodd;clip-rule:evenodd;fill:#17876A;}
	.st42{fill-rule:evenodd;clip-rule:evenodd;fill:#1E886A;}
	.st43{fill-rule:evenodd;clip-rule:evenodd;fill:#1E896C;}
	.st44{fill-rule:evenodd;clip-rule:evenodd;fill:#238A6C;}
	.st45{fill-rule:evenodd;clip-rule:evenodd;fill:#238A6D;}
	.st46{fill-rule:evenodd;clip-rule:evenodd;fill:#288C6E;}
	.st47{fill-rule:evenodd;clip-rule:evenodd;fill:#2C8D70;}
	.st48{fill-rule:evenodd;clip-rule:evenodd;fill:#308D70;}
	.st49{fill-rule:evenodd;clip-rule:evenodd;fill:#2F8D71;}
	.st50{fill-rule:evenodd;clip-rule:evenodd;fill:#348F72;}
	.st51{fill-rule:evenodd;clip-rule:evenodd;fill:#338F73;}
	.st52{fill-rule:evenodd;clip-rule:evenodd;fill:#379073;}
	.st53{fill-rule:evenodd;clip-rule:evenodd;fill:#389174;}
	.st54{fill-rule:evenodd;clip-rule:evenodd;fill:#3B9276;}
	.st55{fill-rule:evenodd;clip-rule:evenodd;fill:#3E9277;}
	.st56{fill-rule:evenodd;clip-rule:evenodd;fill:#429478;}
	.st57{fill-rule:evenodd;clip-rule:evenodd;fill:#419579;}
	.st58{fill-rule:evenodd;clip-rule:evenodd;fill:#449579;}
	.st59{fill-rule:evenodd;clip-rule:evenodd;fill:#44957B;}
	.st60{fill-rule:evenodd;clip-rule:evenodd;fill:#48977C;}
	.st61{fill-rule:evenodd;clip-rule:evenodd;fill:#4A987D;}
	.st62{fill-rule:evenodd;clip-rule:evenodd;fill:#4A987F;}
	.st63{fill-rule:evenodd;clip-rule:evenodd;fill:#4D987F;}
	.st64{fill-rule:evenodd;clip-rule:evenodd;fill:#4E9A80;}
	.st65{fill-rule:evenodd;clip-rule:evenodd;fill:#519B80;}
	.st66{fill-rule:evenodd;clip-rule:evenodd;fill:#509B81;}
	.st67{fill-rule:evenodd;clip-rule:evenodd;fill:#539B81;}
	.st68{fill-rule:evenodd;clip-rule:evenodd;fill:#549D84;}
	.st69{fill-rule:evenodd;clip-rule:evenodd;fill:#569D84;}
	.st70{fill-rule:evenodd;clip-rule:evenodd;fill:#599E85;}
	.st71{fill-rule:evenodd;clip-rule:evenodd;fill:#5CA088;}
	.st72{fill-rule:evenodd;clip-rule:evenodd;fill:#5EA188;}
	.st73{fill-rule:evenodd;clip-rule:evenodd;fill:#5EA189;}
	.st74{fill-rule:evenodd;clip-rule:evenodd;fill:#60A289;}
	.st75{fill-rule:evenodd;clip-rule:evenodd;fill:#61A38B;}
	.st76{fill-rule:evenodd;clip-rule:evenodd;fill:#64A48C;}
	.st77{fill-rule:evenodd;clip-rule:evenodd;fill:#63A48E;}
	.st78{fill-rule:evenodd;clip-rule:evenodd;fill:#66A58E;}
	.st79{fill-rule:evenodd;clip-rule:evenodd;fill:#67A68F;}
	.st80{fill-rule:evenodd;clip-rule:evenodd;fill:#69A78F;}
	.st81{fill-rule:evenodd;clip-rule:evenodd;fill:#69A790;}
	.st82{fill-rule:evenodd;clip-rule:evenodd;fill:#6BA892;}
	.st83{fill-rule:evenodd;clip-rule:evenodd;fill:#6FAA93;}
	.st84{fill-rule:evenodd;clip-rule:evenodd;fill:#6EAA95;}
	.st85{fill-rule:evenodd;clip-rule:evenodd;fill:#71AB95;}
	.st86{fill-rule:evenodd;clip-rule:evenodd;fill:#74AD98;}
	.st87{fill-rule:evenodd;clip-rule:evenodd;fill:#76AE99;}
	.st88{fill-rule:evenodd;clip-rule:evenodd;fill:#79AE99;}
	.st89{fill-rule:evenodd;clip-rule:evenodd;fill:#7AB09C;}
	.st90{fill-rule:evenodd;clip-rule:evenodd;fill:#7CB19C;}
	.st91{fill-rule:evenodd;clip-rule:evenodd;fill:#7CB19E;}
	.st92{fill-rule:evenodd;clip-rule:evenodd;fill:#7FB39F;}
	.st93{fill-rule:evenodd;clip-rule:evenodd;fill:#82B49F;}
	.st94{fill-rule:evenodd;clip-rule:evenodd;fill:#81B4A1;}
	.st95{fill-rule:evenodd;clip-rule:evenodd;fill:#84B5A3;}
	.st96{fill-rule:evenodd;clip-rule:evenodd;fill:#87B7A4;}
	.st97{fill-rule:evenodd;clip-rule:evenodd;fill:#87B7A6;}
	.st98{fill-rule:evenodd;clip-rule:evenodd;fill:#89B8A6;}
	.st99{fill-rule:evenodd;clip-rule:evenodd;fill:#8ABAA9;}
	.st100{fill-rule:evenodd;clip-rule:evenodd;fill:#8DBBA9;}
	.st101{fill-rule:evenodd;clip-rule:evenodd;fill:#8FBBAA;}
	.st102{fill-rule:evenodd;clip-rule:evenodd;fill:#92BEAD;}
	.st103{fill-rule:evenodd;clip-rule:evenodd;fill:#95BFAE;}
	.st104{fill-rule:evenodd;clip-rule:evenodd;fill:#95BFAF;}
	.st105{fill-rule:evenodd;clip-rule:evenodd;fill:#97C0AF;}
	.st106{fill-rule:evenodd;clip-rule:evenodd;fill:#97C0B1;}
	.st107{fill-rule:evenodd;clip-rule:evenodd;fill:#9AC2B2;}
	.st108{fill-rule:evenodd;clip-rule:evenodd;fill:#9DC3B4;}
	.st109{fill-rule:evenodd;clip-rule:evenodd;fill:#9EC5B6;}
	.st110{fill-rule:evenodd;clip-rule:evenodd;fill:#A0C6B6;}
	.st111{fill-rule:evenodd;clip-rule:evenodd;fill:#A0C6B7;}
	.st112{fill-rule:evenodd;clip-rule:evenodd;fill:#A2C7B7;}
	.st113{fill-rule:evenodd;clip-rule:evenodd;fill:#A2C7B9;}
	.st114{fill-rule:evenodd;clip-rule:evenodd;fill:#A5C7B9;}
	.st115{fill-rule:evenodd;clip-rule:evenodd;fill:#A6C9BA;}
	.st116{fill-rule:evenodd;clip-rule:evenodd;fill:#A8CABC;}
	.st117{fill-rule:evenodd;clip-rule:evenodd;fill:#ACCDBF;}
	.st118{fill-rule:evenodd;clip-rule:evenodd;fill:#AECEC1;}
	.st119{fill-rule:evenodd;clip-rule:evenodd;fill:#B2D0C4;}
	.st120{fill-rule:evenodd;clip-rule:evenodd;fill:#B4D1C5;}
	.st121{fill-rule:evenodd;clip-rule:evenodd;fill:#B4D1C6;}
	.st122{fill-rule:evenodd;clip-rule:evenodd;fill:#B8D4C8;}
	.st123{fill-rule:evenodd;clip-rule:evenodd;fill:#B8D4CA;}
	.st124{fill-rule:evenodd;clip-rule:evenodd;fill:#BAD5CA;}
	.st125{fill-rule:evenodd;clip-rule:evenodd;fill:#BCD6CB;}
	.st126{fill-rule:evenodd;clip-rule:evenodd;fill:#BED8CD;}
	.st127{fill-rule:evenodd;clip-rule:evenodd;fill:#C0D9CD;}
	.st128{fill-rule:evenodd;clip-rule:evenodd;fill:#C0D9CF;}
	.st129{fill-rule:evenodd;clip-rule:evenodd;fill:#C2DACF;}
	.st130{fill-rule:evenodd;clip-rule:evenodd;fill:#C4DBD2;}
	.st131{fill-rule:evenodd;clip-rule:evenodd;fill:#C6DCD2;}
	.st132{fill-rule:evenodd;clip-rule:evenodd;fill:#C8DDD4;}
	.st133{fill-rule:evenodd;clip-rule:evenodd;fill:#C8DDD6;}
	.st134{fill-rule:evenodd;clip-rule:evenodd;fill:#CCE0D8;}
	.st135{fill-rule:evenodd;clip-rule:evenodd;fill:#CFE1D8;}
	.st136{fill-rule:evenodd;clip-rule:evenodd;fill:#CEE1DA;}
	.st137{fill-rule:evenodd;clip-rule:evenodd;fill:#D0E3DB;}
	.st138{fill-rule:evenodd;clip-rule:evenodd;fill:#D3E4DC;}
	.st139{fill-rule:evenodd;clip-rule:evenodd;fill:#D3E4DD;}
	.st140{fill-rule:evenodd;clip-rule:evenodd;fill:#D5E5DE;}
	.st141{fill-rule:evenodd;clip-rule:evenodd;fill:#D5E5DF;}
	.st142{fill-rule:evenodd;clip-rule:evenodd;fill:#D7E6DF;}
	.st143{fill-rule:evenodd;clip-rule:evenodd;fill:#D9E8E1;}
	.st144{fill-rule:evenodd;clip-rule:evenodd;fill:#DCE9E3;}
	.st145{fill-rule:evenodd;clip-rule:evenodd;fill:#DEEAE3;}
	.st146{fill-rule:evenodd;clip-rule:evenodd;fill:#DEEAE5;}
	.st147{fill-rule:evenodd;clip-rule:evenodd;fill:#E2EDE7;}
	.st148{fill-rule:evenodd;clip-rule:evenodd;fill:#E2EDE9;}
	.st149{fill-rule:evenodd;clip-rule:evenodd;fill:#E5EEE9;}
	.st150{fill-rule:evenodd;clip-rule:evenodd;fill:#E9F1ED;}
	.st151{fill-rule:evenodd;clip-rule:evenodd;fill:#ECF2ED;}
	.st152{fill-rule:evenodd;clip-rule:evenodd;fill:#ECF3EF;}
	.st153{fill-rule:evenodd;clip-rule:evenodd;fill:#EEF4F2;}
	.st154{fill-rule:evenodd;clip-rule:evenodd;fill:#F1F7F4;}
	.st155{fill-rule:evenodd;clip-rule:evenodd;fill:#F4F8F5;}
	.st156{fill-rule:evenodd;clip-rule:evenodd;fill:#F4F8F7;}
	.st157{fill-rule:evenodd;clip-rule:evenodd;fill:#FBFDFB;}
	.st158{fill-rule:evenodd;clip-rule:evenodd;fill:#FFFFFF;}
	.st159{fill-rule:evenodd;clip-rule:evenodd;fill:#303D8F;}
	.st160{fill-rule:evenodd;clip-rule:evenodd;fill:#535C5F;}
	.st161{fill-rule:evenodd;clip-rule:evenodd;fill:#EF7E2A;}
	.st162{fill-rule:evenodd;clip-rule:evenodd;fill:#E8262B;}
	.st163{fill-rule:evenodd;clip-rule:evenodd;fill:#D02731;}
	.st164{fill:none;stroke:#FFFFFF;stroke-width:0.216;stroke-miterlimit:22.9256;}
	.st165{fill-rule:evenodd;clip-rule:evenodd;fill:#2C2825;}
	.st166{clip-path:url(#SVGID_10_);}
	.st167{clip-path:url(#SVGID_14_);fill:url(#SVGID_15_);}
	.st168{clip-path:url(#SVGID_17_);fill:url(#SVGID_18_);}
	.st169{clip-path:url(#SVGID_20_);fill:url(#SVGID_21_);}
	.st170{clip-path:url(#SVGID_23_);fill:url(#SVGID_24_);}
	.st171{clip-path:url(#SVGID_26_);fill:url(#SVGID_27_);}
	.st172{fill:#626D76;}
	.st173{fill:#879AA4;}
	.st174{fill:#8F9DA5;}
	.st175{clip-path:url(#SVGID_29_);fill:url(#SVGID_30_);}
	.st176{clip-path:url(#SVGID_32_);fill:url(#SVGID_33_);}
	.st177{fill:#B5BEC4;}
	.st178{clip-path:url(#SVGID_35_);fill:url(#SVGID_36_);}
	.st179{fill:#505A62;}
	.st180{clip-path:url(#SVGID_38_);fill:url(#SVGID_39_);}
	.st181{clip-path:url(#SVGID_41_);fill:url(#SVGID_42_);}
	.st182{clip-path:url(#SVGID_44_);fill:url(#SVGID_45_);}
	.st183{clip-path:url(#SVGID_47_);}
	.st184{clip-path:url(#SVGID_51_);}
	.st185{fill:#706F6E;}
	.st186{fill-rule:evenodd;clip-rule:evenodd;}
	.st187{fill:#293033;}
	.st188{fill:#A6CA3C;}
	.st189{fill:#19181D;}
	.st190{fill-rule:evenodd;clip-rule:evenodd;fill:#F6B128;}
	.st191{fill:#F6B128;}
	.st192{fill:#2C2D2D;}
	.st193{fill-rule:evenodd;clip-rule:evenodd;fill:#007FC3;}
</style>
<g>
	<path class="st5" d="M150.4,28.4v-6.9c-0.9-0.2-1.5-0.3-2.2-0.3c-3.9,0-6.6,2.2-7.5,6v-5.6h-6.8v24.7h7v-11c0-4.7,2.2-7.7,6.2-7.7
		C148.4,27.6,149.1,27.8,150.4,28.4z"/>
	<path class="st5" d="M166.7,46.3v-5.5c-1.1,0.3-1.9,0.3-2.9,0.3c-3.1,0-4.1-1.2-4.1-4.7v-9.2h6.7v-5.5h-6.7v-8l-7,4v19.9
		c0,6.3,2.9,9.1,9.4,9.1C163.7,46.7,165,46.6,166.7,46.3z"/>
	<path class="st5" d="M124.4,33.8c0,4.4-1.8,7.1-4.9,7.1c-3.2,0-5.2-2.9-5.2-7.1c0-4.2,2-7,5.1-7C122.5,26.8,124.4,29.5,124.4,33.8
		L124.4,33.8z M131.5,33.9c0-7.6-4.4-13-12.1-13c-7.3,0-12.2,5.6-12.2,12.9c0,8,4.8,13.1,12.4,13.1
		C126.5,46.9,131.5,41.5,131.5,33.9z"/>
	<path class="st5" d="M191.5,34.3V21.6h-7v12.7c0,4.9-0.9,6.6-4.1,6.6c-3.2,0-4.3-1.6-4.3-6.2l0-13.1h-7v13c0,5.4,0.9,7.8,3.3,9.8
		c2,1.6,4.7,2.4,8,2.4c3.8,0,6.9-1.2,8.9-3.5C190.8,41.5,191.5,38.9,191.5,34.3L191.5,34.3z"/>
	<path class="st5" d="M231.3,46.3V32.1c0-4.1-0.3-6-1.2-7.5c-1.2-2.2-3.8-3.5-6.8-3.5c-3.7,0-6.2,1.8-7.9,5.7
		c-0.9-3.8-3-5.7-6.6-5.7c-3.7,0-5.9,1.8-7.8,5.6v-5h-6.8v24.7h7V34.8c0-1.6,0.1-2.8,0.4-3.7c0.6-2.2,2.2-3.7,4.1-3.7
		c1.4,0,2.5,0.7,3,2c0.4,0.9,0.5,2.2,0.5,4.4v12.3h7.1V34.4c0-4.5,1.5-6.9,4.4-6.9c1.7,0,2.9,0.8,3.3,2.4c0.2,0.7,0.3,2.1,0.3,3.7
		l0,12.7H231.3z"/>
	<polygon class="st5" points="108.1,18.4 108.1,11.7 88.6,11.7 88.6,46.3 95.9,46.3 95.9,31.3 105.5,31.3 105.5,25.2 95.9,25.2 
		95.9,18.4 	"/>
	<path class="st5" d="M79.8,45.6c-10.9,6.3-24.8,2.6-31.1-8.3C42.4,26.3,46.1,12.4,57,6.1l4.2,7.2c-7.1,4.1-9.2,13.2-5.4,19.8
		c3.8,6.5,12.7,9.3,19.8,5.2L79.8,45.6z"/>
	<path class="st6" d="M61.8,14.3c-6.6,3.8-8.5,12.2-5,18.3c3.5,6,11.7,8.6,18.3,4.8c6.6-3.8,8.5-12.2,5-18.3
		C76.6,13.1,68.4,10.5,61.8,14.3"/>
	<path class="st6" d="M56.8,32.5c3.5,6,11.7,8.6,18.2,4.8c6.6-3.8,8.4-12.2,5-18.2c-3.5-6-11.6-8.6-18.2-4.8
		C55.2,18.1,53.3,26.5,56.8,32.5z"/>
	<path class="st7" d="M56.9,32.5c3.5,6,11.6,8.6,18.2,4.8c6.6-3.8,8.4-12.2,5-18.1c-3.5-6-11.6-8.6-18.2-4.8
		C55.3,18.1,53.4,26.5,56.9,32.5z"/>
	<path class="st8" d="M56.9,32.4c3.4,6,11.6,8.5,18.1,4.8c6.6-3.8,8.4-12.1,4.9-18.1c-3.4-6-11.5-8.6-18.1-4.8
		C55.3,18.1,53.5,26.5,56.9,32.4z"/>
	<path class="st8" d="M56.9,32.4c3.4,5.9,11.6,8.5,18.1,4.7c6.6-3.8,8.4-12.1,4.9-18c-3.4-5.9-11.5-8.5-18.1-4.7
		C55.4,18.1,53.5,26.5,56.9,32.4z"/>
	<path class="st9" d="M57,32.4c3.4,5.9,11.5,8.5,18,4.7c6.5-3.8,8.3-12,4.9-18c-3.4-5.9-11.5-8.5-18-4.7
		C55.4,18.1,53.6,26.4,57,32.4z"/>
	<path class="st9" d="M57,32.3c3.4,5.9,11.5,8.4,18,4.7c6.5-3.8,8.3-12,4.9-17.9c-3.4-5.9-11.4-8.5-18-4.7
		C55.5,18.1,53.6,26.4,57,32.3z"/>
	<path class="st9" d="M57.1,32.3c3.4,5.9,11.5,8.4,17.9,4.7c6.5-3.8,8.3-12,4.9-17.9c-3.4-5.9-11.4-8.5-17.9-4.7
		C55.5,18.1,53.7,26.4,57.1,32.3z"/>
	<path class="st9" d="M57.1,32.2c3.4,5.9,11.4,8.4,17.8,4.7c6.5-3.7,8.3-11.9,4.9-17.8c-3.4-5.9-11.4-8.4-17.8-4.7
		C55.6,18.1,53.7,26.4,57.1,32.2z"/>
	<path class="st10" d="M57.2,32.2c3.4,5.8,11.4,8.4,17.8,4.7c6.5-3.7,8.2-11.9,4.8-17.7c-3.4-5.9-11.3-8.4-17.8-4.7
		C55.6,18.1,53.8,26.3,57.2,32.2"/>
	<path class="st11" d="M57.2,32.1c3.4,5.8,11.3,8.3,17.7,4.7c6.4-3.7,8.2-11.8,4.8-17.7c-3.4-5.8-11.3-8.4-17.7-4.7
		C55.7,18.2,53.8,26.3,57.2,32.1z"/>
	<path class="st12" d="M57.3,32.1c3.4,5.8,11.3,8.3,17.7,4.6c6.4-3.7,8.2-11.8,4.8-17.6c-3.4-5.8-11.3-8.3-17.7-4.6
		C55.7,18.2,53.9,26.3,57.3,32.1z"/>
	<path class="st12" d="M57.3,32.1c3.3,5.8,11.3,8.3,17.6,4.6c6.4-3.7,8.1-11.8,4.8-17.6c-3.3-5.8-11.2-8.3-17.6-4.6
		C55.8,18.2,54,26.3,57.3,32.1z"/>
	<path class="st12" d="M57.3,32c3.3,5.8,11.2,8.3,17.6,4.6c6.4-3.7,8.1-11.7,4.8-17.5c-3.3-5.8-11.2-8.3-17.6-4.6
		C55.8,18.2,54,26.2,57.3,32z"/>
	<path class="st12" d="M57.4,32c3.3,5.8,11.2,8.2,17.5,4.6c6.4-3.7,8.1-11.7,4.8-17.4c-3.3-5.8-11.1-8.3-17.5-4.6
		C55.9,18.2,54.1,26.2,57.4,32z"/>
	<path class="st13" d="M57.4,31.9c3.3,5.7,11.2,8.2,17.4,4.6c6.3-3.7,8.1-11.7,4.8-17.4c-3.3-5.7-11.1-8.2-17.4-4.6
		C55.9,18.2,54.1,26.2,57.4,31.9z"/>
	<path class="st13" d="M57.5,31.9c3.3,5.7,11.1,8.2,17.4,4.6c6.3-3.6,8-11.6,4.7-17.3c-3.3-5.7-11.1-8.2-17.4-4.6
		C56,18.2,54.2,26.2,57.5,31.9z"/>
	<path class="st13" d="M57.5,31.9c3.3,5.7,11.1,8.2,17.3,4.5c6.3-3.6,8-11.6,4.7-17.3c-3.3-5.7-11-8.2-17.3-4.6
		C56,18.2,54.2,26.2,57.5,31.9L57.5,31.9z"/>
	<path class="st13" d="M57.6,31.8c3.3,5.7,11,8.1,17.3,4.5c6.3-3.6,8-11.5,4.7-17.2c-3.3-5.7-11-8.2-17.3-4.5
		C56.1,18.2,54.3,26.1,57.6,31.8z"/>
	<path class="st14" d="M57.6,31.8c3.3,5.7,11,8.1,17.2,4.5c6.2-3.6,8-11.5,4.7-17.2c-3.3-5.7-11-8.1-17.2-4.5
		C56.1,18.2,54.3,26.1,57.6,31.8z"/>
	<path class="st15" d="M57.7,31.7c3.3,5.6,11,8.1,17.1,4.5c6.2-3.6,7.9-11.5,4.7-17.1c-3.3-5.6-10.9-8.1-17.1-4.5
		C56.2,18.2,54.4,26.1,57.7,31.7z"/>
	<path class="st16" d="M57.7,31.7c3.2,5.6,10.9,8,17.1,4.5c6.2-3.6,7.9-11.4,4.7-17c-3.2-5.6-10.9-8.1-17.1-4.5
		C56.2,18.2,54.5,26.1,57.7,31.7z"/>
	<path class="st16" d="M57.7,31.6c3.2,5.6,10.9,8,17,4.5c6.2-3.6,7.9-11.4,4.6-17c-3.2-5.6-10.8-8-17-4.5
		C56.3,18.2,54.5,26,57.7,31.6z"/>
	<path class="st16" d="M57.8,31.6c3.2,5.6,10.9,8,17,4.5c6.2-3.6,7.9-11.3,4.6-16.9c-3.2-5.6-10.8-8-17-4.5
		C56.3,18.2,54.6,26,57.8,31.6z"/>
	<path class="st16" d="M57.8,31.6c3.2,5.6,10.8,8,16.9,4.4c6.1-3.5,7.8-11.3,4.6-16.9c-3.2-5.6-10.8-8-16.9-4.4
		C56.3,18.2,54.6,26,57.8,31.6z"/>
	<path class="st17" d="M57.9,31.5c3.2,5.5,10.8,7.9,16.9,4.4c6.1-3.5,7.8-11.3,4.6-16.8c-3.2-5.5-10.7-8-16.9-4.4
		C56.4,18.2,54.7,26,57.9,31.5z"/>
	<path class="st18" d="M57.9,31.5c3.2,5.5,10.8,7.9,16.8,4.4c6.1-3.5,7.8-11.2,4.6-16.8c-3.2-5.5-10.7-7.9-16.8-4.4
		C56.4,18.2,54.7,26,57.9,31.5z"/>
	<path class="st18" d="M58,31.4c3.2,5.5,10.7,7.9,16.7,4.4c6.1-3.5,7.7-11.2,4.6-16.7c-3.2-5.5-10.7-7.9-16.7-4.4
		C56.5,18.2,54.8,25.9,58,31.4z"/>
	<path class="st19" d="M58,31.4c3.2,5.5,10.7,7.9,16.7,4.4c6.1-3.5,7.7-11.2,4.5-16.6c-3.2-5.5-10.6-7.9-16.7-4.4
		C56.5,18.2,54.8,25.9,58,31.4z"/>
	<path class="st19" d="M58.1,31.4c3.2,5.5,10.6,7.8,16.6,4.4c6-3.5,7.7-11.1,4.5-16.6c-3.2-5.5-10.6-7.9-16.6-4.4
		C56.6,18.2,54.9,25.9,58.1,31.4z"/>
	<path class="st20" d="M58.1,31.3c3.1,5.5,10.6,7.8,16.6,4.4c6-3.5,7.7-11.1,4.5-16.5c-3.1-5.5-10.6-7.8-16.6-4.4
		C56.6,18.2,54.9,25.9,58.1,31.3z"/>
	<path class="st21" d="M58.1,31.3c3.1,5.4,10.6,7.8,16.5,4.3c6-3.5,7.6-11,4.5-16.5c-3.1-5.4-10.5-7.8-16.5-4.3
		C56.7,18.2,55,25.8,58.1,31.3z"/>
	<path class="st22" d="M58.2,31.2c3.1,5.4,10.5,7.7,16.5,4.3c6-3.5,7.6-11,4.5-16.4c-3.1-5.4-10.5-7.8-16.5-4.3
		C56.7,18.2,55.1,25.8,58.2,31.2z"/>
	<path class="st22" d="M58.2,31.2c3.1,5.4,10.5,7.7,16.4,4.3c6-3.4,7.6-11,4.5-16.4c-3.1-5.4-10.4-7.7-16.4-4.3
		C56.8,18.2,55.1,25.8,58.2,31.2z"/>
	<path class="st23" d="M58.3,31.1c3.1,5.4,10.5,7.7,16.3,4.3c5.9-3.4,7.6-10.9,4.5-16.3c-3.1-5.4-10.4-7.7-16.3-4.3
		C56.8,18.2,55.2,25.8,58.3,31.1L58.3,31.1z"/>
	<path class="st23" d="M58.3,31.1c3.1,5.4,10.4,7.7,16.3,4.3c5.9-3.4,7.5-10.9,4.4-16.2c-3.1-5.4-10.4-7.7-16.3-4.3
		C56.9,18.2,55.2,25.7,58.3,31.1z"/>
	<path class="st23" d="M58.4,31.1c3.1,5.3,10.4,7.6,16.2,4.3c5.9-3.4,7.5-10.9,4.4-16.2c-3.1-5.3-10.3-7.7-16.2-4.3
		C56.9,18.2,55.3,25.7,58.4,31.1z"/>
	<path class="st24" d="M58.4,31c3.1,5.3,10.4,7.6,16.2,4.2c5.9-3.4,7.5-10.8,4.4-16.1c-3.1-5.3-10.3-7.6-16.2-4.2
		C57,18.3,55.3,25.7,58.4,31z"/>
	<path class="st25" d="M58.5,31c3.1,5.3,10.3,7.6,16.1,4.2c5.9-3.4,7.5-10.8,4.4-16.1c-3.1-5.3-10.3-7.6-16.1-4.2
		C57,18.3,55.4,25.7,58.5,31z"/>
	<path class="st25" d="M58.5,30.9c3.1,5.3,10.3,7.6,16.1,4.2c5.8-3.4,7.4-10.7,4.4-16c-3.1-5.3-10.2-7.6-16.1-4.2
		C57.1,18.3,55.4,25.7,58.5,30.9z"/>
	<path class="st26" d="M58.5,30.9c3,5.3,10.2,7.5,16,4.2c5.8-3.4,7.4-10.7,4.4-16c-3-5.3-10.2-7.6-16-4.2
		C57.1,18.3,55.5,25.6,58.5,30.9z"/>
	<path class="st26" d="M58.6,30.9c3,5.2,10.2,7.5,15.9,4.2c5.8-3.3,7.4-10.7,4.3-15.9c-3-5.2-10.2-7.5-15.9-4.2
		C57.2,18.3,55.6,25.6,58.6,30.9z"/>
	<path class="st26" d="M58.6,30.8c3,5.2,10.2,7.5,15.9,4.2c5.8-3.3,7.3-10.6,4.3-15.8c-3-5.2-10.1-7.5-15.9-4.2
		C57.2,18.3,55.6,25.6,58.6,30.8L58.6,30.8z"/>
	<path class="st27" d="M58.7,30.8c3,5.2,10.1,7.4,15.8,4.2c5.7-3.3,7.3-10.6,4.3-15.8c-3-5.2-10.1-7.5-15.8-4.2
		C57.3,18.3,55.7,25.6,58.7,30.8z"/>
	<path class="st28" d="M58.7,30.7c3,5.2,10.1,7.4,15.8,4.1c5.7-3.3,7.3-10.5,4.3-15.7c-3-5.2-10-7.4-15.8-4.1
		C57.3,18.3,55.7,25.5,58.7,30.7z"/>
	<path class="st28" d="M58.8,30.7c3,5.2,10.1,7.4,15.7,4.1c5.7-3.3,7.3-10.5,4.3-15.7c-3-5.2-10-7.4-15.7-4.1
		C57.4,18.3,55.8,25.5,58.8,30.7z"/>
	<path class="st29" d="M58.8,30.6c3,5.2,10,7.4,15.7,4.1c5.7-3.3,7.2-10.5,4.3-15.6c-3-5.2-10-7.4-15.7-4.1
		C57.4,18.3,55.8,25.5,58.8,30.6z"/>
	<path class="st29" d="M58.9,30.6c3,5.1,10,7.3,15.6,4.1c5.7-3.3,7.2-10.4,4.2-15.6c-3-5.1-9.9-7.4-15.6-4.1
		C57.5,18.3,55.9,25.5,58.9,30.6z"/>
	<path class="st30" d="M58.9,30.6c3,5.1,9.9,7.3,15.5,4.1c5.6-3.3,7.2-10.4,4.2-15.5c-3-5.1-9.9-7.3-15.5-4.1
		C57.5,18.3,55.9,25.4,58.9,30.6z"/>
	<path class="st30" d="M58.9,30.5c2.9,5.1,9.9,7.3,15.5,4.1c5.6-3.2,7.2-10.3,4.2-15.4c-2.9-5.1-9.9-7.3-15.5-4.1
		C57.6,18.3,56,25.4,58.9,30.5z"/>
	<path class="st31" d="M59,30.5c2.9,5.1,9.9,7.3,15.4,4.1c5.6-3.2,7.1-10.3,4.2-15.4c-2.9-5.1-9.8-7.3-15.4-4.1
		C57.6,18.3,56.1,25.4,59,30.5z"/>
	<path class="st31" d="M59,30.4c2.9,5.1,9.8,7.2,15.4,4c5.6-3.2,7.1-10.3,4.2-15.3c-2.9-5.1-9.8-7.3-15.4-4
		C57.7,18.3,56.1,25.4,59,30.4z"/>
	<path class="st31" d="M59.1,30.4c2.9,5,9.8,7.2,15.3,4c5.6-3.2,7.1-10.2,4.2-15.3c-2.9-5-9.8-7.2-15.3-4
		C57.7,18.3,56.2,25.4,59.1,30.4z"/>
	<path class="st31" d="M59.1,30.4c2.9,5,9.8,7.2,15.3,4c5.5-3.2,7.1-10.2,4.2-15.2c-2.9-5-9.7-7.2-15.3-4
		C57.8,18.3,56.2,25.3,59.1,30.4L59.1,30.4z"/>
	<path class="st32" d="M59.2,30.3c2.9,5,9.7,7.2,15.2,4c5.5-3.2,7-10.2,4.1-15.2c-2.9-5-9.7-7.2-15.2-4
		C57.8,18.3,56.3,25.3,59.2,30.3z"/>
	<path class="st33" d="M59.2,30.3c2.9,5,9.7,7.1,15.1,4c5.5-3.2,7-10.1,4.1-15.1c-2.9-5-9.6-7.2-15.1-4
		C57.9,18.3,56.3,25.3,59.2,30.3z"/>
	<path class="st33" d="M59.2,30.2c2.9,5,9.7,7.1,15.1,4c5.5-3.2,7-10.1,4.1-15c-2.9-5-9.6-7.1-15.1-4C57.9,18.3,56.4,25.3,59.2,30.2
		z"/>
	<path class="st34" d="M59.3,30.2c2.9,4.9,9.6,7.1,15,3.9c5.5-3.2,6.9-10,4.1-15c-2.9-4.9-9.6-7.1-15-3.9
		C58,18.3,56.4,25.2,59.3,30.2z"/>
	<path class="st35" d="M59.3,30.1c2.8,4.9,9.6,7,15,3.9c5.4-3.1,6.9-10,4.1-14.9c-2.8-4.9-9.5-7.1-15-3.9
		C58,18.3,56.5,25.2,59.3,30.1z"/>
	<path class="st35" d="M59.4,30.1c2.8,4.9,9.5,7,14.9,3.9c5.4-3.1,6.9-10,4.1-14.9c-2.8-4.9-9.5-7-14.9-3.9
		C58.1,18.3,56.6,25.2,59.4,30.1z"/>
	<path class="st36" d="M59.4,30.1c2.8,4.9,9.5,7,14.9,3.9c5.4-3.1,6.9-9.9,4-14.8c-2.8-4.9-9.5-7-14.9-3.9
		C58.1,18.3,56.6,25.2,59.4,30.1z"/>
	<path class="st36" d="M59.5,30c2.8,4.9,9.5,7,14.8,3.9c5.4-3.1,6.8-9.9,4-14.8c-2.8-4.9-9.4-7-14.8-3.9
		C58.2,18.3,56.7,25.2,59.5,30z"/>
	<path class="st37" d="M59.5,30c2.8,4.8,9.4,6.9,14.7,3.9c5.4-3.1,6.8-9.8,4-14.7c-2.8-4.8-9.4-7-14.7-3.9
		C58.2,18.3,56.7,25.1,59.5,30L59.5,30z"/>
	<path class="st38" d="M59.6,29.9c2.8,4.8,9.4,6.9,14.7,3.9c5.3-3.1,6.8-9.8,4-14.6c-2.8-4.8-9.3-6.9-14.7-3.9
		C58.3,18.3,56.8,25.1,59.6,29.9z"/>
	<path class="st38" d="M59.6,29.9c2.8,4.8,9.4,6.9,14.6,3.8c5.3-3.1,6.8-9.8,4-14.6c-2.8-4.8-9.3-6.9-14.6-3.8
		C58.3,18.4,56.8,25.1,59.6,29.9z"/>
	<path class="st38" d="M59.6,29.9c2.8,4.8,9.3,6.9,14.6,3.8c5.3-3.1,6.7-9.7,4-14.5c-2.8-4.8-9.3-6.9-14.6-3.8
		C58.4,18.4,56.9,25.1,59.6,29.9"/>
	<path class="st39" d="M59.7,29.8c2.8,4.8,9.3,6.8,14.5,3.8c5.3-3,6.7-9.7,4-14.5c-2.8-4.8-9.2-6.9-14.5-3.8
		C58.4,18.4,56.9,25,59.7,29.8z"/>
	<path class="st40" d="M59.7,29.8c2.7,4.8,9.2,6.8,14.4,3.8c5.2-3,6.7-9.7,3.9-14.4c-2.7-4.8-9.2-6.8-14.4-3.8
		C58.5,18.4,57,25,59.7,29.8z"/>
	<path class="st40" d="M59.8,29.7c2.7,4.7,9.2,6.8,14.4,3.8c5.2-3,6.7-9.6,3.9-14.4c-2.7-4.7-9.2-6.8-14.4-3.8
		C58.5,18.4,57,25,59.8,29.7z"/>
	<path class="st41" d="M59.8,29.7c2.7,4.7,9.2,6.7,14.3,3.8c5.2-3,6.6-9.6,3.9-14.3c-2.7-4.7-9.1-6.8-14.3-3.8
		C58.6,18.4,57.1,25,59.8,29.7z"/>
	<path class="st41" d="M59.9,29.6c2.7,4.7,9.1,6.7,14.3,3.8c5.2-3,6.6-9.5,3.9-14.2c-2.7-4.7-9.1-6.7-14.3-3.8
		C58.6,18.4,57.2,24.9,59.9,29.6z"/>
	<path class="st41" d="M59.9,29.6c2.7,4.7,9.1,6.7,14.2,3.7c5.2-3,6.6-9.5,3.9-14.2c-2.7-4.7-9.1-6.7-14.2-3.7
		C58.7,18.4,57.2,24.9,59.9,29.6z"/>
	<path class="st42" d="M60,29.6c2.7,4.7,9.1,6.7,14.2,3.7c5.1-3,6.5-9.5,3.9-14.1c-2.7-4.7-9-6.7-14.2-3.7
		C58.7,18.4,57.3,24.9,60,29.6z"/>
	<path class="st43" d="M60,29.5c2.7,4.6,9,6.6,14.1,3.7c5.1-3,6.5-9.4,3.8-14.1c-2.7-4.6-9-6.7-14.1-3.7
		C58.8,18.4,57.3,24.9,60,29.5z"/>
	<path class="st44" d="M60,29.5c2.7,4.6,9,6.6,14,3.7c5.1-2.9,6.5-9.4,3.8-14c-2.7-4.6-8.9-6.6-14-3.7C58.8,18.4,57.4,24.9,60,29.5z
		"/>
	<path class="st45" d="M60.1,29.4c2.7,4.6,9,6.6,14,3.7c5.1-2.9,6.5-9.4,3.8-14c-2.7-4.6-8.9-6.6-14-3.7
		C58.9,18.4,57.4,24.8,60.1,29.4z"/>
	<path class="st45" d="M60.1,29.4c2.6,4.6,8.9,6.6,13.9,3.7c5.1-2.9,6.4-9.3,3.8-13.9c-2.6-4.6-8.9-6.6-13.9-3.7
		C58.9,18.4,57.5,24.8,60.1,29.4z"/>
	<path class="st46" d="M60.2,29.4c2.6,4.6,8.9,6.5,13.9,3.6c5-2.9,6.4-9.3,3.8-13.8c-2.6-4.6-8.8-6.6-13.9-3.6
		C59,18.4,57.5,24.8,60.2,29.4z"/>
	<path class="st46" d="M60.2,29.3c2.6,4.5,8.8,6.5,13.8,3.6c5-2.9,6.4-9.2,3.8-13.8c-2.6-4.5-8.8-6.5-13.8-3.6
		C59,18.4,57.6,24.8,60.2,29.3z"/>
	<path class="st47" d="M60.3,29.3c2.6,4.5,8.8,6.5,13.8,3.6c5-2.9,6.4-9.2,3.7-13.7c-2.6-4.5-8.8-6.5-13.8-3.6
		C59.1,18.4,57.7,24.7,60.3,29.3z"/>
	<path class="st47" d="M60.3,29.2c2.6,4.5,8.8,6.4,13.7,3.6c5-2.9,6.3-9.2,3.7-13.7c-2.6-4.5-8.7-6.5-13.7-3.6
		C59.1,18.4,57.7,24.7,60.3,29.2z"/>
	<path class="st47" d="M60.4,29.2c2.6,4.5,8.7,6.4,13.6,3.6c5-2.9,6.3-9.1,3.7-13.6c-2.6-4.5-8.7-6.4-13.6-3.6
		C59.2,18.4,57.8,24.7,60.4,29.2z"/>
	<path class="st48" d="M60.4,29.1c2.6,4.5,8.7,6.4,13.6,3.6c4.9-2.8,6.3-9.1,3.7-13.6c-2.6-4.5-8.7-6.4-13.6-3.6
		C59.2,18.4,57.8,24.7,60.4,29.1z"/>
	<path class="st49" d="M60.4,29.1c2.6,4.5,8.7,6.4,13.5,3.6c4.9-2.8,6.3-9,3.7-13.5c-2.6-4.4-8.6-6.4-13.5-3.6
		C59.3,18.4,57.9,24.7,60.4,29.1z"/>
	<path class="st50" d="M60.5,29.1c2.6,4.4,8.6,6.3,13.5,3.5c4.9-2.8,6.2-9,3.7-13.4c-2.6-4.4-8.6-6.4-13.5-3.5
		C59.3,18.4,57.9,24.6,60.5,29.1z"/>
	<path class="st50" d="M60.5,29c2.5,4.4,8.6,6.3,13.4,3.5c4.9-2.8,6.2-9,3.7-13.4c-2.5-4.4-8.5-6.3-13.4-3.5
		C59.4,18.4,58,24.6,60.5,29z"/>
	<path class="st51" d="M60.6,29c2.5,4.4,8.5,6.3,13.4,3.5c4.8-2.8,6.2-8.9,3.6-13.3c-2.5-4.4-8.5-6.3-13.4-3.5
		C59.4,18.4,58,24.6,60.6,29z"/>
	<path class="st52" d="M60.6,28.9c2.5,4.4,8.5,6.3,13.3,3.5c4.8-2.8,6.1-8.9,3.6-13.3c-2.5-4.4-8.5-6.3-13.3-3.5
		C59.5,18.4,58.1,24.6,60.6,28.9L60.6,28.9z"/>
	<path class="st53" d="M60.7,28.9c2.5,4.4,8.5,6.2,13.2,3.5c4.8-2.8,6.1-8.9,3.6-13.2c-2.5-4.4-8.4-6.3-13.2-3.5
		C59.5,18.4,58.2,24.5,60.7,28.9z"/>
	<path class="st54" d="M60.7,28.9c2.5,4.3,8.4,6.2,13.2,3.5c4.8-2.8,6.1-8.8,3.6-13.1c-2.5-4.3-8.4-6.2-13.2-3.5
		C59.6,18.4,58.2,24.5,60.7,28.9z"/>
	<path class="st54" d="M60.8,28.8c2.5,4.3,8.4,6.2,13.1,3.4c4.8-2.8,6.1-8.8,3.6-13.1c-2.5-4.3-8.4-6.2-13.1-3.4
		C59.6,18.4,58.3,24.5,60.8,28.8z"/>
	<path class="st54" d="M60.8,28.8c2.5,4.3,8.4,6.2,13.1,3.4c4.7-2.7,6-8.7,3.6-13c-2.5-4.3-8.3-6.2-13.1-3.4
		C59.7,18.4,58.3,24.5,60.8,28.8z"/>
	<path class="st55" d="M60.8,28.7c2.5,4.3,8.3,6.1,13,3.4c4.7-2.7,6-8.7,3.5-13c-2.5-4.3-8.3-6.1-13-3.4
		C59.7,18.5,58.4,24.4,60.8,28.7L60.8,28.7z"/>
	<path class="st55" d="M60.9,28.7c2.5,4.3,8.3,6.1,13,3.4c4.7-2.7,6-8.7,3.5-12.9c-2.5-4.3-8.2-6.1-13-3.4
		C59.8,18.5,58.4,24.4,60.9,28.7z"/>
	<path class="st55" d="M60.9,28.6c2.4,4.2,8.3,6.1,12.9,3.4c4.7-2.7,6-8.6,3.5-12.9c-2.4-4.2-8.2-6.1-12.9-3.4
		C59.8,18.5,58.5,24.4,60.9,28.6z"/>
	<path class="st56" d="M61,28.6c2.4,4.2,8.2,6,12.8,3.4c4.7-2.7,5.9-8.6,3.5-12.8c-2.4-4.2-8.2-6.1-12.8-3.4
		C59.9,18.5,58.5,24.4,61,28.6L61,28.6z"/>
	<path class="st57" d="M61,28.6c2.4,4.2,8.2,6,12.8,3.4c4.6-2.7,5.9-8.5,3.5-12.8c-2.4-4.2-8.1-6-12.8-3.4
		C59.9,18.5,58.6,24.4,61,28.6z"/>
	<path class="st58" d="M61.1,28.5c2.4,4.2,8.1,6,12.7,3.3c4.6-2.7,5.9-8.5,3.5-12.7c-2.4-4.2-8.1-6-12.7-3.3
		C60,18.5,58.7,24.3,61.1,28.5z"/>
	<path class="st59" d="M61.1,28.5c2.4,4.2,8.1,6,12.7,3.3c4.6-2.7,5.9-8.5,3.5-12.6c-2.4-4.2-8.1-6-12.7-3.3
		C60,18.5,58.7,24.3,61.1,28.5z"/>
	<path class="st59" d="M61.2,28.4c2.4,4.1,8.1,5.9,12.6,3.3c4.6-2.6,5.8-8.4,3.4-12.6c-2.4-4.1-8-6-12.6-3.3
		C60.1,18.5,58.8,24.3,61.2,28.4z"/>
	<path class="st60" d="M61.2,28.4c2.4,4.1,8,5.9,12.6,3.3c4.6-2.6,5.8-8.4,3.4-12.5c-2.4-4.1-8-5.9-12.6-3.3
		C60.1,18.5,58.8,24.3,61.2,28.4z"/>
	<path class="st60" d="M61.2,28.4c2.4,4.1,8,5.9,12.5,3.3c4.5-2.6,5.8-8.4,3.4-12.5c-2.4-4.1-8-5.9-12.5-3.3
		C60.2,18.5,58.9,24.2,61.2,28.4z"/>
	<path class="st61" d="M61.3,28.3c2.4,4.1,8,5.9,12.4,3.3c4.5-2.6,5.8-8.3,3.4-12.4c-2.4-4.1-7.9-5.9-12.4-3.3
		C60.2,18.5,58.9,24.2,61.3,28.3z"/>
	<path class="st61" d="M61.3,28.3c2.4,4.1,7.9,5.8,12.4,3.3c4.5-2.6,5.7-8.3,3.4-12.3c-2.4-4.1-7.9-5.8-12.4-3.3
		C60.3,18.5,59,24.2,61.3,28.3z"/>
	<path class="st62" d="M61.4,28.2c2.3,4.1,7.9,5.8,12.3,3.2c4.5-2.6,5.7-8.2,3.4-12.3c-2.3-4.1-7.8-5.8-12.3-3.2
		C60.3,18.5,59,24.2,61.4,28.2z"/>
	<path class="st63" d="M61.4,28.2c2.3,4,7.8,5.8,12.3,3.2c4.5-2.6,5.7-8.2,3.3-12.2c-2.3-4-7.8-5.8-12.3-3.2
		C60.4,18.5,59.1,24.2,61.4,28.2z"/>
	<path class="st64" d="M61.5,28.1c2.3,4,7.8,5.7,12.2,3.2c4.4-2.6,5.6-8.2,3.3-12.2c-2.3-4-7.8-5.8-12.2-3.2
		C60.4,18.5,59.1,24.1,61.5,28.1L61.5,28.1z"/>
	<path class="st65" d="M61.5,28.1c2.3,4,7.8,5.7,12.1,3.2c4.4-2.5,5.6-8.1,3.3-12.1c-2.3-4-7.7-5.7-12.1-3.2
		C60.4,18.5,59.2,24.1,61.5,28.1L61.5,28.1z"/>
	<path class="st66" d="M61.6,28.1c2.3,4,7.7,5.7,12.1,3.2c4.4-2.5,5.6-8.1,3.3-12.1c-2.3-4-7.7-5.7-12.1-3.2
		C60.5,18.5,59.3,24.1,61.6,28.1z"/>
	<path class="st66" d="M61.6,28c2.3,4,7.7,5.7,12,3.2c4.4-2.5,5.6-8,3.3-12c-2.3-4-7.7-5.7-12-3.2C60.5,18.5,59.3,24.1,61.6,28z"/>
	<path class="st67" d="M61.6,28c2.3,3.9,7.7,5.6,12,3.1c4.4-2.5,5.5-8,3.3-11.9c-2.3-3.9-7.6-5.7-12-3.1C60.6,18.5,59.4,24,61.6,28z
		"/>
	<path class="st68" d="M61.7,27.9c2.3,3.9,7.6,5.6,11.9,3.1c4.3-2.5,5.5-8,3.2-11.9c-2.3-3.9-7.6-5.6-11.9-3.1
		C60.6,18.5,59.4,24,61.7,27.9z"/>
	<path class="st69" d="M61.7,27.9c2.3,3.9,7.6,5.6,11.9,3.1c4.3-2.5,5.5-7.9,3.2-11.8c-2.3-3.9-7.6-5.6-11.9-3.1
		C60.7,18.5,59.5,24,61.7,27.9z"/>
	<path class="st69" d="M61.8,27.9c2.2,3.9,7.6,5.6,11.8,3.1c4.3-2.5,5.5-7.9,3.2-11.8c-2.2-3.9-7.5-5.6-11.8-3.1
		C60.7,18.5,59.5,24,61.8,27.9z"/>
	<path class="st69" d="M61.8,27.8c2.2,3.9,7.5,5.5,11.7,3.1c4.3-2.5,5.4-7.9,3.2-11.7c-2.2-3.9-7.5-5.5-11.7-3.1
		C60.8,18.5,59.6,23.9,61.8,27.8z"/>
	<path class="st70" d="M61.9,27.8c2.2,3.8,7.5,5.5,11.7,3.1c4.2-2.5,5.4-7.8,3.2-11.7c-2.2-3.8-7.4-5.5-11.7-3.1
		C60.8,18.5,59.6,23.9,61.9,27.8z"/>
	<path class="st70" d="M61.9,27.7c2.2,3.8,7.4,5.5,11.6,3.1c4.2-2.4,5.4-7.8,3.2-11.6c-2.2-3.8-7.4-5.5-11.6-3.1
		C60.9,18.5,59.7,23.9,61.9,27.7z"/>
	<path class="st70" d="M62,27.7c2.2,3.8,7.4,5.4,11.6,3c4.2-2.4,5.4-7.7,3.2-11.5c-2.2-3.8-7.4-5.5-11.6-3
		C60.9,18.5,59.8,23.9,62,27.7z"/>
	<path class="st71" d="M62,27.6c2.2,3.8,7.4,5.4,11.5,3c4.2-2.4,5.3-7.7,3.1-11.5c-2.2-3.8-7.3-5.4-11.5-3
		C61,18.5,59.8,23.9,62,27.6z"/>
	<path class="st71" d="M62,27.6c2.2,3.8,7.3,5.4,11.5,3c4.2-2.4,5.3-7.7,3.1-11.4c-2.2-3.8-7.3-5.4-11.5-3
		C61,18.6,59.9,23.8,62,27.6z"/>
	<path class="st72" d="M62.1,27.6c2.2,3.8,7.3,5.4,11.4,3c4.1-2.4,5.3-7.6,3.1-11.4c-2.2-3.8-7.3-5.4-11.4-3
		C61.1,18.6,59.9,23.8,62.1,27.6z"/>
	<path class="st73" d="M62.1,27.5c2.2,3.7,7.3,5.3,11.3,3c4.1-2.4,5.2-7.6,3.1-11.3c-2.2-3.7-7.2-5.4-11.3-3
		C61.1,18.6,60,23.8,62.1,27.5z"/>
	<path class="st73" d="M62.2,27.5c2.1,3.7,7.2,5.3,11.3,3c4.1-2.4,5.2-7.5,3.1-11.3c-2.1-3.7-7.2-5.3-11.3-3
		C61.2,18.6,60,23.8,62.2,27.5L62.2,27.5z"/>
	<path class="st74" d="M62.2,27.4c2.1,3.7,7.2,5.3,11.2,2.9c4.1-2.4,5.2-7.5,3.1-11.2c-2.1-3.7-7.2-5.3-11.2-3
		C61.2,18.6,60.1,23.7,62.2,27.4z"/>
	<path class="st75" d="M62.3,27.4c2.1,3.7,7.1,5.3,11.2,2.9c4.1-2.3,5.2-7.5,3-11.1c-2.1-3.7-7.1-5.3-11.2-2.9
		C61.3,18.6,60.1,23.7,62.3,27.4z"/>
	<path class="st76" d="M62.3,27.4c2.1,3.7,7.1,5.2,11.1,2.9c4-2.3,5.1-7.4,3-11.1c-2.1-3.7-7.1-5.3-11.1-2.9
		C61.3,18.6,60.2,23.7,62.3,27.4L62.3,27.4z"/>
	<path class="st76" d="M62.4,27.3c2.1,3.6,7.1,5.2,11.1,2.9c4-2.3,5.1-7.4,3-11c-2.1-3.6-7-5.2-11.1-2.9
		C61.4,18.6,60.3,23.7,62.4,27.3z"/>
	<path class="st77" d="M62.4,27.3c2.1,3.6,7,5.2,11,2.9c4-2.3,5.1-7.4,3-11c-2.1-3.6-7-5.2-11-2.9C61.4,18.6,60.3,23.6,62.4,27.3z"
		/>
	<path class="st78" d="M62.4,27.2c2.1,3.6,7,5.1,10.9,2.9c4-2.3,5.1-7.3,3-10.9c-2.1-3.6-7-5.2-10.9-2.9
		C61.5,18.6,60.4,23.6,62.4,27.2z"/>
	<path class="st79" d="M62.5,27.2c2.1,3.6,7,5.1,10.9,2.9c4-2.3,5-7.3,3-10.9c-2.1-3.6-6.9-5.1-10.9-2.9
		C61.5,18.6,60.4,23.6,62.5,27.2z"/>
	<path class="st80" d="M62.5,27.1c2.1,3.6,6.9,5.1,10.8,2.8c3.9-2.3,5-7.2,3-10.8c-2.1-3.6-6.9-5.1-10.8-2.8
		C61.6,18.6,60.5,23.6,62.5,27.1z"/>
	<path class="st81" d="M62.6,27.1c2,3.5,6.9,5.1,10.8,2.8c3.9-2.3,5-7.2,2.9-10.7c-2-3.5-6.9-5.1-10.8-2.8
		C61.6,18.6,60.5,23.6,62.6,27.1z"/>
	<path class="st81" d="M62.6,27.1c2,3.5,6.9,5,10.7,2.8c3.9-2.2,5-7.2,2.9-10.7c-2-3.5-6.8-5.1-10.7-2.8
		C61.7,18.6,60.6,23.5,62.6,27.1z"/>
	<path class="st82" d="M62.7,27c2,3.5,6.8,5,10.7,2.8c3.9-2.2,4.9-7.1,2.9-10.6c-2-3.5-6.8-5-10.7-2.8C61.7,18.6,60.6,23.5,62.7,27z
		"/>
	<path class="st82" d="M62.7,27c2,3.5,6.8,5,10.6,2.8c3.8-2.2,4.9-7.1,2.9-10.6c-2-3.5-6.8-5-10.6-2.8C61.8,18.6,60.7,23.5,62.7,27z
		"/>
	<path class="st83" d="M62.8,26.9c2,3.5,6.7,5,10.5,2.8c3.8-2.2,4.9-7,2.9-10.5c-2-3.5-6.7-5-10.5-2.8
		C61.8,18.6,60.8,23.5,62.8,26.9z"/>
	<path class="st83" d="M62.8,26.9c2,3.5,6.7,4.9,10.5,2.8c3.8-2.2,4.8-7,2.9-10.5c-2-3.4-6.7-5-10.5-2.8
		C61.9,18.6,60.8,23.4,62.8,26.9z"/>
	<path class="st84" d="M62.8,26.9c2,3.4,6.7,4.9,10.4,2.7c3.8-2.2,4.8-7,2.8-10.4c-2-3.4-6.6-4.9-10.4-2.7
		C61.9,18.6,60.9,23.4,62.8,26.9z"/>
	<path class="st85" d="M62.9,26.8c2,3.4,6.6,4.9,10.4,2.7c3.8-2.2,4.8-6.9,2.8-10.3c-2-3.4-6.6-4.9-10.4-2.7
		C62,18.6,60.9,23.4,62.9,26.8z"/>
	<path class="st85" d="M62.9,26.8c2,3.4,6.6,4.9,10.3,2.7c3.7-2.2,4.8-6.9,2.8-10.3c-2-3.4-6.6-4.9-10.3-2.7
		C62,18.6,61,23.4,62.9,26.8z"/>
	<path class="st86" d="M63,26.7c1.9,3.4,6.6,4.8,10.3,2.7C77,27.3,78,22.6,76,19.2c-1.9-3.4-6.5-4.8-10.3-2.7
		C62.1,18.6,61,23.4,63,26.7"/>
	<path class="st86" d="M63,26.7c1.9,3.4,6.5,4.8,10.2,2.7c3.7-2.1,4.7-6.8,2.8-10.2c-1.9-3.4-6.5-4.8-10.2-2.7
		C62.1,18.6,61.1,23.3,63,26.7z"/>
	<path class="st86" d="M63.1,26.6c1.9,3.3,6.5,4.8,10.1,2.7c3.7-2.1,4.7-6.8,2.8-10.1c-1.9-3.3-6.5-4.8-10.1-2.7
		C62.2,18.6,61.1,23.3,63.1,26.6"/>
	<path class="st87" d="M63.1,26.6c1.9,3.3,6.5,4.7,10.1,2.6c3.7-2.1,4.7-6.7,2.7-10.1c-1.9-3.3-6.4-4.8-10.1-2.6
		C62.2,18.6,61.2,23.3,63.1,26.6L63.1,26.6z"/>
	<path class="st87" d="M63.2,26.6c1.9,3.3,6.4,4.7,10,2.6c3.6-2.1,4.6-6.7,2.7-10c-1.9-3.3-6.4-4.7-10-2.6
		C62.3,18.6,61.2,23.3,63.2,26.6z"/>
	<path class="st87" d="M63.2,26.5c1.9,3.3,6.4,4.7,10,2.6c3.6-2.1,4.6-6.7,2.7-9.9c-1.9-3.3-6.3-4.7-10-2.6
		C62.3,18.6,61.3,23.2,63.2,26.5z"/>
	<path class="st88" d="M63.2,26.5c1.9,3.3,6.3,4.7,9.9,2.6c3.6-2.1,4.6-6.6,2.7-9.9c-1.9-3.3-6.3-4.7-9.9-2.6
		C62.4,18.7,61.4,23.2,63.2,26.5z"/>
	<path class="st89" d="M63.3,26.4c1.9,3.2,6.3,4.6,9.9,2.6c3.6-2.1,4.6-6.6,2.7-9.8C74,16,69.5,14.5,66,16.6
		C62.4,18.7,61.4,23.2,63.3,26.4z"/>
	<path class="st90" d="M63.3,26.4c1.9,3.2,6.3,4.6,9.8,2.6c3.6-2.1,4.5-6.5,2.7-9.8c-1.9-3.2-6.2-4.6-9.8-2.6
		C62.5,18.7,61.5,23.2,63.3,26.4z"/>
	<path class="st90" d="M63.4,26.4c1.8,3.2,6.2,4.6,9.7,2.6c3.5-2,4.5-6.5,2.7-9.7c-1.8-3.2-6.2-4.6-9.7-2.6
		C62.5,18.7,61.5,23.1,63.4,26.4z"/>
	<path class="st91" d="M63.4,26.3c1.8,3.2,6.2,4.6,9.7,2.5c3.5-2,4.5-6.5,2.6-9.7c-1.8-3.2-6.2-4.6-9.7-2.5
		C62.6,18.7,61.6,23.1,63.4,26.3z"/>
	<path class="st92" d="M63.5,26.3c1.8,3.2,6.2,4.5,9.6,2.5c3.5-2,4.4-6.4,2.6-9.6c-1.8-3.2-6.1-4.5-9.6-2.5
		C62.6,18.7,61.6,23.1,63.5,26.3L63.5,26.3z"/>
	<path class="st92" d="M63.5,26.2c1.8,3.1,6.1,4.5,9.6,2.5c3.5-2,4.4-6.4,2.6-9.5c-1.8-3.1-6.1-4.5-9.6-2.5
		C62.7,18.7,61.7,23.1,63.5,26.2z"/>
	<path class="st93" d="M63.6,26.2c1.8,3.1,6.1,4.5,9.5,2.5c3.5-2,4.4-6.4,2.6-9.5c-1.8-3.1-6.1-4.5-9.5-2.5
		C62.7,18.7,61.7,23.1,63.6,26.2z"/>
	<path class="st94" d="M63.6,26.1c1.8,3.1,6,4.4,9.4,2.5c3.4-2,4.4-6.3,2.6-9.4c-1.8-3.1-6-4.5-9.4-2.5C62.8,18.7,61.8,23,63.6,26.1
		z"/>
	<path class="st94" d="M63.6,26.1c1.8,3.1,6,4.4,9.4,2.5c3.4-2,4.3-6.3,2.6-9.4c-1.8-3.1-6-4.4-9.4-2.5C62.8,18.7,61.9,23,63.6,26.1
		z"/>
	<path class="st95" d="M63.7,26.1c1.8,3.1,6,4.4,9.3,2.5c3.4-2,4.3-6.2,2.5-9.3c-1.8-3.1-5.9-4.4-9.3-2.5
		C62.9,18.7,61.9,23,63.7,26.1z"/>
	<path class="st95" d="M63.7,26c1.8,3.1,5.9,4.4,9.3,2.4c3.4-1.9,4.3-6.2,2.5-9.3c-1.8-3.1-5.9-4.4-9.3-2.4C62.9,18.7,62,23,63.7,26
		z"/>
	<path class="st96" d="M63.8,26c1.8,3,5.9,4.3,9.2,2.4c3.3-1.9,4.3-6.2,2.5-9.2c-1.8-3-5.9-4.4-9.2-2.4C63,18.7,62,22.9,63.8,26z"/>
	<path class="st96" d="M63.8,25.9c1.7,3,5.9,4.3,9.2,2.4c3.3-1.9,4.2-6.1,2.5-9.1c-1.7-3-5.8-4.3-9.2-2.4
		C63,18.7,62.1,22.9,63.8,25.9z"/>
	<path class="st97" d="M63.9,25.9c1.7,3,5.8,4.3,9.1,2.4c3.3-1.9,4.2-6.1,2.5-9.1c-1.7-3-5.8-4.3-9.1-2.4
		C63.1,18.7,62.1,22.9,63.9,25.9z"/>
	<path class="st98" d="M63.9,25.8c1.7,3,5.8,4.3,9,2.4c3.3-1.9,4.2-6,2.5-9c-1.7-3-5.8-4.3-9-2.4C63.1,18.7,62.2,22.9,63.9,25.8
		L63.9,25.8z"/>
	<path class="st99" d="M64,25.8c1.7,3,5.8,4.2,9,2.4c3.3-1.9,4.2-6,2.4-9c-1.7-3-5.7-4.2-9-2.4C63.2,18.7,62.2,22.9,64,25.8z"/>
	<path class="st100" d="M64,25.8c1.7,2.9,5.7,4.2,8.9,2.3c3.2-1.9,4.1-6,2.4-8.9c-1.7-2.9-5.7-4.2-8.9-2.3
		C63.2,18.7,62.3,22.8,64,25.8z"/>
	<path class="st100" d="M64,25.7c1.7,2.9,5.7,4.2,8.9,2.3c3.2-1.9,4.1-5.9,2.4-8.9c-1.7-2.9-5.7-4.2-8.9-2.3
		C63.3,18.7,62.4,22.8,64,25.7z"/>
	<path class="st100" d="M64.1,25.7c1.7,2.9,5.6,4.1,8.8,2.3c3.2-1.8,4.1-5.9,2.4-8.8c-1.7-2.9-5.6-4.2-8.8-2.3
		C63.3,18.7,62.4,22.8,64.1,25.7z"/>
	<path class="st101" d="M64.1,25.6c1.7,2.9,5.6,4.1,8.8,2.3c3.2-1.8,4.1-5.9,2.4-8.7c-1.7-2.9-5.6-4.1-8.8-2.3
		C63.4,18.7,62.5,22.8,64.1,25.6z"/>
	<path class="st101" d="M64.2,25.6c1.7,2.9,5.6,4.1,8.7,2.3c3.2-1.8,4-5.8,2.4-8.7c-1.7-2.9-5.5-4.1-8.7-2.3
		C63.4,18.7,62.5,22.7,64.2,25.6z"/>
	<path class="st101" d="M64.2,25.6c1.6,2.8,5.5,4.1,8.6,2.3c3.1-1.8,4-5.8,2.4-8.6c-1.6-2.8-5.5-4.1-8.6-2.3
		C63.5,18.7,62.6,22.7,64.2,25.6z"/>
	<path class="st102" d="M64.3,25.5c1.6,2.8,5.5,4,8.6,2.3c3.1-1.8,4-5.7,2.3-8.6c-1.6-2.8-5.5-4.1-8.6-2.3
		C63.5,18.7,62.6,22.7,64.3,25.5z"/>
	<path class="st102" d="M64.3,25.5c1.6,2.8,5.5,4,8.5,2.2c3.1-1.8,3.9-5.7,2.3-8.5c-1.6-2.8-5.4-4-8.5-2.2
		C63.6,18.7,62.7,22.7,64.3,25.5L64.3,25.5z"/>
	<path class="st103" d="M64.4,25.4c1.6,2.8,5.4,4,8.5,2.2c3.1-1.8,3.9-5.7,2.3-8.5c-1.6-2.8-5.4-4-8.5-2.2
		C63.6,18.7,62.7,22.6,64.4,25.4z"/>
	<path class="st104" d="M64.4,25.4c1.6,2.8,5.4,4,8.4,2.2c3.1-1.8,3.9-5.6,2.3-8.4c-1.6-2.8-5.4-4-8.4-2.2
		C63.7,18.7,62.8,22.6,64.4,25.4z"/>
	<path class="st104" d="M64.4,25.4c1.6,2.7,5.3,3.9,8.4,2.2c3-1.8,3.9-5.6,2.3-8.3c-1.6-2.7-5.3-3.9-8.4-2.2
		C63.7,18.8,62.9,22.6,64.4,25.4z"/>
	<path class="st105" d="M64.5,25.3c1.6,2.7,5.3,3.9,8.3,2.2c3-1.7,3.8-5.5,2.3-8.3c-1.6-2.7-5.3-3.9-8.3-2.2
		C63.8,18.8,62.9,22.6,64.5,25.3z"/>
	<path class="st106" d="M64.5,25.3c1.6,2.7,5.3,3.9,8.2,2.2c3-1.7,3.8-5.5,2.2-8.2c-1.6-2.7-5.2-3.9-8.2-2.2
		C63.8,18.8,63,22.6,64.5,25.3z"/>
	<path class="st107" d="M64.6,25.2c1.6,2.7,5.2,3.9,8.2,2.1c3-1.7,3.8-5.5,2.2-8.2c-1.6-2.7-5.2-3.9-8.2-2.2
		C63.9,18.8,63,22.5,64.6,25.2z"/>
	<path class="st107" d="M64.6,25.2c1.5,2.7,5.2,3.8,8.1,2.1c3-1.7,3.8-5.4,2.2-8.1c-1.5-2.7-5.2-3.8-8.1-2.1
		C63.9,18.8,63.1,22.5,64.6,25.2z"/>
	<path class="st107" d="M64.7,25.1c1.5,2.7,5.2,3.8,8.1,2.1c2.9-1.7,3.7-5.4,2.2-8c-1.5-2.7-5.1-3.8-8.1-2.1
		C64,18.8,63.1,22.5,64.7,25.1z"/>
	<path class="st108" d="M64.7,25.1c1.5,2.6,5.1,3.8,8,2.1c2.9-1.7,3.7-5.4,2.2-8c-1.5-2.6-5.1-3.8-8-2.1
		C64,18.8,63.2,22.5,64.7,25.1z"/>
	<path class="st109" d="M64.8,25.1c1.5,2.6,5.1,3.7,8,2.1c2.9-1.7,3.7-5.3,2.2-7.9c-1.5-2.6-5.1-3.8-8-2.1
		C64.1,18.8,63.2,22.4,64.8,25.1z"/>
	<path class="st110" d="M64.8,25c1.5,2.6,5.1,3.7,7.9,2.1c2.9-1.7,3.7-5.3,2.2-7.9c-1.5-2.6-5-3.7-7.9-2.1
		C64.1,18.8,63.3,22.4,64.8,25z"/>
	<path class="st110" d="M64.8,25c1.5,2.6,5,3.7,7.8,2.1c2.8-1.6,3.6-5.2,2.1-7.8c-1.5-2.6-5-3.7-7.8-2.1
		C64.2,18.8,63.4,22.4,64.8,25L64.8,25z"/>
	<path class="st111" d="M64.9,24.9c1.5,2.6,5,3.7,7.8,2c2.8-1.6,3.6-5.2,2.1-7.8c-1.5-2.6-5-3.7-7.8-2
		C64.2,18.8,63.4,22.4,64.9,24.9z"/>
	<path class="st112" d="M64.9,24.9c1.5,2.5,4.9,3.6,7.7,2c2.8-1.6,3.6-5.2,2.1-7.7c-1.5-2.5-4.9-3.6-7.7-2
		C64.3,18.8,63.5,22.3,64.9,24.9z"/>
	<path class="st113" d="M65,24.8c1.5,2.5,4.9,3.6,7.7,2c2.8-1.6,3.5-5.1,2.1-7.6c-1.5-2.5-4.9-3.6-7.7-2
		C64.3,18.8,63.5,22.3,65,24.8z"/>
	<path class="st114" d="M65,24.8c1.4,2.5,4.9,3.6,7.6,2c2.8-1.6,3.5-5.1,2.1-7.6c-1.4-2.5-4.8-3.6-7.6-2
		C64.4,18.8,63.6,22.3,65,24.8z"/>
	<path class="st115" d="M65.1,24.8c1.4,2.5,4.8,3.6,7.6,2c2.7-1.6,3.5-5,2.1-7.5c-1.4-2.5-4.8-3.6-7.6-2
		C64.4,18.8,63.6,22.3,65.1,24.8z"/>
	<path class="st115" d="M65.1,24.7c1.4,2.5,4.8,3.5,7.5,2c2.7-1.6,3.5-5,2-7.5c-1.4-2.5-4.8-3.5-7.5-2
		C64.4,18.8,63.7,22.3,65.1,24.7z"/>
	<path class="st116" d="M65.1,24.7c1.4,2.4,4.8,3.5,7.4,2c2.7-1.6,3.4-5,2-7.4c-1.4-2.4-4.7-3.5-7.4-2
		C64.5,18.8,63.7,22.2,65.1,24.7z"/>
	<path class="st116" d="M65.2,24.6c1.4,2.4,4.7,3.5,7.4,1.9c2.7-1.5,3.4-4.9,2-7.4c-1.4-2.4-4.7-3.5-7.4-1.9
		C64.5,18.8,63.8,22.2,65.2,24.6z"/>
	<path class="st117" d="M65.2,24.6c1.4,2.4,4.7,3.4,7.3,1.9c2.7-1.5,3.4-4.9,2-7.3c-1.4-2.4-4.7-3.5-7.3-1.9
		C64.6,18.8,63.8,22.2,65.2,24.6z"/>
	<path class="st117" d="M65.3,24.6c1.4,2.4,4.7,3.4,7.3,1.9c2.6-1.5,3.4-4.9,2-7.2c-1.4-2.4-4.6-3.4-7.3-1.9
		C64.6,18.8,63.9,22.2,65.3,24.6z"/>
	<path class="st117" d="M65.3,24.5c1.4,2.4,4.6,3.4,7.2,1.9c2.6-1.5,3.3-4.8,2-7.2c-1.4-2.4-4.6-3.4-7.2-1.9
		C64.7,18.8,64,22.1,65.3,24.5z"/>
	<path class="st117" d="M65.4,24.5c1.4,2.4,4.6,3.4,7.2,1.9c2.6-1.5,3.3-4.8,1.9-7.1c-1.4-2.4-4.6-3.4-7.1-1.9
		C64.7,18.8,64,22.1,65.4,24.5z"/>
	<path class="st118" d="M65.4,24.4c1.3,2.3,4.5,3.3,7.1,1.9c2.6-1.5,3.3-4.7,1.9-7.1c-1.3-2.3-4.5-3.4-7.1-1.9
		C64.8,18.8,64.1,22.1,65.4,24.4z"/>
	<path class="st118" d="M65.5,24.4c1.3,2.3,4.5,3.3,7,1.8c2.6-1.5,3.3-4.7,1.9-7c-1.3-2.3-4.5-3.3-7-1.8
		C64.8,18.8,64.1,22.1,65.5,24.4L65.5,24.4z"/>
	<path class="st118" d="M65.5,24.3c1.3,2.3,4.5,3.3,7,1.8c2.5-1.5,3.2-4.7,1.9-7c-1.3-2.3-4.4-3.3-7-1.8
		C64.9,18.8,64.2,22.1,65.5,24.3L65.5,24.3z"/>
	<path class="st119" d="M65.5,24.3c1.3,2.3,4.4,3.3,6.9,1.8c2.5-1.4,3.2-4.6,1.9-6.9c-1.3-2.3-4.4-3.3-6.9-1.8
		C64.9,18.8,64.2,22,65.5,24.3z"/>
	<path class="st119" d="M65.6,24.3c1.3,2.3,4.4,3.2,6.9,1.8c2.5-1.4,3.2-4.6,1.9-6.8C73,17,70,16,67.5,17.4
		C65,18.8,64.3,22,65.6,24.3z"/>
	<path class="st120" d="M65.6,24.2c1.3,2.2,4.4,3.2,6.8,1.8c2.5-1.4,3.1-4.5,1.9-6.8C73,17,70,16,67.5,17.4
		C65,18.9,64.3,22,65.6,24.2L65.6,24.2z"/>
	<path class="st121" d="M65.7,24.2c1.3,2.2,4.3,3.2,6.7,1.8c2.5-1.4,3.1-4.5,1.8-6.7C73,17,70,16,67.5,17.5
		C65.1,18.9,64.4,22,65.7,24.2z"/>
	<path class="st121" d="M65.7,24.1c1.3,2.2,4.3,3.1,6.7,1.8c2.4-1.4,3.1-4.5,1.8-6.7C73,17,70,16.1,67.5,17.5
		C65.1,18.9,64.5,21.9,65.7,24.1z"/>
	<path class="st122" d="M65.8,24.1c1.3,2.2,4.2,3.1,6.6,1.7c2.4-1.4,3.1-4.4,1.8-6.6C73,17,70,16.1,67.6,17.5
		C65.2,18.9,64.5,21.9,65.8,24.1z"/>
	<path class="st123" d="M65.8,24.1c1.2,2.2,4.2,3.1,6.6,1.7c2.4-1.4,3-4.4,1.8-6.6c-1.2-2.2-4.2-3.1-6.6-1.7
		C65.2,18.9,64.6,21.9,65.8,24.1z"/>
	<path class="st124" d="M65.9,24c1.2,2.1,4.2,3.1,6.5,1.7c2.4-1.4,3-4.4,1.8-6.5c-1.2-2.1-4.2-3.1-6.5-1.7
		C65.3,18.9,64.6,21.9,65.9,24z"/>
	<path class="st124" d="M65.9,24c1.2,2.1,4.1,3,6.5,1.7c2.3-1.4,3-4.3,1.8-6.4c-1.2-2.1-4.1-3.1-6.5-1.7
		C65.3,18.9,64.7,21.8,65.9,24z"/>
	<path class="st124" d="M65.9,23.9c1.2,2.1,4.1,3,6.4,1.7c2.3-1.3,3-4.3,1.7-6.4c-1.2-2.1-4.1-3-6.4-1.7
		C65.4,18.9,64.7,21.8,65.9,23.9L65.9,23.9z"/>
	<path class="st125" d="M66,23.9c1.2,2.1,4.1,3,6.3,1.7c2.3-1.3,2.9-4.2,1.7-6.3c-1.2-2.1-4-3-6.3-1.7C65.4,18.9,64.8,21.8,66,23.9z
		"/>
	<path class="st126" d="M66,23.9c1.2,2.1,4,3,6.3,1.7c2.3-1.3,2.9-4.2,1.7-6.3c-1.2-2.1-4-3-6.3-1.7C65.5,18.9,64.8,21.8,66,23.9z"
		/>
	<path class="st127" d="M66.1,23.8c1.2,2,4,2.9,6.2,1.6c2.3-1.3,2.9-4.2,1.7-6.2c-1.2-2.1-4-2.9-6.2-1.6
		C65.5,18.9,64.9,21.8,66.1,23.8z"/>
	<path class="st127" d="M66.1,23.8c1.2,2,4,2.9,6.2,1.6c2.2-1.3,2.9-4.1,1.7-6.2c-1.2-2-3.9-2.9-6.2-1.6
		C65.6,18.9,65,21.7,66.1,23.8z"/>
	<path class="st128" d="M66.2,23.7c1.2,2,3.9,2.9,6.1,1.6c2.2-1.3,2.8-4.1,1.7-6.1c-1.2-2-3.9-2.9-6.1-1.6
		C65.6,18.9,65,21.7,66.2,23.7z"/>
	<path class="st129" d="M66.2,23.7c1.2,2,3.9,2.9,6.1,1.6c2.2-1.3,2.8-4.1,1.6-6c-1.2-2-3.9-2.9-6.1-1.6
		C65.7,18.9,65.1,21.7,66.2,23.7z"/>
	<path class="st130" d="M66.3,23.6c1.1,2,3.8,2.8,6,1.6c2.2-1.3,2.8-4,1.6-6c-1.1-2-3.8-2.8-6-1.6C65.7,18.9,65.1,21.7,66.3,23.6z"
		/>
	<path class="st131" d="M66.3,23.6c1.1,2,3.8,2.8,5.9,1.6c2.2-1.2,2.7-4,1.6-5.9c-1.1-2-3.8-2.8-5.9-1.6
		C65.8,18.9,65.2,21.6,66.3,23.6z"/>
	<path class="st131" d="M66.3,23.6c1.1,1.9,3.8,2.8,5.9,1.5c2.1-1.2,2.7-3.9,1.6-5.9c-1.1-1.9-3.7-2.8-5.9-1.5
		C65.8,18.9,65.2,21.6,66.3,23.6L66.3,23.6z"/>
	<path class="st131" d="M66.4,23.5c1.1,1.9,3.7,2.7,5.8,1.5c2.1-1.2,2.7-3.9,1.6-5.8c-1.1-1.9-3.7-2.8-5.8-1.5
		C65.9,18.9,65.3,21.6,66.4,23.5z"/>
	<path class="st132" d="M66.4,23.5c1.1,1.9,3.7,2.7,5.8,1.5c2.1-1.2,2.7-3.9,1.6-5.8c-1.1-1.9-3.7-2.7-5.8-1.5
		C65.9,18.9,65.3,21.6,66.4,23.5z"/>
	<path class="st132" d="M66.5,23.4c1.1,1.9,3.7,2.7,5.7,1.5c2.1-1.2,2.6-3.8,1.6-5.7c-1.1-1.9-3.6-2.7-5.7-1.5
		C66,18.9,65.4,21.6,66.5,23.4z"/>
	<path class="st133" d="M66.5,23.4c1.1,1.9,3.6,2.7,5.7,1.5c2.1-1.2,2.6-3.8,1.5-5.6c-1.1-1.9-3.6-2.7-5.7-1.5
		C66,18.9,65.5,21.5,66.5,23.4L66.5,23.4z"/>
	<path class="st134" d="M66.6,23.3c1.1,1.8,3.6,2.6,5.6,1.5c2-1.2,2.6-3.7,1.5-5.6c-1.1-1.8-3.6-2.6-5.6-1.5
		C66.1,18.9,65.5,21.5,66.6,23.3L66.6,23.3z"/>
	<path class="st134" d="M66.6,23.3c1.1,1.8,3.5,2.6,5.5,1.5c2-1.2,2.6-3.7,1.5-5.5c-1.1-1.8-3.5-2.6-5.5-1.5
		C66.1,18.9,65.6,21.5,66.6,23.3z"/>
	<path class="st135" d="M66.7,23.3c1,1.8,3.5,2.6,5.5,1.4c2-1.1,2.5-3.7,1.5-5.5c-1-1.8-3.5-2.6-5.5-1.4
		C66.2,18.9,65.6,21.5,66.7,23.3z"/>
	<path class="st136" d="M66.7,23.2c1,1.8,3.5,2.6,5.4,1.4c2-1.1,2.5-3.6,1.5-5.4c-1-1.8-3.5-2.6-5.4-1.4
		C66.2,18.9,65.7,21.4,66.7,23.2z"/>
	<path class="st137" d="M66.7,23.2c1,1.8,3.4,2.5,5.4,1.4c1.9-1.1,2.5-3.6,1.5-5.4c-1-1.8-3.4-2.5-5.4-1.4
		C66.3,18.9,65.7,21.4,66.7,23.2z"/>
	<path class="st138" d="M66.8,23.1c1,1.7,3.4,2.5,5.3,1.4c1.9-1.1,2.5-3.6,1.4-5.3c-1-1.7-3.4-2.5-5.3-1.4
		C66.3,18.9,65.8,21.4,66.8,23.1z"/>
	<path class="st139" d="M66.8,23.1c1,1.7,3.4,2.5,5.3,1.4c1.9-1.1,2.4-3.5,1.4-5.2c-1-1.7-3.3-2.5-5.3-1.4
		C66.4,19,65.8,21.4,66.8,23.1z"/>
	<path class="st140" d="M66.9,23.1c1,1.7,3.3,2.4,5.2,1.4c1.9-1.1,2.4-3.5,1.4-5.2c-1-1.7-3.3-2.5-5.2-1.4
		C66.4,19,65.9,21.3,66.9,23.1z"/>
	<path class="st140" d="M66.9,23c1,1.7,3.3,2.4,5.1,1.4c1.9-1.1,2.4-3.4,1.4-5.1c-1-1.7-3.3-2.4-5.1-1.3C66.5,19,65.9,21.3,66.9,23z
		"/>
	<path class="st141" d="M67,23c1,1.7,3.3,2.4,5.1,1.3c1.8-1.1,2.4-3.4,1.4-5.1c-1-1.7-3.2-2.4-5.1-1.3C66.5,19,66,21.3,67,23z"/>
	<path class="st142" d="M67,22.9c1,1.7,3.2,2.4,5,1.3c1.8-1.1,2.3-3.4,1.4-5c-1-1.7-3.2-2.4-5-1.3C66.6,19,66.1,21.3,67,22.9z"/>
	<path class="st143" d="M67.1,22.9c0.9,1.6,3.2,2.3,5,1.3c1.8-1,2.3-3.3,1.4-5c-0.9-1.6-3.2-2.3-5-1.3C66.6,19,66.1,21.3,67.1,22.9z
		"/>
	<path class="st144" d="M67.1,22.8c0.9,1.6,3.1,2.3,4.9,1.3c1.8-1,2.3-3.3,1.3-4.9c-0.9-1.6-3.1-2.3-4.9-1.3
		C66.7,19,66.2,21.2,67.1,22.8z"/>
	<path class="st144" d="M67.1,22.8c0.9,1.6,3.1,2.3,4.9,1.3c1.8-1,2.2-3.2,1.3-4.8c-0.9-1.6-3.1-2.3-4.9-1.3
		C66.7,19,66.2,21.2,67.1,22.8z"/>
	<path class="st144" d="M67.2,22.8c0.9,1.6,3.1,2.3,4.8,1.3c1.7-1,2.2-3.2,1.3-4.8c-0.9-1.6-3.1-2.3-4.8-1.3
		C66.8,19,66.3,21.2,67.2,22.8z"/>
	<path class="st145" d="M67.2,22.7c0.9,1.6,3,2.2,4.7,1.2c1.7-1,2.2-3.2,1.3-4.7c-0.9-1.6-3-2.2-4.7-1.2
		C66.8,19,66.3,21.2,67.2,22.7L67.2,22.7z"/>
	<path class="st146" d="M67.3,22.7c0.9,1.5,3,2.2,4.7,1.2c1.7-1,2.2-3.1,1.3-4.7c-0.9-1.5-3-2.2-4.7-1.2
		C66.9,19,66.4,21.1,67.3,22.7L67.3,22.7z"/>
	<path class="st147" d="M67.3,22.6c0.9,1.5,3,2.2,4.6,1.2c1.7-1,2.1-3.1,1.3-4.6c-0.9-1.5-2.9-2.2-4.6-1.2
		C66.9,19,66.4,21.1,67.3,22.6z"/>
	<path class="st148" d="M67.4,22.6c0.9,1.5,2.9,2.1,4.6,1.2c1.7-1,2.1-3.1,1.2-4.6c-0.9-1.5-2.9-2.2-4.6-1.2
		C67,19,66.5,21.1,67.4,22.6z"/>
	<path class="st148" d="M67.4,22.6c0.9,1.5,2.9,2.1,4.5,1.2c1.6-0.9,2.1-3,1.2-4.5c-0.9-1.5-2.9-2.1-4.5-1.2
		C67,19,66.6,21.1,67.4,22.6L67.4,22.6z"/>
	<path class="st149" d="M67.5,22.5c0.8,1.5,2.8,2.1,4.4,1.2c1.6-0.9,2.1-3,1.2-4.4c-0.8-1.5-2.8-2.1-4.4-1.2
		C67.1,19,66.6,21.1,67.5,22.5z"/>
	<path class="st149" d="M67.5,22.5c0.8,1.4,2.8,2.1,4.4,1.2c1.6-0.9,2-2.9,1.2-4.4c-0.8-1.4-2.8-2.1-4.4-1.2
		C67.1,19,66.7,21,67.5,22.5z"/>
	<path class="st150" d="M67.5,22.4c0.8,1.4,2.8,2,4.3,1.1c1.6-0.9,2-2.9,1.2-4.3c-0.8-1.4-2.8-2-4.3-1.1C67.2,19,66.7,21,67.5,22.4z
		"/>
	<path class="st150" d="M67.6,22.4c0.8,1.4,2.7,2,4.3,1.1c1.6-0.9,2-2.9,1.2-4.3c-0.8-1.4-2.7-2-4.3-1.1C67.2,19,66.8,21,67.6,22.4z
		"/>
	<path class="st150" d="M67.6,22.3c0.8,1.4,2.7,2,4.2,1.1c1.5-0.9,2-2.8,1.2-4.2c-0.8-1.4-2.7-2-4.2-1.1C67.3,19,66.8,21,67.6,22.3
		L67.6,22.3z"/>
	<path class="st151" d="M67.7,22.3c0.8,1.4,2.7,2,4.2,1.1c1.5-0.9,1.9-2.8,1.1-4.2c-0.8-1.4-2.7-2-4.2-1.1
		C67.3,19,66.9,20.9,67.7,22.3z"/>
	<path class="st152" d="M67.7,22.3c0.8,1.4,2.6,1.9,4.1,1.1c1.5-0.9,1.9-2.7,1.1-4.1c-0.8-1.4-2.6-1.9-4.1-1.1
		C67.4,19,66.9,20.9,67.7,22.3z"/>
	<path class="st152" d="M67.8,22.2c0.8,1.3,2.6,1.9,4,1.1c1.5-0.8,1.9-2.7,1.1-4c-0.8-1.3-2.6-1.9-4-1.1C67.4,19,67,20.9,67.8,22.2z
		"/>
	<path class="st153" d="M67.8,22.2c0.8,1.3,2.6,1.9,4,1c1.4-0.8,1.8-2.7,1.1-4c-0.8-1.3-2.5-1.9-4-1C67.5,19,67.1,20.9,67.8,22.2z"
		/>
	<path class="st154" d="M67.9,22.1c0.7,1.3,2.5,1.9,3.9,1c1.4-0.8,1.8-2.6,1.1-3.9c-0.7-1.3-2.5-1.9-3.9-1
		C67.5,19,67.1,20.8,67.9,22.1z"/>
	<path class="st155" d="M67.9,22.1c0.7,1.3,2.5,1.8,3.9,1c1.4-0.8,1.8-2.6,1.1-3.9c-0.7-1.3-2.5-1.8-3.9-1
		C67.6,19,67.2,20.8,67.9,22.1z"/>
	<path class="st155" d="M67.9,22.1c0.7,1.3,2.4,1.8,3.8,1c1.4-0.8,1.8-2.6,1-3.8c-0.7-1.3-2.4-1.8-3.8-1
		C67.6,19,67.2,20.8,67.9,22.1L67.9,22.1z"/>
	<path class="st156" d="M68,22c0.7,1.2,2.4,1.8,3.8,1c1.4-0.8,1.7-2.5,1-3.8c-0.7-1.2-2.4-1.8-3.8-1C67.7,19,67.3,20.8,68,22z"/>
	<path class="st157" d="M68,22c0.7,1.2,2.4,1.7,3.7,1c1.3-0.8,1.7-2.5,1-3.7c-0.7-1.2-2.4-1.7-3.7-1C67.7,19,67.3,20.8,68,22z"/>
	<path class="st157" d="M68.1,21.9c0.7,1.2,2.3,1.7,3.6,1c1.3-0.8,1.7-2.4,1-3.6c-0.7-1.2-2.3-1.7-3.6-1
		C67.8,19.1,67.4,20.7,68.1,21.9z"/>
	<path class="st158" d="M68.1,21.9c0.7,1.2,2.3,1.7,3.6,0.9c1.3-0.8,1.7-2.4,1-3.6c-0.7-1.2-2.3-1.7-3.6-0.9
		C67.8,19.1,67.4,20.7,68.1,21.9z"/>
	<path class="st158" d="M69.1,18.3c-1.3,0.7-1.6,2.4-1,3.5c0.7,1.2,2.3,1.7,3.5,0.9c1.3-0.7,1.6-2.4,1-3.5
		C72,18.1,70.4,17.6,69.1,18.3z"/>
</g>
</svg>
