<?xml version="1.0" encoding="utf-8"?>
<!-- Generator: Adobe Illustrator 19.2.0, SVG Export Plug-In . SVG Version: 6.00 Build 0)  -->
<svg version="1.1" id="Layer_1" xmlns="http://www.w3.org/2000/svg" xmlns:xlink="http://www.w3.org/1999/xlink" x="0px" y="0px"
	 viewBox="0 0 276.9 54.7" style="enable-background:new 0 0 276.9 54.7;" xml:space="preserve">
<style type="text/css">
	.st0{fill:#FFFFFF;}
	.st1{clip-path:url(#SVGID_2_);}
	.st2{clip-path:url(#SVGID_6_);}
	.st3{fill:#54B948;}
	.st4{fill:#ED174F;}
	.st5{fill-rule:evenodd;clip-rule:evenodd;fill:#214A7F;}
	.st6{fill-rule:evenodd;clip-rule:evenodd;fill:#006C45;}
	.st7{fill-rule:evenodd;clip-rule:evenodd;fill:#006C46;}
	.st8{fill-rule:evenodd;clip-rule:evenodd;fill:#006E47;}
	.st9{fill-rule:evenodd;clip-rule:evenodd;fill:#006E48;}
	.st10{fill-rule:evenodd;clip-rule:evenodd;fill:#006E49;}
	.st11{fill-rule:evenodd;clip-rule:evenodd;fill:#00704A;}
	.st12{fill-rule:evenodd;clip-rule:evenodd;fill:#00704B;}
	.st13{fill-rule:evenodd;clip-rule:evenodd;fill:#00724D;}
	.st14{fill-rule:evenodd;clip-rule:evenodd;fill:#00724E;}
	.st15{fill-rule:evenodd;clip-rule:evenodd;fill:#00734E;}
	.st16{fill-rule:evenodd;clip-rule:evenodd;fill:#007450;}
	.st17{fill-rule:evenodd;clip-rule:evenodd;fill:#007551;}
	.st18{fill-rule:evenodd;clip-rule:evenodd;fill:#007652;}
	.st19{fill-rule:evenodd;clip-rule:evenodd;fill:#007653;}
	.st20{fill-rule:evenodd;clip-rule:evenodd;fill:#007753;}
	.st21{fill-rule:evenodd;clip-rule:evenodd;fill:#007755;}
	.st22{fill-rule:evenodd;clip-rule:evenodd;fill:#007956;}
	.st23{fill-rule:evenodd;clip-rule:evenodd;fill:#007957;}
	.st24{fill-rule:evenodd;clip-rule:evenodd;fill:#007B58;}
	.st25{fill-rule:evenodd;clip-rule:evenodd;fill:#007B59;}
	.st26{fill-rule:evenodd;clip-rule:evenodd;fill:#007B5A;}
	.st27{fill-rule:evenodd;clip-rule:evenodd;fill:#007C5A;}
	.st28{fill-rule:evenodd;clip-rule:evenodd;fill:#007D5C;}
	.st29{fill-rule:evenodd;clip-rule:evenodd;fill:#007D5D;}
	.st30{fill-rule:evenodd;clip-rule:evenodd;fill:#007F5E;}
	.st31{fill-rule:evenodd;clip-rule:evenodd;fill:#00805F;}
	.st32{fill-rule:evenodd;clip-rule:evenodd;fill:#008061;}
	.st33{fill-rule:evenodd;clip-rule:evenodd;fill:#008262;}
	.st34{fill-rule:evenodd;clip-rule:evenodd;fill:#008263;}
	.st35{fill-rule:evenodd;clip-rule:evenodd;fill:#008363;}
	.st36{fill-rule:evenodd;clip-rule:evenodd;fill:#008364;}
	.st37{fill-rule:evenodd;clip-rule:evenodd;fill:#008465;}
	.st38{fill-rule:evenodd;clip-rule:evenodd;fill:#058566;}
	.st39{fill-rule:evenodd;clip-rule:evenodd;fill:#068667;}
	.st40{fill-rule:evenodd;clip-rule:evenodd;fill:#108769;}
	.st41{fill-rule:evenodd;clip-rule:evenodd;fill:#17876A;}
	.st42{fill-rule:evenodd;clip-rule:evenodd;fill:#1E886A;}
	.st43{fill-rule:evenodd;clip-rule:evenodd;fill:#1E896C;}
	.st44{fill-rule:evenodd;clip-rule:evenodd;fill:#238A6C;}
	.st45{fill-rule:evenodd;clip-rule:evenodd;fill:#238A6D;}
	.st46{fill-rule:evenodd;clip-rule:evenodd;fill:#288C6E;}
	.st47{fill-rule:evenodd;clip-rule:evenodd;fill:#2C8D70;}
	.st48{fill-rule:evenodd;clip-rule:evenodd;fill:#308D70;}
	.st49{fill-rule:evenodd;clip-rule:evenodd;fill:#2F8D71;}
	.st50{fill-rule:evenodd;clip-rule:evenodd;fill:#348F72;}
	.st51{fill-rule:evenodd;clip-rule:evenodd;fill:#338F73;}
	.st52{fill-rule:evenodd;clip-rule:evenodd;fill:#379073;}
	.st53{fill-rule:evenodd;clip-rule:evenodd;fill:#389174;}
	.st54{fill-rule:evenodd;clip-rule:evenodd;fill:#3B9276;}
	.st55{fill-rule:evenodd;clip-rule:evenodd;fill:#3E9277;}
	.st56{fill-rule:evenodd;clip-rule:evenodd;fill:#429478;}
	.st57{fill-rule:evenodd;clip-rule:evenodd;fill:#419579;}
	.st58{fill-rule:evenodd;clip-rule:evenodd;fill:#449579;}
	.st59{fill-rule:evenodd;clip-rule:evenodd;fill:#44957B;}
	.st60{fill-rule:evenodd;clip-rule:evenodd;fill:#48977C;}
	.st61{fill-rule:evenodd;clip-rule:evenodd;fill:#4A987D;}
	.st62{fill-rule:evenodd;clip-rule:evenodd;fill:#4A987F;}
	.st63{fill-rule:evenodd;clip-rule:evenodd;fill:#4D987F;}
	.st64{fill-rule:evenodd;clip-rule:evenodd;fill:#4E9A80;}
	.st65{fill-rule:evenodd;clip-rule:evenodd;fill:#519B80;}
	.st66{fill-rule:evenodd;clip-rule:evenodd;fill:#509B81;}
	.st67{fill-rule:evenodd;clip-rule:evenodd;fill:#539B81;}
	.st68{fill-rule:evenodd;clip-rule:evenodd;fill:#549D84;}
	.st69{fill-rule:evenodd;clip-rule:evenodd;fill:#569D84;}
	.st70{fill-rule:evenodd;clip-rule:evenodd;fill:#599E85;}
	.st71{fill-rule:evenodd;clip-rule:evenodd;fill:#5CA088;}
	.st72{fill-rule:evenodd;clip-rule:evenodd;fill:#5EA188;}
	.st73{fill-rule:evenodd;clip-rule:evenodd;fill:#5EA189;}
	.st74{fill-rule:evenodd;clip-rule:evenodd;fill:#60A289;}
	.st75{fill-rule:evenodd;clip-rule:evenodd;fill:#61A38B;}
	.st76{fill-rule:evenodd;clip-rule:evenodd;fill:#64A48C;}
	.st77{fill-rule:evenodd;clip-rule:evenodd;fill:#63A48E;}
	.st78{fill-rule:evenodd;clip-rule:evenodd;fill:#66A58E;}
	.st79{fill-rule:evenodd;clip-rule:evenodd;fill:#67A68F;}
	.st80{fill-rule:evenodd;clip-rule:evenodd;fill:#69A78F;}
	.st81{fill-rule:evenodd;clip-rule:evenodd;fill:#69A790;}
	.st82{fill-rule:evenodd;clip-rule:evenodd;fill:#6BA892;}
	.st83{fill-rule:evenodd;clip-rule:evenodd;fill:#6FAA93;}
	.st84{fill-rule:evenodd;clip-rule:evenodd;fill:#6EAA95;}
	.st85{fill-rule:evenodd;clip-rule:evenodd;fill:#71AB95;}
	.st86{fill-rule:evenodd;clip-rule:evenodd;fill:#74AD98;}
	.st87{fill-rule:evenodd;clip-rule:evenodd;fill:#76AE99;}
	.st88{fill-rule:evenodd;clip-rule:evenodd;fill:#79AE99;}
	.st89{fill-rule:evenodd;clip-rule:evenodd;fill:#7AB09C;}
	.st90{fill-rule:evenodd;clip-rule:evenodd;fill:#7CB19C;}
	.st91{fill-rule:evenodd;clip-rule:evenodd;fill:#7CB19E;}
	.st92{fill-rule:evenodd;clip-rule:evenodd;fill:#7FB39F;}
	.st93{fill-rule:evenodd;clip-rule:evenodd;fill:#82B49F;}
	.st94{fill-rule:evenodd;clip-rule:evenodd;fill:#81B4A1;}
	.st95{fill-rule:evenodd;clip-rule:evenodd;fill:#84B5A3;}
	.st96{fill-rule:evenodd;clip-rule:evenodd;fill:#87B7A4;}
	.st97{fill-rule:evenodd;clip-rule:evenodd;fill:#87B7A6;}
	.st98{fill-rule:evenodd;clip-rule:evenodd;fill:#89B8A6;}
	.st99{fill-rule:evenodd;clip-rule:evenodd;fill:#8ABAA9;}
	.st100{fill-rule:evenodd;clip-rule:evenodd;fill:#8DBBA9;}
	.st101{fill-rule:evenodd;clip-rule:evenodd;fill:#8FBBAA;}
	.st102{fill-rule:evenodd;clip-rule:evenodd;fill:#92BEAD;}
	.st103{fill-rule:evenodd;clip-rule:evenodd;fill:#95BFAE;}
	.st104{fill-rule:evenodd;clip-rule:evenodd;fill:#95BFAF;}
	.st105{fill-rule:evenodd;clip-rule:evenodd;fill:#97C0AF;}
	.st106{fill-rule:evenodd;clip-rule:evenodd;fill:#97C0B1;}
	.st107{fill-rule:evenodd;clip-rule:evenodd;fill:#9AC2B2;}
	.st108{fill-rule:evenodd;clip-rule:evenodd;fill:#9DC3B4;}
	.st109{fill-rule:evenodd;clip-rule:evenodd;fill:#9EC5B6;}
	.st110{fill-rule:evenodd;clip-rule:evenodd;fill:#A0C6B6;}
	.st111{fill-rule:evenodd;clip-rule:evenodd;fill:#A0C6B7;}
	.st112{fill-rule:evenodd;clip-rule:evenodd;fill:#A2C7B7;}
	.st113{fill-rule:evenodd;clip-rule:evenodd;fill:#A2C7B9;}
	.st114{fill-rule:evenodd;clip-rule:evenodd;fill:#A5C7B9;}
	.st115{fill-rule:evenodd;clip-rule:evenodd;fill:#A6C9BA;}
	.st116{fill-rule:evenodd;clip-rule:evenodd;fill:#A8CABC;}
	.st117{fill-rule:evenodd;clip-rule:evenodd;fill:#ACCDBF;}
	.st118{fill-rule:evenodd;clip-rule:evenodd;fill:#AECEC1;}
	.st119{fill-rule:evenodd;clip-rule:evenodd;fill:#B2D0C4;}
	.st120{fill-rule:evenodd;clip-rule:evenodd;fill:#B4D1C5;}
	.st121{fill-rule:evenodd;clip-rule:evenodd;fill:#B4D1C6;}
	.st122{fill-rule:evenodd;clip-rule:evenodd;fill:#B8D4C8;}
	.st123{fill-rule:evenodd;clip-rule:evenodd;fill:#B8D4CA;}
	.st124{fill-rule:evenodd;clip-rule:evenodd;fill:#BAD5CA;}
	.st125{fill-rule:evenodd;clip-rule:evenodd;fill:#BCD6CB;}
	.st126{fill-rule:evenodd;clip-rule:evenodd;fill:#BED8CD;}
	.st127{fill-rule:evenodd;clip-rule:evenodd;fill:#C0D9CD;}
	.st128{fill-rule:evenodd;clip-rule:evenodd;fill:#C0D9CF;}
	.st129{fill-rule:evenodd;clip-rule:evenodd;fill:#C2DACF;}
	.st130{fill-rule:evenodd;clip-rule:evenodd;fill:#C4DBD2;}
	.st131{fill-rule:evenodd;clip-rule:evenodd;fill:#C6DCD2;}
	.st132{fill-rule:evenodd;clip-rule:evenodd;fill:#C8DDD4;}
	.st133{fill-rule:evenodd;clip-rule:evenodd;fill:#C8DDD6;}
	.st134{fill-rule:evenodd;clip-rule:evenodd;fill:#CCE0D8;}
	.st135{fill-rule:evenodd;clip-rule:evenodd;fill:#CFE1D8;}
	.st136{fill-rule:evenodd;clip-rule:evenodd;fill:#CEE1DA;}
	.st137{fill-rule:evenodd;clip-rule:evenodd;fill:#D0E3DB;}
	.st138{fill-rule:evenodd;clip-rule:evenodd;fill:#D3E4DC;}
	.st139{fill-rule:evenodd;clip-rule:evenodd;fill:#D3E4DD;}
	.st140{fill-rule:evenodd;clip-rule:evenodd;fill:#D5E5DE;}
	.st141{fill-rule:evenodd;clip-rule:evenodd;fill:#D5E5DF;}
	.st142{fill-rule:evenodd;clip-rule:evenodd;fill:#D7E6DF;}
	.st143{fill-rule:evenodd;clip-rule:evenodd;fill:#D9E8E1;}
	.st144{fill-rule:evenodd;clip-rule:evenodd;fill:#DCE9E3;}
	.st145{fill-rule:evenodd;clip-rule:evenodd;fill:#DEEAE3;}
	.st146{fill-rule:evenodd;clip-rule:evenodd;fill:#DEEAE5;}
	.st147{fill-rule:evenodd;clip-rule:evenodd;fill:#E2EDE7;}
	.st148{fill-rule:evenodd;clip-rule:evenodd;fill:#E2EDE9;}
	.st149{fill-rule:evenodd;clip-rule:evenodd;fill:#E5EEE9;}
	.st150{fill-rule:evenodd;clip-rule:evenodd;fill:#E9F1ED;}
	.st151{fill-rule:evenodd;clip-rule:evenodd;fill:#ECF2ED;}
	.st152{fill-rule:evenodd;clip-rule:evenodd;fill:#ECF3EF;}
	.st153{fill-rule:evenodd;clip-rule:evenodd;fill:#EEF4F2;}
	.st154{fill-rule:evenodd;clip-rule:evenodd;fill:#F1F7F4;}
	.st155{fill-rule:evenodd;clip-rule:evenodd;fill:#F4F8F5;}
	.st156{fill-rule:evenodd;clip-rule:evenodd;fill:#F4F8F7;}
	.st157{fill-rule:evenodd;clip-rule:evenodd;fill:#FBFDFB;}
	.st158{fill-rule:evenodd;clip-rule:evenodd;fill:#FFFFFF;}
	.st159{fill-rule:evenodd;clip-rule:evenodd;fill:#303D8F;}
	.st160{fill-rule:evenodd;clip-rule:evenodd;fill:#535C5F;}
	.st161{fill-rule:evenodd;clip-rule:evenodd;fill:#EF7E2A;}
	.st162{fill-rule:evenodd;clip-rule:evenodd;fill:#E8262B;}
	.st163{fill-rule:evenodd;clip-rule:evenodd;fill:#D02731;}
	.st164{fill:none;stroke:#FFFFFF;stroke-width:0.216;stroke-miterlimit:22.9256;}
	.st165{fill-rule:evenodd;clip-rule:evenodd;fill:#2C2825;}
	.st166{clip-path:url(#SVGID_10_);}
	.st167{clip-path:url(#SVGID_14_);fill:url(#SVGID_15_);}
	.st168{clip-path:url(#SVGID_17_);fill:url(#SVGID_18_);}
	.st169{clip-path:url(#SVGID_20_);fill:url(#SVGID_21_);}
	.st170{clip-path:url(#SVGID_23_);fill:url(#SVGID_24_);}
	.st171{clip-path:url(#SVGID_26_);fill:url(#SVGID_27_);}
	.st172{fill:#626D76;}
	.st173{fill:#879AA4;}
	.st174{fill:#8F9DA5;}
	.st175{clip-path:url(#SVGID_29_);fill:url(#SVGID_30_);}
	.st176{clip-path:url(#SVGID_32_);fill:url(#SVGID_33_);}
	.st177{fill:#B5BEC4;}
	.st178{clip-path:url(#SVGID_35_);fill:url(#SVGID_36_);}
	.st179{fill:#505A62;}
	.st180{clip-path:url(#SVGID_38_);fill:url(#SVGID_39_);}
	.st181{clip-path:url(#SVGID_41_);fill:url(#SVGID_42_);}
	.st182{clip-path:url(#SVGID_44_);fill:url(#SVGID_45_);}
	.st183{clip-path:url(#SVGID_47_);}
	.st184{clip-path:url(#SVGID_51_);}
	.st185{fill:#706F6E;}
	.st186{fill-rule:evenodd;clip-rule:evenodd;}
	.st187{fill:#293033;}
	.st188{fill:#A6CA3C;}
	.st189{fill:#19181D;}
	.st190{fill-rule:evenodd;clip-rule:evenodd;fill:#F6B128;}
	.st191{fill:#F6B128;}
	.st192{fill:#2C2D2D;}
	.st193{fill-rule:evenodd;clip-rule:evenodd;fill:#007FC3;}
</style>
<g>
	<path class="st163" d="M16.6,43c2.2,0,4.4-0.5,6.3-1.3V30.1h-1.7v-2.4h1.6v-5.8h2.6v18.4c4.3-2.8,7.1-7.6,7.1-13
		c0-7.7-5.7-14.1-13.2-15.4c-2.3,2-3.5,4.3-3.5,7c-0.3,3.8,3.9,6.4,3.7,10.6c0.1,3.6-1.2,6.4-3.9,8.3l-1.4-2.2c2-1.8,3.1-3.7,3-5.9
		c0.1-3.6-3.7-5.6-3.9-10.8c0.2-2.8,0.9-5.3,2.8-7.4C7.5,12.1,0.7,18.9,0.7,27.4c0,5.4,2.8,10.2,7.1,13V21.9h2.6v5.8h3.1v2.4h-3.2
		v11.6C12.3,42.5,14.4,43,16.6,43z"/>
	<path class="st164" d="M16.6,43c2.2,0,4.4-0.5,6.3-1.3V30.1h-1.7v-2.4h1.6v-5.8h2.6v18.4c4.3-2.8,7.1-7.6,7.1-13
		c0-7.7-5.7-14.1-13.2-15.4c-2.3,2-3.5,4.3-3.5,7c-0.3,3.8,3.9,6.4,3.7,10.6c0.1,3.6-1.2,6.4-3.9,8.3l-1.4-2.2c2-1.8,3.1-3.7,3-5.9
		c0.1-3.6-3.7-5.6-3.9-10.8c0.2-2.8,0.9-5.3,2.8-7.4C7.5,12.1,0.7,18.9,0.7,27.4c0,5.4,2.8,10.2,7.1,13V21.9h2.6v5.8h3.1v2.4h-3.2
		v11.6C12.3,42.5,14.4,43,16.6,43z"/>
	<polygon class="st165" points="37.7,22.6 40.5,22.6 40.5,25.8 43.6,25.8 43.6,22.6 46.5,22.6 46.5,31.7 43.6,31.7 43.6,28 40.5,28 
		40.5,31.7 37.7,31.7 	"/>
	<polygon class="st165" points="48.4,22.6 56,22.6 56,24.5 51.2,24.5 51.2,26 55.6,26 55.6,27.8 51.2,27.8 51.2,29.6 56.1,29.6 
		56.1,31.7 48.4,31.7 	"/>
	<polygon class="st165" points="57.6,22.6 65.2,22.6 65.2,24.5 60.5,24.5 60.5,26 64.9,26 64.9,27.8 60.5,27.8 60.5,29.6 65.4,29.6 
		65.4,31.7 57.6,31.7 	"/>
	<path class="st165" d="M66.4,28.7l2.7-0.2c0.1,0.4,0.2,0.8,0.4,1c0.3,0.4,0.7,0.6,1.3,0.6c0.4,0,0.7-0.1,0.9-0.3
		c0.2-0.2,0.3-0.4,0.3-0.7c0-0.2-0.1-0.4-0.3-0.6c-0.2-0.2-0.7-0.4-1.5-0.5c-1.2-0.3-2.1-0.6-2.7-1.1c-0.5-0.5-0.8-1-0.8-1.8
		c0-0.5,0.1-0.9,0.4-1.3c0.3-0.4,0.7-0.7,1.2-1c0.5-0.2,1.3-0.4,2.3-0.4c1.2,0,2.1,0.2,2.7,0.7c0.6,0.4,1,1.1,1.1,2.1l-2.7,0.2
		c-0.1-0.4-0.2-0.7-0.4-0.9c-0.2-0.2-0.5-0.3-0.9-0.3c-0.3,0-0.6,0.1-0.7,0.2c-0.2,0.1-0.3,0.3-0.3,0.5c0,0.1,0.1,0.3,0.2,0.4
		c0.1,0.1,0.5,0.2,1,0.3c1.2,0.3,2.1,0.5,2.7,0.8c0.5,0.3,0.9,0.6,1.2,1c0.2,0.4,0.4,0.9,0.4,1.4c0,0.6-0.2,1.1-0.5,1.6
		c-0.3,0.5-0.8,0.9-1.4,1.1c-0.6,0.3-1.3,0.4-2.2,0.4c-1.6,0-2.6-0.3-3.2-0.9C66.8,30.4,66.5,29.6,66.4,28.7"/>
	<path class="st165" d="M82.1,22.6H85V28c0,0.5-0.1,1-0.3,1.5c-0.2,0.5-0.4,0.9-0.8,1.3c-0.4,0.4-0.7,0.6-1.1,0.8
		c-0.6,0.2-1.2,0.3-2,0.3c-0.4,0-0.9,0-1.5-0.1c-0.5-0.1-1-0.2-1.3-0.4c-0.4-0.2-0.7-0.4-1-0.8c-0.3-0.3-0.5-0.7-0.6-1.1
		c-0.2-0.6-0.3-1.1-0.3-1.5v-5.4H79v5.6c0,0.5,0.1,0.9,0.4,1.2c0.3,0.3,0.7,0.4,1.2,0.4c0.5,0,0.9-0.1,1.2-0.4
		c0.3-0.3,0.4-0.7,0.4-1.2V22.6z"/>
	<polygon class="st165" points="86.9,22.6 89.5,22.6 93,27.6 93,22.6 95.6,22.6 95.6,31.7 93,31.7 89.5,26.7 89.5,31.7 86.9,31.7 	
		"/>
	<path class="st165" d="M102.1,28.4v-1.9h4.4v3.9c-0.8,0.6-1.6,1-2.2,1.2c-0.6,0.2-1.4,0.3-2.3,0.3c-1.1,0-2-0.2-2.7-0.6
		c-0.7-0.4-1.2-0.9-1.6-1.7c-0.4-0.7-0.6-1.6-0.6-2.5c0-1,0.2-1.9,0.6-2.6c0.4-0.7,1-1.3,1.8-1.7c0.6-0.3,1.5-0.4,2.5-0.4
		c1,0,1.8,0.1,2.3,0.3c0.5,0.2,0.9,0.5,1.3,0.9c0.3,0.4,0.6,0.9,0.7,1.5l-2.7,0.5c-0.1-0.3-0.3-0.6-0.6-0.8c-0.3-0.2-0.6-0.3-1-0.3
		c-0.6,0-1.1,0.2-1.5,0.6c-0.4,0.4-0.6,1.1-0.6,2c0,1,0.2,1.7,0.6,2.1c0.4,0.4,0.9,0.6,1.6,0.6c0.3,0,0.6,0,0.9-0.1
		c0.3-0.1,0.6-0.2,1-0.5v-0.9H102.1z"/>
	<polygon class="st165" points="112.5,22.6 120.1,22.6 120.1,24.5 115.3,24.5 115.3,26 119.7,26 119.7,27.8 115.3,27.8 115.3,29.6 
		120.2,29.6 120.2,31.7 112.5,31.7 	"/>
	<polygon class="st165" points="121.7,22.6 124.6,22.6 124.6,29.5 129,29.5 129,31.7 121.7,31.7 	"/>
	<polygon class="st165" points="130.3,22.6 137.9,22.6 137.9,24.5 133.1,24.5 133.1,26 137.6,26 137.6,27.8 133.1,27.8 133.1,29.6 
		138,29.6 138,31.7 130.3,31.7 	"/>
	<path class="st165" d="M145.7,28l2.5,0.7c-0.2,0.7-0.4,1.3-0.8,1.7c-0.4,0.5-0.8,0.8-1.3,1.1c-0.5,0.2-1.2,0.4-2,0.4
		c-1,0-1.8-0.1-2.4-0.4c-0.6-0.3-1.2-0.8-1.6-1.5c-0.5-0.7-0.7-1.7-0.7-2.8c0-1.5,0.4-2.7,1.2-3.5c0.8-0.8,2-1.2,3.4-1.2
		c1.2,0,2.1,0.2,2.7,0.7c0.7,0.5,1.2,1.2,1.5,2.1l-2.5,0.6c-0.1-0.3-0.2-0.5-0.3-0.6c-0.2-0.2-0.4-0.4-0.6-0.5
		c-0.2-0.1-0.5-0.2-0.8-0.2c-0.6,0-1.1,0.3-1.5,0.8c-0.3,0.4-0.4,1-0.4,1.8c0,1,0.2,1.7,0.5,2.1c0.3,0.4,0.7,0.6,1.3,0.6
		c0.5,0,1-0.2,1.2-0.5C145.4,29,145.6,28.5,145.7,28"/>
	<polygon class="st165" points="148.9,22.6 157.5,22.6 157.5,24.8 154.6,24.8 154.6,31.7 151.8,31.7 151.8,24.8 148.9,24.8 	"/>
	<path class="st165" d="M161.7,26.3h1.2c0.1,0,0.4,0,0.8-0.1c0.2,0,0.3-0.1,0.5-0.3c0.1-0.2,0.2-0.3,0.2-0.5c0-0.3-0.1-0.5-0.3-0.7
		c-0.2-0.2-0.5-0.2-1.1-0.2h-1.2V26.3z M158.8,31.7v-9.1h4.7c0.9,0,1.5,0.1,2,0.2c0.5,0.1,0.8,0.4,1.1,0.8c0.3,0.4,0.4,0.9,0.4,1.5
		c0,0.5-0.1,0.9-0.3,1.3c-0.2,0.4-0.5,0.7-0.9,0.9c-0.2,0.1-0.6,0.3-1,0.4c0.3,0.1,0.6,0.2,0.7,0.3c0.1,0.1,0.3,0.2,0.5,0.5
		c0.2,0.2,0.3,0.4,0.4,0.6l1.4,2.6h-3.2l-1.5-2.8c-0.2-0.4-0.4-0.6-0.5-0.7c-0.2-0.1-0.4-0.2-0.7-0.2h-0.2v3.7H158.8z"/>
	<path class="st165" d="M171,27.2c0,0.9,0.2,1.6,0.5,2c0.3,0.4,0.8,0.6,1.4,0.6c0.6,0,1.1-0.2,1.4-0.6c0.3-0.4,0.5-1.1,0.5-2.1
		c0-0.9-0.2-1.5-0.5-1.9c-0.3-0.4-0.8-0.6-1.4-0.6c-0.6,0-1,0.2-1.4,0.6C171.2,25.6,171,26.2,171,27.2 M168.2,27.1
		c0-1.5,0.4-2.7,1.3-3.5c0.8-0.8,2-1.2,3.5-1.2c1.5,0,2.7,0.4,3.5,1.2c0.8,0.8,1.2,2,1.2,3.4c0,1.1-0.2,1.9-0.5,2.6
		c-0.4,0.7-0.9,1.2-1.6,1.6c-0.7,0.4-1.5,0.6-2.6,0.6c-1,0-1.9-0.2-2.6-0.5c-0.7-0.3-1.2-0.8-1.7-1.6
		C168.4,29.1,168.2,28.2,168.2,27.1z"/>
	<polygon class="st165" points="179.3,22.6 181.9,22.6 185.4,27.6 185.4,22.6 188.1,22.6 188.1,31.7 185.4,31.7 181.9,26.7 
		181.9,31.7 179.3,31.7 	"/>
	<rect x="190" y="22.6" class="st165" width="2.8" height="9.1"/>
	<path class="st165" d="M201,28l2.5,0.7c-0.2,0.7-0.4,1.3-0.8,1.7c-0.4,0.5-0.8,0.8-1.3,1.1c-0.5,0.2-1.2,0.4-2,0.4
		c-1,0-1.8-0.1-2.4-0.4c-0.6-0.3-1.2-0.8-1.6-1.5c-0.5-0.7-0.7-1.7-0.7-2.8c0-1.5,0.4-2.7,1.2-3.5c0.8-0.8,2-1.2,3.4-1.2
		c1.2,0,2.1,0.2,2.7,0.7c0.7,0.5,1.2,1.2,1.5,2.1l-2.5,0.6c-0.1-0.3-0.2-0.5-0.3-0.6c-0.2-0.2-0.4-0.4-0.6-0.5
		c-0.2-0.1-0.5-0.2-0.8-0.2c-0.6,0-1.1,0.3-1.5,0.8c-0.3,0.4-0.4,1-0.4,1.8c0,1,0.2,1.7,0.5,2.1c0.3,0.4,0.7,0.6,1.3,0.6
		c0.5,0,1-0.2,1.2-0.5C200.7,29,200.9,28.5,201,28"/>
	<path class="st165" d="M204.4,28.7l2.7-0.2c0.1,0.4,0.2,0.8,0.4,1c0.3,0.4,0.7,0.6,1.3,0.6c0.4,0,0.7-0.1,0.9-0.3
		c0.2-0.2,0.3-0.4,0.3-0.7c0-0.2-0.1-0.4-0.3-0.6c-0.2-0.2-0.7-0.4-1.5-0.5c-1.2-0.3-2.1-0.6-2.7-1.1c-0.5-0.5-0.8-1-0.8-1.8
		c0-0.5,0.1-0.9,0.4-1.3c0.3-0.4,0.7-0.7,1.2-1c0.5-0.2,1.3-0.4,2.3-0.4c1.2,0,2.1,0.2,2.7,0.7c0.6,0.4,1,1.1,1.1,2.1l-2.7,0.2
		c-0.1-0.4-0.2-0.7-0.4-0.9c-0.2-0.2-0.5-0.3-0.9-0.3c-0.3,0-0.6,0.1-0.7,0.2c-0.2,0.1-0.2,0.3-0.2,0.5c0,0.1,0.1,0.3,0.2,0.4
		c0.1,0.1,0.5,0.2,1,0.3c1.2,0.3,2.1,0.5,2.7,0.8c0.5,0.3,0.9,0.6,1.2,1c0.2,0.4,0.4,0.9,0.4,1.4c0,0.6-0.2,1.1-0.5,1.6
		c-0.3,0.5-0.8,0.9-1.4,1.1c-0.6,0.3-1.3,0.4-2.2,0.4c-1.6,0-2.6-0.3-3.2-0.9C204.8,30.4,204.5,29.6,204.4,28.7"/>
	<path class="st165" d="M221.3,26.5h0.7c0.5,0,0.9-0.1,1.2-0.3c0.2-0.2,0.3-0.4,0.3-0.7c0-0.3-0.1-0.5-0.3-0.7
		c-0.2-0.2-0.6-0.3-1.1-0.3h-0.8V26.5z M218.4,22.6h4.7c1,0,1.8,0.2,2.3,0.7c0.5,0.5,0.8,1.2,0.8,2.1c0,0.9-0.3,1.6-0.8,2.2
		c-0.6,0.5-1.4,0.8-2.6,0.8h-1.6v3.4h-2.8V22.6z"/>
	<path class="st165" d="M230.2,27.2c0,0.9,0.2,1.6,0.5,2c0.3,0.4,0.8,0.6,1.4,0.6c0.6,0,1.1-0.2,1.4-0.6c0.3-0.4,0.5-1.1,0.5-2.1
		c0-0.9-0.2-1.5-0.5-1.9c-0.3-0.4-0.8-0.6-1.4-0.6c-0.6,0-1,0.2-1.4,0.6C230.4,25.6,230.2,26.2,230.2,27.2 M227.4,27.1
		c0-1.5,0.4-2.7,1.3-3.5c0.8-0.8,2-1.2,3.5-1.2c1.5,0,2.7,0.4,3.5,1.2c0.8,0.8,1.2,2,1.2,3.4c0,1.1-0.2,1.9-0.5,2.6
		c-0.4,0.7-0.9,1.2-1.6,1.6c-0.7,0.4-1.5,0.6-2.6,0.6c-1,0-1.9-0.2-2.6-0.5c-0.7-0.3-1.2-0.8-1.7-1.6
		C227.6,29.1,227.4,28.2,227.4,27.1z"/>
	<polygon class="st165" points="238.4,22.6 241.2,22.6 241.2,29.5 245.7,29.5 245.7,31.7 238.4,31.7 	"/>
	<path class="st165" d="M252,28.2l-1-3.3l-1,3.3H252z M252.6,30.2h-3.2l-0.4,1.5H246l3.5-9.1h3.1l3.5,9.1h-3L252.6,30.2z"/>
	<polygon class="st165" points="256.9,22.6 259.6,22.6 263.1,27.6 263.1,22.6 265.7,22.6 265.7,31.7 263.1,31.7 259.6,26.7 
		259.6,31.7 256.9,31.7 	"/>
	<path class="st165" d="M270.5,24.6v5h0.7c0.6,0,1-0.1,1.3-0.2c0.3-0.1,0.4-0.4,0.6-0.7c0.1-0.3,0.2-0.9,0.2-1.6c0-1-0.2-1.6-0.5-2
		c-0.3-0.4-0.8-0.5-1.6-0.5H270.5z M267.7,22.6h4.2c0.8,0,1.5,0.1,2,0.3c0.5,0.2,0.9,0.5,1.3,1c0.3,0.4,0.6,0.9,0.7,1.5
		c0.1,0.6,0.2,1.1,0.2,1.8c0,1-0.1,1.7-0.3,2.3c-0.2,0.5-0.5,1-0.9,1.4c-0.4,0.4-0.8,0.6-1.3,0.7c-0.6,0.2-1.2,0.2-1.7,0.2h-4.2
		V22.6z"/>
	<path class="st165" d="M249.9,38.2l0.6-0.1c0,0.2,0.1,0.4,0.2,0.6c0.1,0.1,0.3,0.3,0.5,0.4c0.2,0.1,0.4,0.1,0.7,0.1
		c0.2,0,0.4,0,0.6-0.1c0.2-0.1,0.3-0.2,0.4-0.3c0.1-0.1,0.1-0.3,0.1-0.4c0-0.1,0-0.3-0.1-0.4c-0.1-0.1-0.2-0.2-0.4-0.3
		c-0.1,0-0.4-0.1-0.8-0.2c-0.4-0.1-0.7-0.2-0.9-0.3c-0.2-0.1-0.4-0.3-0.5-0.4c-0.1-0.2-0.2-0.4-0.2-0.6c0-0.2,0.1-0.4,0.2-0.7
		c0.1-0.2,0.3-0.4,0.6-0.5c0.3-0.1,0.5-0.2,0.8-0.2c0.3,0,0.6,0.1,0.9,0.2c0.3,0.1,0.5,0.3,0.6,0.5c0.1,0.2,0.2,0.5,0.2,0.7l-0.6,0
		c0-0.3-0.1-0.5-0.3-0.7c-0.2-0.1-0.4-0.2-0.8-0.2c-0.4,0-0.6,0.1-0.8,0.2c-0.2,0.1-0.3,0.3-0.3,0.5c0,0.2,0.1,0.3,0.2,0.4
		c0.1,0.1,0.4,0.2,0.9,0.3c0.5,0.1,0.8,0.2,1,0.3c0.3,0.1,0.5,0.3,0.6,0.5c0.1,0.2,0.2,0.4,0.2,0.7c0,0.2-0.1,0.5-0.2,0.7
		c-0.1,0.2-0.3,0.4-0.6,0.5c-0.3,0.1-0.6,0.2-0.9,0.2c-0.4,0-0.8-0.1-1-0.2c-0.3-0.1-0.5-0.3-0.7-0.5
		C250,38.7,249.9,38.5,249.9,38.2"/>
	<path class="st165" d="M254.8,38c0,0.4,0.1,0.7,0.3,1c0.2,0.2,0.4,0.3,0.6,0.3c0.3,0,0.5-0.1,0.6-0.3c0.2-0.2,0.3-0.5,0.3-1
		c0-0.4-0.1-0.7-0.3-1c-0.2-0.2-0.4-0.3-0.6-0.3c-0.2,0-0.5,0.1-0.6,0.3C254.9,37.2,254.8,37.6,254.8,38 M254.3,40.9v-4.6h0.5v0.4
		c0.1-0.2,0.3-0.3,0.4-0.4c0.2-0.1,0.3-0.1,0.6-0.1c0.3,0,0.5,0.1,0.8,0.2c0.2,0.1,0.4,0.4,0.5,0.6c0.1,0.3,0.2,0.6,0.2,0.9
		c0,0.3-0.1,0.6-0.2,0.9c-0.1,0.3-0.3,0.5-0.5,0.6c-0.2,0.1-0.5,0.2-0.7,0.2c-0.2,0-0.4,0-0.5-0.1c-0.2-0.1-0.3-0.2-0.4-0.3v1.6
		H254.3z"/>
	<rect x="258.1" y="39" class="st165" width="0.6" height="0.6"/>
	<path class="st165" d="M261.2,39.6v-0.5l2.1-2.4c-0.2,0-0.5,0-0.6,0h-1.4v-0.5h2.7v0.4l-1.8,2.1l-0.3,0.4c0.3,0,0.5,0,0.7,0h1.5
		v0.5H261.2z"/>
	<path class="st165" d="M266.9,38c0,0.4,0.1,0.7,0.3,1c0.2,0.2,0.4,0.3,0.7,0.3c0.3,0,0.5-0.1,0.7-0.3c0.2-0.2,0.3-0.5,0.3-1
		c0-0.4-0.1-0.7-0.3-0.9c-0.2-0.2-0.4-0.3-0.7-0.3c-0.3,0-0.5,0.1-0.7,0.3C267,37.2,266.9,37.5,266.9,38 M266.3,38
		c0-0.6,0.2-1.1,0.5-1.4c0.3-0.2,0.6-0.4,1-0.4c0.5,0,0.8,0.2,1.1,0.5c0.3,0.3,0.4,0.7,0.4,1.2c0,0.4-0.1,0.8-0.2,1
		c-0.1,0.2-0.3,0.4-0.6,0.6c-0.2,0.1-0.5,0.2-0.8,0.2c-0.5,0-0.8-0.1-1.1-0.4C266.4,39,266.3,38.5,266.3,38z"/>
	<rect x="270.2" y="39" class="st165" width="0.6" height="0.6"/>
	<path class="st165" d="M272.2,38c0,0.4,0.1,0.7,0.3,1c0.2,0.2,0.4,0.3,0.7,0.3c0.3,0,0.5-0.1,0.7-0.3c0.2-0.2,0.3-0.5,0.3-1
		c0-0.4-0.1-0.7-0.3-0.9c-0.2-0.2-0.4-0.3-0.7-0.3c-0.3,0-0.5,0.1-0.7,0.3C272.3,37.2,272.2,37.5,272.2,38 M271.7,38
		c0-0.6,0.2-1.1,0.5-1.4c0.3-0.2,0.6-0.4,1-0.4c0.5,0,0.8,0.2,1.1,0.5c0.3,0.3,0.4,0.7,0.4,1.2c0,0.4-0.1,0.8-0.2,1
		c-0.1,0.2-0.3,0.4-0.6,0.6c-0.2,0.1-0.5,0.2-0.8,0.2c-0.5,0-0.8-0.1-1.1-0.4C271.8,39,271.7,38.5,271.7,38z"/>
	<rect x="275.6" y="39" class="st165" width="0.6" height="0.6"/>
</g>
</svg>
