<?xml version="1.0" encoding="utf-8"?>
<!-- Generator: Adobe Illustrator 19.2.0, SVG Export Plug-In . SVG Version: 6.00 Build 0)  -->
<svg version="1.1" id="Layer_1" xmlns="http://www.w3.org/2000/svg" xmlns:xlink="http://www.w3.org/1999/xlink" x="0px" y="0px"
	 viewBox="0 0 276.9 54.7" style="enable-background:new 0 0 276.9 54.7;" xml:space="preserve">
<style type="text/css">
	.st0{fill:#FFFFFF;}
	.st1{clip-path:url(#SVGID_2_);}
	.st2{clip-path:url(#SVGID_6_);}
	.st3{fill:#54B948;}
	.st4{fill:#ED174F;}
	.st5{fill-rule:evenodd;clip-rule:evenodd;fill:#214A7F;}
	.st6{fill-rule:evenodd;clip-rule:evenodd;fill:#006C45;}
	.st7{fill-rule:evenodd;clip-rule:evenodd;fill:#006C46;}
	.st8{fill-rule:evenodd;clip-rule:evenodd;fill:#006E47;}
	.st9{fill-rule:evenodd;clip-rule:evenodd;fill:#006E48;}
	.st10{fill-rule:evenodd;clip-rule:evenodd;fill:#006E49;}
	.st11{fill-rule:evenodd;clip-rule:evenodd;fill:#00704A;}
	.st12{fill-rule:evenodd;clip-rule:evenodd;fill:#00704B;}
	.st13{fill-rule:evenodd;clip-rule:evenodd;fill:#00724D;}
	.st14{fill-rule:evenodd;clip-rule:evenodd;fill:#00724E;}
	.st15{fill-rule:evenodd;clip-rule:evenodd;fill:#00734E;}
	.st16{fill-rule:evenodd;clip-rule:evenodd;fill:#007450;}
	.st17{fill-rule:evenodd;clip-rule:evenodd;fill:#007551;}
	.st18{fill-rule:evenodd;clip-rule:evenodd;fill:#007652;}
	.st19{fill-rule:evenodd;clip-rule:evenodd;fill:#007653;}
	.st20{fill-rule:evenodd;clip-rule:evenodd;fill:#007753;}
	.st21{fill-rule:evenodd;clip-rule:evenodd;fill:#007755;}
	.st22{fill-rule:evenodd;clip-rule:evenodd;fill:#007956;}
	.st23{fill-rule:evenodd;clip-rule:evenodd;fill:#007957;}
	.st24{fill-rule:evenodd;clip-rule:evenodd;fill:#007B58;}
	.st25{fill-rule:evenodd;clip-rule:evenodd;fill:#007B59;}
	.st26{fill-rule:evenodd;clip-rule:evenodd;fill:#007B5A;}
	.st27{fill-rule:evenodd;clip-rule:evenodd;fill:#007C5A;}
	.st28{fill-rule:evenodd;clip-rule:evenodd;fill:#007D5C;}
	.st29{fill-rule:evenodd;clip-rule:evenodd;fill:#007D5D;}
	.st30{fill-rule:evenodd;clip-rule:evenodd;fill:#007F5E;}
	.st31{fill-rule:evenodd;clip-rule:evenodd;fill:#00805F;}
	.st32{fill-rule:evenodd;clip-rule:evenodd;fill:#008061;}
	.st33{fill-rule:evenodd;clip-rule:evenodd;fill:#008262;}
	.st34{fill-rule:evenodd;clip-rule:evenodd;fill:#008263;}
	.st35{fill-rule:evenodd;clip-rule:evenodd;fill:#008363;}
	.st36{fill-rule:evenodd;clip-rule:evenodd;fill:#008364;}
	.st37{fill-rule:evenodd;clip-rule:evenodd;fill:#008465;}
	.st38{fill-rule:evenodd;clip-rule:evenodd;fill:#058566;}
	.st39{fill-rule:evenodd;clip-rule:evenodd;fill:#068667;}
	.st40{fill-rule:evenodd;clip-rule:evenodd;fill:#108769;}
	.st41{fill-rule:evenodd;clip-rule:evenodd;fill:#17876A;}
	.st42{fill-rule:evenodd;clip-rule:evenodd;fill:#1E886A;}
	.st43{fill-rule:evenodd;clip-rule:evenodd;fill:#1E896C;}
	.st44{fill-rule:evenodd;clip-rule:evenodd;fill:#238A6C;}
	.st45{fill-rule:evenodd;clip-rule:evenodd;fill:#238A6D;}
	.st46{fill-rule:evenodd;clip-rule:evenodd;fill:#288C6E;}
	.st47{fill-rule:evenodd;clip-rule:evenodd;fill:#2C8D70;}
	.st48{fill-rule:evenodd;clip-rule:evenodd;fill:#308D70;}
	.st49{fill-rule:evenodd;clip-rule:evenodd;fill:#2F8D71;}
	.st50{fill-rule:evenodd;clip-rule:evenodd;fill:#348F72;}
	.st51{fill-rule:evenodd;clip-rule:evenodd;fill:#338F73;}
	.st52{fill-rule:evenodd;clip-rule:evenodd;fill:#379073;}
	.st53{fill-rule:evenodd;clip-rule:evenodd;fill:#389174;}
	.st54{fill-rule:evenodd;clip-rule:evenodd;fill:#3B9276;}
	.st55{fill-rule:evenodd;clip-rule:evenodd;fill:#3E9277;}
	.st56{fill-rule:evenodd;clip-rule:evenodd;fill:#429478;}
	.st57{fill-rule:evenodd;clip-rule:evenodd;fill:#419579;}
	.st58{fill-rule:evenodd;clip-rule:evenodd;fill:#449579;}
	.st59{fill-rule:evenodd;clip-rule:evenodd;fill:#44957B;}
	.st60{fill-rule:evenodd;clip-rule:evenodd;fill:#48977C;}
	.st61{fill-rule:evenodd;clip-rule:evenodd;fill:#4A987D;}
	.st62{fill-rule:evenodd;clip-rule:evenodd;fill:#4A987F;}
	.st63{fill-rule:evenodd;clip-rule:evenodd;fill:#4D987F;}
	.st64{fill-rule:evenodd;clip-rule:evenodd;fill:#4E9A80;}
	.st65{fill-rule:evenodd;clip-rule:evenodd;fill:#519B80;}
	.st66{fill-rule:evenodd;clip-rule:evenodd;fill:#509B81;}
	.st67{fill-rule:evenodd;clip-rule:evenodd;fill:#539B81;}
	.st68{fill-rule:evenodd;clip-rule:evenodd;fill:#549D84;}
	.st69{fill-rule:evenodd;clip-rule:evenodd;fill:#569D84;}
	.st70{fill-rule:evenodd;clip-rule:evenodd;fill:#599E85;}
	.st71{fill-rule:evenodd;clip-rule:evenodd;fill:#5CA088;}
	.st72{fill-rule:evenodd;clip-rule:evenodd;fill:#5EA188;}
	.st73{fill-rule:evenodd;clip-rule:evenodd;fill:#5EA189;}
	.st74{fill-rule:evenodd;clip-rule:evenodd;fill:#60A289;}
	.st75{fill-rule:evenodd;clip-rule:evenodd;fill:#61A38B;}
	.st76{fill-rule:evenodd;clip-rule:evenodd;fill:#64A48C;}
	.st77{fill-rule:evenodd;clip-rule:evenodd;fill:#63A48E;}
	.st78{fill-rule:evenodd;clip-rule:evenodd;fill:#66A58E;}
	.st79{fill-rule:evenodd;clip-rule:evenodd;fill:#67A68F;}
	.st80{fill-rule:evenodd;clip-rule:evenodd;fill:#69A78F;}
	.st81{fill-rule:evenodd;clip-rule:evenodd;fill:#69A790;}
	.st82{fill-rule:evenodd;clip-rule:evenodd;fill:#6BA892;}
	.st83{fill-rule:evenodd;clip-rule:evenodd;fill:#6FAA93;}
	.st84{fill-rule:evenodd;clip-rule:evenodd;fill:#6EAA95;}
	.st85{fill-rule:evenodd;clip-rule:evenodd;fill:#71AB95;}
	.st86{fill-rule:evenodd;clip-rule:evenodd;fill:#74AD98;}
	.st87{fill-rule:evenodd;clip-rule:evenodd;fill:#76AE99;}
	.st88{fill-rule:evenodd;clip-rule:evenodd;fill:#79AE99;}
	.st89{fill-rule:evenodd;clip-rule:evenodd;fill:#7AB09C;}
	.st90{fill-rule:evenodd;clip-rule:evenodd;fill:#7CB19C;}
	.st91{fill-rule:evenodd;clip-rule:evenodd;fill:#7CB19E;}
	.st92{fill-rule:evenodd;clip-rule:evenodd;fill:#7FB39F;}
	.st93{fill-rule:evenodd;clip-rule:evenodd;fill:#82B49F;}
	.st94{fill-rule:evenodd;clip-rule:evenodd;fill:#81B4A1;}
	.st95{fill-rule:evenodd;clip-rule:evenodd;fill:#84B5A3;}
	.st96{fill-rule:evenodd;clip-rule:evenodd;fill:#87B7A4;}
	.st97{fill-rule:evenodd;clip-rule:evenodd;fill:#87B7A6;}
	.st98{fill-rule:evenodd;clip-rule:evenodd;fill:#89B8A6;}
	.st99{fill-rule:evenodd;clip-rule:evenodd;fill:#8ABAA9;}
	.st100{fill-rule:evenodd;clip-rule:evenodd;fill:#8DBBA9;}
	.st101{fill-rule:evenodd;clip-rule:evenodd;fill:#8FBBAA;}
	.st102{fill-rule:evenodd;clip-rule:evenodd;fill:#92BEAD;}
	.st103{fill-rule:evenodd;clip-rule:evenodd;fill:#95BFAE;}
	.st104{fill-rule:evenodd;clip-rule:evenodd;fill:#95BFAF;}
	.st105{fill-rule:evenodd;clip-rule:evenodd;fill:#97C0AF;}
	.st106{fill-rule:evenodd;clip-rule:evenodd;fill:#97C0B1;}
	.st107{fill-rule:evenodd;clip-rule:evenodd;fill:#9AC2B2;}
	.st108{fill-rule:evenodd;clip-rule:evenodd;fill:#9DC3B4;}
	.st109{fill-rule:evenodd;clip-rule:evenodd;fill:#9EC5B6;}
	.st110{fill-rule:evenodd;clip-rule:evenodd;fill:#A0C6B6;}
	.st111{fill-rule:evenodd;clip-rule:evenodd;fill:#A0C6B7;}
	.st112{fill-rule:evenodd;clip-rule:evenodd;fill:#A2C7B7;}
	.st113{fill-rule:evenodd;clip-rule:evenodd;fill:#A2C7B9;}
	.st114{fill-rule:evenodd;clip-rule:evenodd;fill:#A5C7B9;}
	.st115{fill-rule:evenodd;clip-rule:evenodd;fill:#A6C9BA;}
	.st116{fill-rule:evenodd;clip-rule:evenodd;fill:#A8CABC;}
	.st117{fill-rule:evenodd;clip-rule:evenodd;fill:#ACCDBF;}
	.st118{fill-rule:evenodd;clip-rule:evenodd;fill:#AECEC1;}
	.st119{fill-rule:evenodd;clip-rule:evenodd;fill:#B2D0C4;}
	.st120{fill-rule:evenodd;clip-rule:evenodd;fill:#B4D1C5;}
	.st121{fill-rule:evenodd;clip-rule:evenodd;fill:#B4D1C6;}
	.st122{fill-rule:evenodd;clip-rule:evenodd;fill:#B8D4C8;}
	.st123{fill-rule:evenodd;clip-rule:evenodd;fill:#B8D4CA;}
	.st124{fill-rule:evenodd;clip-rule:evenodd;fill:#BAD5CA;}
	.st125{fill-rule:evenodd;clip-rule:evenodd;fill:#BCD6CB;}
	.st126{fill-rule:evenodd;clip-rule:evenodd;fill:#BED8CD;}
	.st127{fill-rule:evenodd;clip-rule:evenodd;fill:#C0D9CD;}
	.st128{fill-rule:evenodd;clip-rule:evenodd;fill:#C0D9CF;}
	.st129{fill-rule:evenodd;clip-rule:evenodd;fill:#C2DACF;}
	.st130{fill-rule:evenodd;clip-rule:evenodd;fill:#C4DBD2;}
	.st131{fill-rule:evenodd;clip-rule:evenodd;fill:#C6DCD2;}
	.st132{fill-rule:evenodd;clip-rule:evenodd;fill:#C8DDD4;}
	.st133{fill-rule:evenodd;clip-rule:evenodd;fill:#C8DDD6;}
	.st134{fill-rule:evenodd;clip-rule:evenodd;fill:#CCE0D8;}
	.st135{fill-rule:evenodd;clip-rule:evenodd;fill:#CFE1D8;}
	.st136{fill-rule:evenodd;clip-rule:evenodd;fill:#CEE1DA;}
	.st137{fill-rule:evenodd;clip-rule:evenodd;fill:#D0E3DB;}
	.st138{fill-rule:evenodd;clip-rule:evenodd;fill:#D3E4DC;}
	.st139{fill-rule:evenodd;clip-rule:evenodd;fill:#D3E4DD;}
	.st140{fill-rule:evenodd;clip-rule:evenodd;fill:#D5E5DE;}
	.st141{fill-rule:evenodd;clip-rule:evenodd;fill:#D5E5DF;}
	.st142{fill-rule:evenodd;clip-rule:evenodd;fill:#D7E6DF;}
	.st143{fill-rule:evenodd;clip-rule:evenodd;fill:#D9E8E1;}
	.st144{fill-rule:evenodd;clip-rule:evenodd;fill:#DCE9E3;}
	.st145{fill-rule:evenodd;clip-rule:evenodd;fill:#DEEAE3;}
	.st146{fill-rule:evenodd;clip-rule:evenodd;fill:#DEEAE5;}
	.st147{fill-rule:evenodd;clip-rule:evenodd;fill:#E2EDE7;}
	.st148{fill-rule:evenodd;clip-rule:evenodd;fill:#E2EDE9;}
	.st149{fill-rule:evenodd;clip-rule:evenodd;fill:#E5EEE9;}
	.st150{fill-rule:evenodd;clip-rule:evenodd;fill:#E9F1ED;}
	.st151{fill-rule:evenodd;clip-rule:evenodd;fill:#ECF2ED;}
	.st152{fill-rule:evenodd;clip-rule:evenodd;fill:#ECF3EF;}
	.st153{fill-rule:evenodd;clip-rule:evenodd;fill:#EEF4F2;}
	.st154{fill-rule:evenodd;clip-rule:evenodd;fill:#F1F7F4;}
	.st155{fill-rule:evenodd;clip-rule:evenodd;fill:#F4F8F5;}
	.st156{fill-rule:evenodd;clip-rule:evenodd;fill:#F4F8F7;}
	.st157{fill-rule:evenodd;clip-rule:evenodd;fill:#FBFDFB;}
	.st158{fill-rule:evenodd;clip-rule:evenodd;fill:#FFFFFF;}
	.st159{fill-rule:evenodd;clip-rule:evenodd;fill:#303D8F;}
	.st160{fill-rule:evenodd;clip-rule:evenodd;fill:#535C5F;}
	.st161{fill-rule:evenodd;clip-rule:evenodd;fill:#EF7E2A;}
	.st162{fill-rule:evenodd;clip-rule:evenodd;fill:#E8262B;}
	.st163{fill-rule:evenodd;clip-rule:evenodd;fill:#D02731;}
	.st164{fill:none;stroke:#FFFFFF;stroke-width:0.216;stroke-miterlimit:22.9256;}
	.st165{fill-rule:evenodd;clip-rule:evenodd;fill:#2C2825;}
	.st166{clip-path:url(#SVGID_10_);}
	.st167{clip-path:url(#SVGID_14_);fill:url(#SVGID_15_);}
	.st168{clip-path:url(#SVGID_17_);fill:url(#SVGID_18_);}
	.st169{clip-path:url(#SVGID_20_);fill:url(#SVGID_21_);}
	.st170{clip-path:url(#SVGID_23_);fill:url(#SVGID_24_);}
	.st171{clip-path:url(#SVGID_26_);fill:url(#SVGID_27_);}
	.st172{fill:#626D76;}
	.st173{fill:#879AA4;}
	.st174{fill:#8F9DA5;}
	.st175{clip-path:url(#SVGID_29_);fill:url(#SVGID_30_);}
	.st176{clip-path:url(#SVGID_32_);fill:url(#SVGID_33_);}
	.st177{fill:#B5BEC4;}
	.st178{clip-path:url(#SVGID_35_);fill:url(#SVGID_36_);}
	.st179{fill:#505A62;}
	.st180{clip-path:url(#SVGID_38_);fill:url(#SVGID_39_);}
	.st181{clip-path:url(#SVGID_41_);fill:url(#SVGID_42_);}
	.st182{clip-path:url(#SVGID_44_);fill:url(#SVGID_45_);}
	.st183{clip-path:url(#SVGID_47_);}
	.st184{clip-path:url(#SVGID_51_);}
	.st185{fill:#706F6E;}
	.st186{fill-rule:evenodd;clip-rule:evenodd;}
	.st187{fill:#293033;}
	.st188{fill:#A6CA3C;}
	.st189{fill:#19181D;}
	.st190{fill-rule:evenodd;clip-rule:evenodd;fill:#F6B128;}
	.st191{fill:#F6B128;}
	.st192{fill:#2C2D2D;}
	.st193{fill-rule:evenodd;clip-rule:evenodd;fill:#007FC3;}
</style>
<g>
	<path d="M221.2,13.7c-0.8,0.1-2.5,0.1-3.5,0.1c-0.8,0-2.6,0-2.9,0c-0.6,0-0.7,0-0.8,0.1c-0.1,0.2-0.3,0.5-0.4,0.6
		c0,0.2,0.1,0.4,0.2,0.4c2.6,0,3.1,0,3.2,1.2c0.1,1.4,0.1,4.7,0.1,8.3c0,3.6-0.4,6-1.7,7.8c-0.8,1-2.1,2.1-5,2.1
		c-1.9,0-3.8-0.5-5-1.5c-1.3-1.1-2.3-3-2.3-5.9c0-2.3,0.1-5.5,0.1-7.4c0-2.1,0.2-3,0.3-3.4c0.2-0.8,0.8-1,3-1.3
		c0.1-0.1,0.1-0.8,0.1-0.9c0-0.1,0-0.1-0.2-0.1c-1.5,0-2.9,0.1-4.4,0.1c-0.7,0-2.5-0.1-3.2-0.1c-0.5,0-0.6,0-0.6,0.2l0,0.8
		c1.5,0.2,2.1,0.3,2.2,0.9c0.1,0.5,0.1,1.5,0,5.2c-0.1,2.8-0.1,4.9-0.1,6.6c0,2.4,0.5,4.6,2.3,6.4c1,1.1,3.5,2.4,6.6,2.4
		c3,0,6.1-1.4,7.7-3.8c1.5-2.3,1.8-4.3,1.9-8.2c0.2-5.9,0.3-7.8,0.5-8.6c0.1-0.4,0.3-0.5,0.4-0.6c0.4-0.1,1-0.2,1.3-0.2l0.3-0.9
		C221.4,13.8,221.4,13.7,221.2,13.7 M121.9,26.4c-0.9,0-1.8,0.1-3.4,0.1c-1.5,0-2.2-0.1-2.4-0.1h0c-0.4,0-0.6-0.2-0.6-0.4
		c1.3-3.4,1.7-4.5,3.3-8.2c0.1-0.2,0.3-0.3,0.4-0.1c1,2.7,1.7,4.7,3,8.2C122.3,26.1,122.2,26.4,121.9,26.4z M127.7,32.2
		c-0.4-1-3.2-7.4-4.2-10.4c-1.2-3.2-1.9-4.8-2.9-8.1c-0.1-0.3-0.2-0.5-0.4-0.5h0c-0.3,0-0.9,0.2-1,0.3c-0.1,0.1-0.2,0.1-0.2,0.3
		c-0.2,0.5-0.4,1.1-0.8,2c-2,4.6-5.8,14.1-6.7,15.9c-0.9,1.7-1.2,2.5-2.7,2.9c-0.1,0.1,0,0.7,0.2,0.9c0,0.1,0.1,0.1,0.2,0.1
		c0.1,0,0.7,0,1.2,0c0.7,0,2.6,0,4.3,0c0.1-0.1,0.3-0.7,0.3-0.9c-1.7-0.5-2-0.8-2-1.5c0-0.9,1.1-3.8,1.4-4.5
		c0.3-0.6,0.4-0.7,0.8-0.7c2-0.1,4.8-0.1,7.3-0.1c0.3,0,0.5,0.3,0.6,0.5c0.4,1.1,1.5,3.8,1.7,4.5c0.4,1.3,0.2,1.5-1.5,2
		c0,0.1,0.1,0.7,0.2,0.9c0,0.1,0.1,0.1,0.2,0.1c0.3,0,1.2-0.1,2.3-0.1c1.1,0,1.8,0,4.6,0c0.1-0.1,0.3-1,0.3-1
		C128.9,34.4,128.4,33.8,127.7,32.2z M158.1,13.7c-1,0-2.4,0.1-3.7,0.1h-3.8l0.1,0.9c0,0.1,0.1,0.1,0.2,0.2c0.7,0.1,1.6,0.2,2,0.3
		c0.7,0.2,0.8,1.1,0.9,1.7c0.1,1.7,0.2,3.5,0.2,7c0,2.5,0,5.5-0.1,6.6c-6.7-6.3-11.6-11.2-13.6-13.3c-0.8-0.7-2-2.3-2.2-2.7
		c-0.1-0.2-0.3-0.5-0.4-0.6c-0.1-0.1-0.2-0.1-0.4-0.1c-2.4,0-3.1-0.1-4.7-0.1v0.9c0,0.1,0.1,0.2,0.3,0.2c1.4,0.2,1.9,0.5,2.5,1
		c0.5,0.5,0.6,1.1,0.6,4.5v3.7c0,4.7-0.3,7.8-0.4,8.7c-0.2,1.1-0.3,1.4-2.4,2c0.1,0.3,0.2,0.6,0.3,0.9c0.6,0,1.6-0.1,2.8-0.1
		c1.4,0,2.9,0.1,4.3,0.1c0.1,0,0.3-0.2,0.3-0.3l-0.2-0.8c-1.4-0.3-2.4-0.5-2.7-1.3c-0.4-1.3-0.4-5.8-0.4-8.9c0-1.9,0.1-4.3,0.2-6.2
		c2.8,2.8,5.4,5.4,8.2,8.2c3.5,3.5,6.7,6.7,8.6,9.6c0.2,0.2,0.3,0.2,0.5,0.2c0.4-0.2,0.6-0.3,0.7-0.5c0-0.6-0.1-2.6-0.1-4.7
		c0-4.5,0-6.7,0.1-9.7c0.2-4.6,0.4-5.6,1-6c0.5-0.3,1-0.5,2.2-0.7l-0.2-0.7C158.3,13.7,158.2,13.7,158.1,13.7z M166.8,15.8
		c0.1-0.6,0.4-0.9,3.4-1.1l-0.2-0.8c0-0.1-0.1-0.1-0.5-0.1c-0.3,0-2.6,0-4.4,0.1c-1.7,0-2.9,0-3.3,0c-0.4,0-0.6,0-0.9,0
		c-0.1,0-0.1,0.1-0.3,0.3c-0.1,0.3-0.2,0.4-0.2,0.5c0,0.1,0.1,0.2,0.2,0.2c0.9,0,1.4,0.1,1.8,0.1c1.1,0.2,1.2,0.6,1.2,5v8
		c0,3.8-0.2,4.9-0.2,5.5c-0.1,0.9-0.9,1.1-3.3,1.1c0,0.2,0,0.5,0.1,0.8c0,0.1,0.2,0.3,0.4,0.3c0.1,0,1.8-0.1,3.3-0.1
		c1.2,0,2.6,0,5.3,0.1c0.1-0.1,0.3-0.7,0.3-0.9c0-0.1-0.1-0.1-0.4-0.2c-0.3-0.1-1.4-0.2-1.8-0.2c-0.5-0.1-0.8-0.2-0.8-1.1
		c-0.1-1.1-0.2-2.8-0.2-4.8v-6.7C166.6,17.7,166.7,16.5,166.8,15.8z M49,34.9c-2.3,0-4.4-0.8-6.6-3.1c-1.9-1.9-3-4.6-3-7.7
		c0-2.1,0.5-5.2,2.3-7.2c1.7-1.9,3.4-2.5,5-2.5h0c2.8,0,4.9,1.2,6.3,2.7c2.3,2.5,3.1,5.5,3.1,8.5C56.1,31.9,52.4,34.9,49,34.9z
		 M47.8,13.2L47.8,13.2c-3,0-6,1.1-8.1,3.1c-2.6,2.4-3.8,5.3-3.8,8.2c0,2.8,1.1,5.8,2.8,7.6c2.3,2.6,6.2,4.2,9.7,4.2
		c1.8,0,4.8-0.8,7.2-3.1c1.8-1.8,3.8-4.8,3.8-9C59.5,18,53.9,13.2,47.8,13.2z M185.8,34.9C185.7,34.9,185.7,34.9,185.8,34.9
		c-0.3,0-0.5,0-0.7,0c-2.3,0-4.4-0.8-6.6-3.1c-1.9-1.9-3-4.6-3-7.7c0-2.1,0.5-5.2,2.3-7.2c1.7-1.9,3.4-2.5,5-2.5h0
		c2.8,0,4.9,1.2,6.3,2.7c2.3,2.5,3.1,5.5,3.1,8.5C192.2,31.5,189,34.5,185.8,34.9L185.8,34.9z M205.9,38.5c0,0-10.4,2.6-18.1-2.9
		c1.3-0.5,2.7-1.2,3.9-2.4c1.8-1.8,3.8-4.8,3.8-9c0-6.2-5.6-11-11.6-11h0c-2.9,0-6,1.1-8.1,3.1c-2.6,2.4-3.8,5.3-3.8,8.2
		c0,2.8,1.1,5.8,2.8,7.6c2,2.2,5.1,3.7,8.3,4.1c2,1.6,10.8,8.2,21.3,4C208.5,38.5,206.4,38.4,205.9,38.5z M240.9,30.5
		c-0.3,0-0.7-0.1-0.8,0c-1,3.6-2.9,3.9-6.9,3.9c-2.8,0-3.9-0.2-4.4-0.8c-0.3-0.5-0.3-1.4-0.3-3.9c0-2.8,0.2-3.9,0.3-4.1
		c0.1-0.1,0.2-0.2,0.3-0.2c0.2,0,0.5-0.1,2.2-0.1c1.7,0,2.8,0,3.6,0.1c1.3,0.1,1.7,0.4,2,1.3c0.1,0.4,0.3,0.9,0.4,1.3
		c0.1,0.1,0.1,0.2,0.3,0.2c0.2,0,0.5,0,0.8-0.1c-0.1-1-0.2-1.9-0.2-3.1c0-1,0.2-2.6,0.3-3.6c-0.2,0-0.9,0-1.1,0.1
		c-0.4,2-0.6,2.1-2.6,2.3c-0.8,0.1-2,0.1-3.5,0.1H229c-0.2,0-0.4-0.2-0.4-0.5c0-2.4-0.1-4.7-0.1-7.1c0-0.8,0.1-1.1,0.5-1.2
		c0.4-0.1,1.5-0.2,3.5-0.2h2.3c2.6,0,2.9,1.2,3.3,3.6c0,0.2,0.2,0.3,1,0.3c0-0.9,0-2.8,0.3-4.3c0.1-0.6,0.1-0.6-0.2-0.8
		c-0.2-0.1-0.4-0.2-0.8-0.2c-1.7,0-4.1,0.2-6.2,0.2h-3.3c-2.1,0-3.3-0.1-4.4-0.1h-1.2c-0.2,0-0.2,0-0.2,0.2l-0.1,0.8
		c0,0.1,0,0.1,0,0.1c0.8,0.2,1.4,0.3,1.8,0.4c0.3,0.1,0.4,0.2,0.4,0.4c0,0.2,0.2,1.7,0.2,6.2v5.8c0,3.4-0.2,5.6-0.2,6.1
		c0,0.5-0.2,0.7-1.7,1c0,0-0.1,0.1-0.1,0.1c0,0.3,0,1,0.1,1c2.7-0.1,5.4-0.2,8-0.2c2.8,0,5.1,0,6.2,0.1c1.1,0,1.3,0,1.6,0
		c0.2,0,0.3-0.1,0.4-0.3c0.4-1,1-3.1,1-4.7C241,30.6,241,30.6,240.9,30.5z M68.6,24.9c-0.5,0-0.9,0-1.1-0.1
		c-0.1-0.1-0.2-0.2-0.2-3.4c0-3.1,0.1-4.8,0.2-5.8c0.1-0.3,0.2-0.5,0.5-0.6c0.5-0.2,1.1-0.4,2.3-0.4c3,0,5,2.3,5,4.9v0
		c0,1.4-0.6,2.7-1.4,3.7C72.8,24.5,71.3,24.9,68.6,24.9z M83.1,35.3c-2.9-1.4-4.5-3.1-6.1-5.5c-1.4-2.2-2.2-4.2-2.3-4.9
		c-0.1-0.2,0-0.4,0.2-0.5c1.3-0.7,3.6-2.3,3.6-5c0-1.6-0.8-3.3-2.4-4.4c-1.7-1.2-3.8-1.5-5.9-1.5c-0.9,0-1.8,0-3.4,0.1
		c-1.4,0.1-3,0.1-4.7,0.2c-0.1,0.1-0.2,0.1-0.1,0.2l0.1,0.8c2.2,0.5,2.3,0.7,2.4,1.8c0,1.6,0.1,4,0.1,6v4c0,4.1-0.1,6.8-0.4,7.3
		c-0.2,0.5-1.2,0.7-1.9,0.8c0,0.2,0,0.8,0.2,1c0,0.1,0.1,0.1,0.5,0.1c0.3,0,1-0.1,2.2-0.1c1.4,0,4.1,0,4.5,0c0.3,0,0.4,0,0.5-0.1
		c0.1-0.1,0.2-0.7,0.2-0.9c-0.8-0.2-2.3-0.4-2.6-0.7c-0.2-0.1-0.3-0.4-0.3-0.9c-0.1-1.9-0.1-3.9-0.1-6.5c0-0.3,0.2-0.4,0.4-0.5
		C68,26,68.4,26,69.4,26c2.1,0,2.5,0.3,3.2,1.9c1.1,2.2,2.2,4.1,3.6,5.4c1.9,1.8,4.1,2.8,7.1,3.1c0.1,0,0.2-0.3,0.2-0.6
		C83.5,35.6,83.5,35.4,83.1,35.3z M103,24.5c-1.4,0-3-0.1-4.9-0.1c-0.1,0-0.2,0.1-0.2,0.3c0,0.2,0.1,0.5,0.2,0.6
		c0.1,0.1,0.2,0.2,0.4,0.2c0.4,0.1,1.8,0.2,2.2,0.3c1.2,0.2,1.3,0.6,1.3,3.8c0,2.4-0.3,3.9-0.9,4.4c-0.5,0.4-1.8,0.8-2.8,0.8
		c-1.7,0-5.4-0.4-8-2.9c-2.3-2.2-2.9-4.9-2.9-7.2c0-4.2,2-6.8,3.5-8.2c1.9-1.6,3.9-2.1,5.7-2.1c3.8,0,6,2,6.9,4.4
		c0.1,0.2,0.2,0.3,0.3,0.3h0.5c0.2,0,0.3,0,0.4-0.1c0-0.1,0-0.4,0-0.8c-0.2-0.8-0.4-2.6-0.5-4.7c0-0.2-0.1-0.2-0.2-0.2l-0.7,0
		c-0.3,0-0.3,0-0.4,0.1l-0.3,0.5c0,0.1-0.2,0.1-0.3,0c-1.3-0.4-3.2-0.6-4.3-0.6c-1.1,0-3.2,0.1-5.2,0.7c-2.3,0.6-4,1.4-5.4,2.7
		c-2.1,1.9-3.4,4.5-3.4,7.9v0c0,3.5,1.3,6.3,3.3,8.1c2.4,2.2,5.5,3.4,10,3.4c1.3,0,2.4-0.1,3.6-0.2c1.3-0.1,1.9-0.1,2.7-0.1
		c0.1,0,0.6,0,0.9-0.3c0.3-0.3,0.5-0.5,0.5-1.2c0-5.7,0.2-8.1,0.2-8.3c0.5-0.1,0.9-0.1,1.3-0.2c0.1-0.2,0.1-1.2,0.1-1.3
		C105.9,24.4,104.7,24.5,103,24.5z"/>
</g>
</svg>
